<?xml version="1.0" encoding="UTF-8"?>
<svg id="Layer_1" data-name="Layer 1" xmlns="http://www.w3.org/2000/svg" viewBox="0 0 1170.46 233.21">
  <defs>
    <style>
      .cls-1 {
        opacity: .8;
      }

      .cls-1, .cls-2, .cls-3, .cls-4 {
        fill: #266c82;
        stroke-width: 0px;
      }

      .cls-3 {
        opacity: .75;
      }

      .cls-5 {
        opacity: .5;
      }

      .cls-4 {
        opacity: .3;
      }
    </style>
  </defs>
  <g class="cls-5">
    <path class="cls-1" d="M468.01.2c15.49,0,28.17,12.68,28.17,27.97v39.04c0,15.29-12.68,27.97-28.17,27.97l-89.54.2-.6-.2v49.7h-26.56V.2h116.7ZM469.42,28.17c0-.8-.6-1.41-1.41-1.41h-88.74c-.81,0-1.41.6-1.41,1.41v39.04c0,.81.6,1.41,1.41,1.41h88.74c.8,0,1.41-.6,1.41-1.41V28.17Z"/>
    <path class="cls-1" d="M655.13,67.2c0,15.29-12.68,27.97-28.17,27.97h-7.85l36.02,42.86v6.84h-28.97l-41.85-49.7h-47.49v49.7h-26.56V.2h116.7c15.49,0,28.17,12.68,28.17,27.97v39.04ZM626.96,68.61c.8,0,1.41-.6,1.41-1.41V28.17c0-.8-.6-1.41-1.41-1.41h-88.74c-.8,0-1.41.6-1.41,1.41v39.04c0,.81.6,1.41,1.41,1.41h88.74Z"/>
    <path class="cls-1" d="M792.96,0c15.29,0,27.97,12.47,27.97,27.97v88.94c0,15.49-12.68,27.97-27.97,27.97h-88.94c-15.49,0-27.97-12.47-27.97-27.97V27.97c0-15.49,12.48-27.97,27.97-27.97h88.94ZM792.96,118.31c.6,0,1.21-.6,1.21-1.41V27.97c0-.8-.6-1.41-1.21-1.41h-88.94c-.8,0-1.41.6-1.41,1.41v88.94c0,.8.6,1.41,1.41,1.41h88.94Z"/>
    <path class="cls-1" d="M976.66,0v26.56h-106.44v32.6h85.72v26.56h-85.72v59.16h-26.76V0h133.2Z"/>
    <path class="cls-1" d="M988.73,0h26.56v144.87h-26.56V0Z"/>
    <path class="cls-1" d="M1170.42,0v26.56h-58.96v118.31h-26.76V26.56h-59.16V0h144.87Z"/>
  </g>
  <polyline class="cls-3" points="76.46 233.21 133.97 174.93 226.34 174.93 226.34 133.41 175 133.41 226.45 78.32 226.45 2.35 0 233.21"/>
  <g>
    <polygon class="cls-2" points="240.06 233.21 302.25 233.21 302.42 66.07 240.17 66.07 240.06 233.21"/>
    <polygon class="cls-2" points="240.09 .1 240.09 .13 240.29 52.19 302.3 52.19 302.38 .1 240.09 .1"/>
  </g>
  <rect class="cls-4" x="351.46" y="200.21" width="819" height="33"/>
</svg>