<svg xmlns="http://www.w3.org/2000/svg" xmlns:xlink="http://www.w3.org/1999/xlink" width="91px" height="91px" viewBox="0 0 91 91" version="1.1">
    <g stroke="none" stroke-width="1" fill="none" fill-rule="evenodd">
        <g transform="translate(-104.000000, -29.000000)">
            <g transform="translate(100.000000, 25.000000)">
                <path d="M72,38.7596831 L69.8640957,36.6273087 L56.1475851,23 L48.4494299,30.6456118 C49.2904422,31.3350427 49.9890609,32.1526371 50.5363864,33.0652491 L56.1453602,27.4923494 L67.5946973,38.8657494 L68.7961435,40.0678341 L68.7961435,43.1592245 C66.8471308,44.6308943 63.8412904,46.9091099 63.805692,46.9356264 L60.4638917,49.4679591 L63.8101418,51.9936627 C65.369797,53.1692308 67.4812274,54.7646446 68.7961435,55.7590161 L68.7961435,59.0868459 L67.7637897,59.9773609 L67.6814684,60.0502814 L67.5991471,60.1298311 L56.1453602,71.5076506 L49.8889404,65.2939337 C49.4083619,66.2617886 48.7831649,67.1500938 48,67.9124453 L56.1431353,76 L69.8596459,62.374901 C69.8596459,62.374901 69.8596459,62.374901 71.9955502,60.5364186 L71.9955502,54.1879091 C71.955502,54.1481343 65.7413553,49.46133 65.7413553,49.46133 C65.7413553,49.46133 70.6138871,45.7688972 71.9955502,44.7369606 L71.9955502,38.7596831 L72,38.7596831 Z" fill="#ffffff" fill-rule="nonzero"/>
                <path d="M43.5,29.2507608 L53.8282566,39.74161 L54.6485121,40.5812315 L54.6485121,42.5477133 C52.7534391,44.0126318 50.2513335,45.9525993 50.2513335,45.9525993 L45.7083801,49.4723809 L50.2578608,52.9855338 C50.2578608,52.9855338 52.8535233,54.9873682 54.6506878,56.3771626 L54.6506878,58.5248259 L54.0632369,59.041856 L53.9479225,59.1434944 L53.8391353,59.2539709 L43.5,69.7536582 L33.1608647,59.2539709 L33.0890651,59.1788469 L33.0129141,59.1103514 L32.3514879,58.5005211 L32.3514879,40.5922792 C32.7822852,40.1459541 33.1630404,39.7570767 33.1630404,39.7570767 L33.1630404,39.7570767 L43.5,29.2507608 L43.5,29.2507608 Z M43.5,23 L30.0843627,36.6261725 C30.0843627,36.6261725 28.3372403,38.4269396 28,38.7937216 L28,60.4515362 L30.0843627,62.376037 L43.5,76 L56.9156373,62.376037 C56.9156373,62.376037 56.9156373,62.376037 59,60.5377079 L59,54.1897278 C58.9608366,54.1499562 52.8883352,49.4635428 52.8883352,49.4635428 C52.8883352,49.4635428 57.6510387,45.7714179 59,44.7395673 L59,38.7583691 L56.9156373,36.6261725 L43.5,23 L43.5,23 Z" fill="#ffffff" fill-rule="nonzero"/>
                <rect stroke="#ffffff" stroke-width="2" transform="translate(49.500000, 49.500000) rotate(45.000000) translate(-49.500000, -49.500000) " x="16" y="16" width="67" height="67" rx="8"/>
            </g>
        </g>
    </g>
</svg>