<svg xmlns="http://www.w3.org/2000/svg" xmlns:xlink="http://www.w3.org/1999/xlink" version="1.1" id="Layer_1" x="0px" y="0px" viewBox="0 0 448 69.7" style="enable-background:new 0 0 448 69.7;" xml:space="preserve">
<style type="text/css">
	.st0{fill:#0067d6;}
</style>
<g>
	<path class="st0" d="M2,1.1h18.4v50.3h32.2v16.1H2V1.1z"/>
	<path class="st0" d="M61,1.1h18.4v66.4H61V1.1z"/>
	<path class="st0" d="M86.3,1.1h20.5l15.1,42l15.2-42h20.1L130.2,68h-17.1L86.3,1.1z"/>
	<path class="st0" d="M230.5,1.1h24.9c15,0,24.9,8,24.9,21.1v0.2c0,14.3-12,21.7-26.1,21.7H238v23.4h-7.5V1.1z M254.4,37.3   c11,0,18.2-5.9,18.2-14.6v-0.2c0-9.5-7.1-14.4-17.8-14.4H238v29.2H254.4z"/>
	<path class="st0" d="M294.5,1.1h7.5v66.4h-7.5V1.1z"/>
	<path class="st0" d="M318.5,34.5v-0.2c0-18.8,14-34.3,33.6-34.3c12,0,19.3,4.3,25.9,10.5l-5.1,5.5c-5.6-5.3-11.9-9.1-20.9-9.1   c-14.7,0-25.7,12-25.7,27.2v0.2c0,15.4,11.1,27.4,25.7,27.4c9.1,0,15.1-3.5,21.4-9.6l4.9,4.8c-6.9,7-14.5,11.7-26.6,11.7   C332.7,68.7,318.5,53.6,318.5,34.5z"/>
	<path class="st0" d="M391.5,1.1h7.5v39.7l38.1-39.7h9.7l-28.5,29L448,67.5h-9.4l-25.5-32.2L399,49.7v17.8h-7.5V1.1z"/>
	<g>
		<path class="st0" d="M149.5,52.4L143.2,68h58.8c8.6,0,15.6-7,15.6-15.6v-0.1h-15.6H149.5z"/>
		<path class="st0" d="M201.9,1.1h-31.8l-6.3,15.7h38.1v0c8.6,0,15.6-7,15.6-15.6v0H201.9z"/>
		<path class="st0" d="M159.8,26.8l-6.3,15.7h48.4v0c8.6,0,15.6-7,15.6-15.6v0h-15.6H159.8z"/>
	</g>
</g>
</svg>