<?xml version="1.0" encoding="UTF-8"?><svg id="a" xmlns="http://www.w3.org/2000/svg" viewBox="0 0 245.88 30.78"><defs><style>.b{fill:#24c7b7;}</style></defs><path class="b" d="m16.44,30.78V2.89h-4.81v27.89h-3.41V2.89H3.41v27.89H0V0h3.41v1.72c.42-1.21,1.59-1.72,3.18-1.72h1.07c1.24-.09,2.41.59,2.94,1.72.47-1.21,1.31-1.72,2.94-1.72h3c1.83.01,3.31,1.49,3.32,3.32v27.46h-3.42Z"/><path class="b" d="m31.66,30.78v-12.38h-4.66v12.38h-3.42V3.31c.02-1.83,1.49-3.3,3.32-3.31h4.9c1.83.01,3.31,1.49,3.32,3.32v27.46h-3.46Zm0-27.93h-4.66v12.7h4.67V2.85Z"/><path class="b" d="m40.82,30.78V2.89h-3.69V0h10.87v2.89h-3.68v27.89h-3.5Z"/><path class="b" d="m53.61,30.78c-1.82-.02-3.28-1.5-3.29-3.32V3.31c.02-1.83,1.49-3.3,3.32-3.31h5c1.81.01,3.28,1.49,3.27,3.3h0v4.87h-3.39V2.85h-4.81v25.06h4.81v-5.91h3.41v5.46c.02,1.82-1.44,3.3-3.26,3.32,0,0,0,0,0,0,0,0-5.06,0-5.06,0Z"/><path class="b" d="m73.83,30.78v-14.25h-5.23v14.25h-3.41V0h3.41v13.68h5.23V0h3.41v30.78h-3.41Z"/><path class="b" d="m81.17,30.78V0h9.67v2.85h-6.26v11.07h5.23v2.9h-5.23v11.11h6.26v2.85h-9.67Z"/><path class="b" d="m93.73,30.78V0h8c1.83.01,3.31,1.49,3.32,3.32v24.14c-.01,1.83-1.49,3.31-3.32,3.32h-8Zm7.94-27.93h-4.53v25.08h4.53V2.85Z"/><path class="b" d="m112.32,25.39V0h6.54c1.5.01,2.72,1.23,2.73,2.73v7.51c-.04.89-.64,1.65-1.5,1.89.35.12,1.73.62,1.73,1.89v8.62c.01,1.51-1.2,2.74-2.71,2.75,0,0,0,0,0,0h-6.79Zm6.47-23h-3.66v8.61h3.66V2.39Zm.21,10.93h-3.89v9.74h3.89v-9.74Z"/><path class="b" d="m124.88,25.39V0h8v2.39h-5.16v9.12h4.28v2.39h-4.31v9.16h5.16v2.33h-7.97Z"/><path class="b" d="m137.4,25.39V2.39h-3V0h8.92v2.39h-3v23h-2.92Z"/><path class="b" d="m147.86,25.39V2.39h-3V0h8.93v2.39h-3v23h-2.93Z"/><path class="b" d="m156,25.39V0h2.81v25.39h-2.81Z"/><path class="b" d="m169,25.39V2.39h-4.2v23h-2.8V0h2.81v1.39c.32-.92,1.23-1.49,2.19-1.39h2.08c1.5.01,2.72,1.23,2.73,2.73v22.66h-2.81Z"/><path class="b" d="m177.58,25.6c-1.51,0-2.73-1.22-2.73-2.73V2.73c.01-1.5,1.23-2.72,2.73-2.73h4.16c1.5.01,2.7,1.23,2.69,2.73h0v4h-2.81V2.35h-4v20.9h4.31v-8.16h-2v-2.38h4.58v10.16c.01,1.5-1.19,2.72-2.69,2.73,0,0,0,0,0,0h-4.24Z"/><rect class="b" x="112.46" y="28.46" width="73.16" height="2.34"/><path class="b" d="m192.25,30.78V0h7.94c1.83.01,3.31,1.49,3.32,3.32v9.11c-.05,1.07-.79,2-1.82,2.29.42.14,2.1.75,2.1,2.29v10.45c-.01,1.83-1.49,3.31-3.32,3.32h-8.22Zm7.85-27.93h-4.44v10.46h4.44V2.85Zm.28,13.26h-4.72v11.82h4.72v-11.82Z"/><path class="b" d="m207.48,30.78V0h3.41v27.93h5.43v2.85h-8.84Z"/><path class="b" d="m222.14,30.8c-1.83-.01-3.31-1.49-3.32-3.32V3.32c.01-1.83,1.49-3.31,3.32-3.32h5c1.83.01,3.31,1.49,3.32,3.32v24.16c-.01,1.83-1.49,3.31-3.32,3.32h-5Zm5-27.94h-4.82v25.07h4.81V2.86Z"/><path class="b" d="m237.32,30.8c-1.83-.01-3.31-1.49-3.32-3.32V3.32c0-1.83,1.49-3.31,3.32-3.32h5c1.82.01,3.28,1.49,3.27,3.31h0v4.58h-3.41V2.89h-4.81v25.04h5.23v-9.64h-2.28v-2.9h5.56v12.09c.02,1.82-1.44,3.3-3.26,3.32,0,0,0,0,0,0h-5.3Z"/></svg>