<svg xmlns="http://www.w3.org/2000/svg" width="216" height="24" viewBox="0 0 216 24">
    <g fill-rule="nonzero" fill="none">
        <circle fill="#FFF" cx="164.677" cy="12.308" r="8.246"/>
        <path d="m12.677 23.63-3.692-7.445-3.139-.062v7.446H0V.985h11.323c5.046 0 7.877 3.323 7.877 7.569 0 3.877-2.03 6.154-4.37 7.077l4.432 8h-6.585zm.677-15.076c0-1.539-1.292-2.523-2.83-2.523H5.907v5.107h4.615c1.723 0 2.83-.984 2.83-2.584zM37.908 23.63 36.43 19.2l-8.246-.062-1.416 4.431h-6.646L28.677.923H36l8.554 22.646h-6.646v.062zm-5.6-16.922-2.523 7.446h5.046l-2.523-7.446zM66.523 23.63V.986h5.846V23.63h-5.846zM91.2 23.63l-9.6-13.107v13.108h-5.846V.985h6.03l9.17 12.492V.985H96.8V23.63h-5.6zM99.2 12.246c-.123-7.2 5.6-11.754 12.123-11.754 4.185 0 6.892 1.477 9.046 3.816l-3.877 3.63c-1.723-1.846-2.707-2.153-4.923-2.215-3.323-.123-6.338 2.83-6.338 6.4 0 3.692 2.707 6.523 6.277 6.523 1.846 0 2.954-.492 4-1.292V15.63h-3.385v-5.17h9.23v8.37c-2.645 3.569-6.03 4.984-9.845 5.046-5.723.061-12.185-3.754-12.308-11.63zM132.246 23.63V.986h11.323c5.108 0 7.877 3.569 7.877 7.692 0 4.061-2.77 7.508-7.877 7.508h-5.477v7.446h-5.846zm13.292-15.015c0-1.538-1.169-2.584-2.707-2.584h-4.739V11.2h4.739c1.538 0 2.707-1.046 2.707-2.585zM203.262 23.63V6.03h-6.339V.924h18.523v5.108h-6.338v17.538z" fill="#000"/>
        <path d="M164.677.554c-6.462 0-11.692 5.23-11.692 11.692s5.23 11.692 11.692 11.692c6.461 0 11.692-5.23 11.692-11.692 0-6.461-5.23-11.692-11.692-11.692zm0 17.908c-1.6 0-3.015-.554-4.123-1.539-1.292-1.17-2.154-2.83-2.154-4.677 0-3.323 2.646-6.092 5.908-6.215h.307c.37 0 .677 0 1.047.061.184.062.43.062.615.123a3 3 0 0 1 .677.247c.061 0 .061 0 .123.061a6.242 6.242 0 0 1 3.815 5.785c.062 3.384-2.769 6.154-6.215 6.154z" fill="#ED1C24"/>
        <path d="M64.492 20.062c-1.169-1.108-3.815-3.631-3.815-3.631-1.108 1.354-2.83 2.277-4.985 2.277-3.692 0-6.338-3.323-6.338-6.585 0-4.061 3.446-6.708 6.708-6.461 2.215.184 3.507 1.046 4.553 2.215 0 0 3.816-3.63 3.877-3.692C63.631 3.323 61.17.43 55.815.43 48.677.369 43.323 5.23 43.323 12c0 7.015 5.539 11.877 12.308 11.877 4.923 0 7.384-2.215 8.861-3.815zM177.046 20.062l3.877-3.631c1.908 1.723 4.123 2.461 6.646 2.461 2.031 0 3.139-.738 3.139-1.846 0-3.077-12.862-.554-12.862-9.23 0-3.816 3.262-7.324 9.046-7.324 4.739 0 7.693 2.277 8.062 2.462l-3.939 3.692a10.514 10.514 0 0 0-4.738-1.108c-1.723 0-2.4.677-2.4 1.662 0 2.83 12.8.554 12.8 9.17 0 4.553-3.57 7.507-9.477 7.507-4.492 0-7.692-1.6-10.154-3.815z" fill="#000"/>
    </g>
</svg>