<svg width="158" height="24" viewBox="0 0 158 24" fill="#000000" xmlns="http://www.w3.org/2000/svg"><path d="M24 .174A.174.174 0 0 0 23.826 0H.174A.174.174 0 0 0 0 .174v11.652c0 .096.078.174.174.174H5.82a.174.174 0 0 0 .174-.174V6.177c0-.096.078-.174.174-.174h17.646a.174.174 0 0 0 .174-.174V.174zm-5.826 11.832a.174.174 0 0 0-.174.174v5.649a.174.174 0 0 1-.174.174H.174a.174.174 0 0 0-.174.174v5.649c0 .096.078.174.174.174H23.82a.174.174 0 0 0 .174-.174V12.18a.174.174 0 0 0-.174-.174zM44.45 10.856q-1.624-.703-4.383-.865c-1.521-.089-2.569-.343-3.132-.758q-.852-.621-.85-1.748c0-.7.293-1.28.874-1.748.587-.468 1.395-.705 2.437-.705 1.15 0 2.072.254 2.773.77q1.006.747 1.222 2.133c.012.06.06.1.12.1h3.497a.12.12 0 0 0 .12-.13q-.314-2.906-2.324-4.497-2.058-1.625-5.348-1.624-2.002 0-3.58.73c-1.049.485-1.881 1.167-2.492 2.038s-.916 1.878-.916 3.016q-.002 2.01.904 3.194.908 1.183 2.533 1.736 1.627.552 3.857.687c1.449.095 2.49.35 3.132.77.64.421.958 1.067.958 1.926 0 .847-.342 1.523-1.018 2.027-.677.503-1.641.758-2.88.758q-1.727.002-2.87-.788-1.104-.763-1.347-2.335c-.006-.059-.06-.1-.12-.1H32.12a.117.117 0 0 0-.12.124q.16 2.09 1.246 3.496a6.7 6.7 0 0 0 2.857 2.151q1.742.703 3.826.705 2.228.002 3.953-.788c1.15-.521 2.048-1.25 2.689-2.175.64-.93.958-1.996.958-3.211q.001-1.735-.725-2.963c-.479-.812-1.263-1.458-2.353-1.926zm15.122-3.164c-1.084-.58-2.27-.865-3.551-.865q-1.977.001-3.594.865c-1.077.58-1.928 1.428-2.563 2.548-.628 1.12-.946 2.489-.946 4.106 0 1.618.318 2.987.946 4.107q.946 1.68 2.563 2.56t3.594.883a7.35 7.35 0 0 0 3.55-.883q1.627-.88 2.606-2.56c.647-1.12.976-2.489.976-4.107q.002-2.426-.976-4.106c-.647-1.12-1.515-1.973-2.605-2.548m-.988 9.86c-.63.747-1.485 1.114-2.563 1.114s-1.929-.373-2.546-1.114q-.933-1.12-.934-3.182c0-1.398.318-2.465.946-3.211.63-.747 1.474-1.114 2.534-1.114 1.078 0 1.928.373 2.563 1.114.629.746.946 1.813.946 3.211 0 1.38-.311 2.441-.946 3.182m8.731-15.62c-.754.635-1.126 1.6-1.126 2.91V6.98a.12.12 0 0 1-.12.119h-2.042a.12.12 0 0 0-.12.118v3.016a.12.12 0 0 0 .12.119h2.042a.12.12 0 0 1 .12.118v11.057a.12.12 0 0 0 .12.119h3.27a.12.12 0 0 0 .12-.119V10.465a.12.12 0 0 1 .12-.118h3.545a.12.12 0 0 0 .12-.119V7.212a.12.12 0 0 0-.12-.118h-3.546a.12.12 0 0 1-.12-.119V5.523q0-1.297 1.114-1.297h2.552a.12.12 0 0 0 .12-.119v-3.01a.12.12 0 0 0-.12-.119h-3.222q-1.696.002-2.827.954m18.547 6.323q-1.772-1.433-4.773-1.434c-1.168 0-2.228.196-3.174.58q-1.42.58-2.312 1.684-.853 1.056-1.042 2.512c-.012.071.048.13.12.13h3.33c.06 0 .107-.041.12-.094a2.1 2.1 0 0 1 .874-1.322c.485-.338 1.168-.51 2.06-.51q3.065.002 3.066 2.537v.213a.12.12 0 0 1-.12.119h-3.749q-2.73.001-4.33 1.238c-1.065.83-1.598 1.973-1.598 3.443q0 1.377.503 2.275.502.9 1.293 1.416.79.525 1.743.73a8.6 8.6 0 0 0 1.808.206q1.978-.001 3.3-.758c.473-.273.88-.587 1.228-.954.072-.077.21-.024.21.083v1.185a.12.12 0 0 0 .12.119h2.987a.12.12 0 0 0 .12-.119v-9.202c-.018-1.766-.605-3.123-1.784-4.077m-3.773 10.47q-.863.384-1.67.386-1.14-.002-1.84-.457c-.467-.302-.694-.764-.694-1.392 0-.605.227-1.067.683-1.375q.682-.47 2.155-.468H84a.12.12 0 0 1 .12.118v.077q-.002 1.183-.587 1.956c-.383.51-.868.895-1.443 1.155zm18.881-4.752c-.963-.67-2.562-1.072-4.79-1.197q-1.283-.051-1.946-.237c-.443-.118-.749-.278-.905-.48-.155-.201-.24-.456-.24-.77 0-.439.21-.8.63-1.073.419-.272 1.042-.414 1.88-.414q1.195.002 1.976.438.738.418.875 1.227c.012.053.06.094.12.094h3.33a.12.12 0 0 0 .119-.13c-.174-1.44-.815-2.566-1.922-3.366q-1.714-1.236-4.498-1.238-1.754.002-3.102.58-1.349.58-2.114 1.6-.765 1.023-.766 2.4 0 1.547.754 2.454c.503.604 1.216 1.048 2.144 1.32q1.392.41 3.342.499 1.805.081 2.425.456.61.372.61 1.144 0 .773-.682 1.226-.683.454-2.156.456-1.309 0-2.216-.426c-.574-.273-.904-.694-1-1.268a.12.12 0 0 0-.12-.095h-3.305a.117.117 0 0 0-.12.124c.072 1.025.407 1.879.994 2.548q.917 1.048 2.408 1.57 1.49.523 3.33.522 2.029-.001 3.467-.634c.958-.42 1.682-1.001 2.185-1.736a4.3 4.3 0 0 0 .755-2.483c-.018-1.41-.497-2.441-1.461-3.11zm11.72 4.201a3.9 3.9 0 0 1-1.922.498q-1.618 0-2.545-1.102-.934-1.104-.934-3.194c0-1.398.317-2.465.946-3.212.629-.746 1.473-1.114 2.533-1.114q1.168.002 1.976.581c.515.373.863.948 1.036 1.724.012.054.06.095.12.095h3.36a.12.12 0 0 0 .12-.136c-.258-1.843-.989-3.212-2.18-4.106-1.228-.919-2.72-1.375-4.486-1.375a7.25 7.25 0 0 0-3.467.853q-1.599.855-2.587 2.536t-.988 4.136c0 1.636.317 3.01.946 4.136q.945 1.679 2.545 2.548c1.066.581 2.252.865 3.551.865q1.588-.002 3.007-.563a5.9 5.9 0 0 0 2.395-1.748q.936-1.135 1.305-2.832c.018-.071-.041-.142-.12-.142h-3.353a.115.115 0 0 0-.114.089c-.191.652-.575 1.143-1.144 1.463m16.75-10.482c-1.083-.58-2.27-.865-3.55-.865q-1.977.001-3.594.865c-1.078.58-1.928 1.428-2.563 2.548q-.945 1.68-.946 4.106.001 2.427.946 4.107c.945 1.68 1.485 1.973 2.563 2.56q1.617.881 3.593.883a7.35 7.35 0 0 0 3.552-.883q1.625-.88 2.605-2.56c.646-1.12.976-2.489.976-4.107q.001-2.426-.976-4.106c-.653-1.12-1.522-1.973-2.605-2.548zm-.988 9.86c-.628.747-1.485 1.114-2.563 1.114s-1.928-.373-2.545-1.114q-.934-1.12-.934-3.182c0-1.398.317-2.465.946-3.211.629-.747 1.473-1.114 2.533-1.114 1.078 0 1.929.373 2.563 1.114.63.746.947 1.813.947 3.211q-.002 2.07-.947 3.182m10.468-9.7a5.3 5.3 0 0 0-.646.74c-.066.096-.216.048-.216-.07v-1.31a.12.12 0 0 0-.12-.118h-3.018a.12.12 0 0 0-.12.118v14.31a.12.12 0 0 0 .12.119h3.27a.12.12 0 0 0 .12-.119v-8.224q.001-1.076.335-1.725.334-.65.892-.936.556-.291 1.282-.29h2.695a.12.12 0 0 0 .12-.119V7.212a.12.12 0 0 0-.12-.118h-2.222c-1.042.006-1.833.254-2.372.758m18.188 2.4q-.891-1.698-2.438-2.56-1.544-.864-3.467-.865a6.85 6.85 0 0 0-3.455.907c-1.06.604-1.91 1.47-2.546 2.589q-.959 1.68-.958 4.053 0 2.427.917 4.106.916 1.679 2.479 2.548c1.042.581 2.198.866 3.48.866 1.634 0 3.06-.397 4.287-1.186q1.788-1.146 2.335-3.52c.018-.07-.041-.142-.12-.142h-3.383a.12.12 0 0 0-.114.083c-.191.581-.533 1.002-1.03 1.25q-.78.4-1.892.398c-1.132 0-1.988-.38-2.575-1.132-.437-.563-.713-1.321-.82-2.264a.12.12 0 0 1 .12-.13h9.916c.06 0 .108-.041.12-.1q.036-.171.036-.333v-.456c0-1.612-.3-2.98-.892-4.112m-5.935-.427q1.644-.002 2.407 1.02c.33.432.551.977.665 1.623a.122.122 0 0 1-.12.142h-6.042c-.078 0-.138-.07-.114-.148.15-.575.371-1.066.677-1.463q.882-1.174 2.527-1.174"></path></svg>