<svg xmlns="http://www.w3.org/2000/svg" viewBox="0 0 65 25"><path fill="#FFF" d="M5.9 8.6H4.2c-.4 0-.5-.1-.5-.9s0-.9.4-.9h6.7c.3 0 .3.2.3.9 0 .9 0 1-.3 1H9c-.3 0-.2.3-.2.6V17c0 .2.1 1.5-1.5 1.5-1.1 0-1.3 0-1.3-.2v-9c.1-.3.1-.6-.1-.7m7.1 9.9c1.5 0 1.4-1.3 1.4-1.6V7c0-.3-.1-.3-1.4-.3-1.2 0-1.3 0-1.3.3v11.2c.1.3.1.3 1.3.3m45.6-.4c0 .3.1.3 1.4.3 1.2 0 1.2-1.3 1.2-1.6V7c0-.3-.2-.3-1.2-.3-1.1 0-1.3.1-1.5.7-.4 1-.8 1.9-1.1 2.8-.3.7-.5 1.3-.7 1.3-.2 0-.4-.6-.7-1.3-.4-1-.7-1.8-1.1-2.8-.2-.6-.4-.7-1.4-.7-1.1 0-1.3 0-1.3.3v11.2c0 .3 0 .3 1.3.3 1.2 0 1.3-1.3 1.3-1.6 0-2.7 0-3.2.1-4.7.1-.2.3-.1.4.1.3 1.1.6 2 .9 2.6 0 .2.2.3.6.3.4 0 .5-.1.6-.3.2-.6.5-1.5.8-2.6.1-.2.4-.3.5-.1l-.1 5.9zm-36.7 0c0 .3.1.3 1.4.3 1.2 0 1.2-1.3 1.2-1.6V7c0-.3-.2-.3-1.2-.3-1.1 0-1.3.1-1.5.7-.4 1-.8 1.9-1.1 2.8-.3.7-.5 1.3-.7 1.3-.2 0-.4-.6-.7-1.3-.4-1-.7-1.8-1.1-2.8-.2-.6-.4-.7-1.4-.7-1.1 0-1.3 0-1.3.3v11.2c0 .3 0 .3 1.3.3 1.2 0 1.3-1.3 1.3-1.6 0-2.7 0-3.2.1-4.7.1-.2.3-.1.4.1.3 1.1.6 2 .9 2.6 0 .2.2.3.6.3.4 0 .5-.1.6-.3.2-.6.5-1.5.8-2.6.1-.2.4-.3.5-.1l-.1 5.9zM28.2 9c0-.3 0-.2.1-.4.1-.1.4-.1.6-.1h2.5c.3 0 .3-.1.3-1 0-.8 0-.9-.3-.9h-5.2c-.3 0-.4 0-.6.2-.2.2-.2.2-.2.4v9.2c0 .6-.1 2 1.2 2h4.8c.3 0 .3-.1.3-1s0-.9-.3-.9H29c-.3 0-.6 0-.8-.1-.1-.1-.1-.4-.1-.7V14c0-.3-.1-.4.2-.6.1 0 .4-.1.6-.1H30c.3 0 .3-.1.3-.9 0-.9 0-1-.3-1h-1.2c-.2 0-.4 0-.6-.1-.2-.1-.2-.3-.2-.5V9zm13.3-.5c-.8 0-1 .6-1 1.2v5.5c0 .5 0 1.2 1 1.2.9 0 1-.6 1-1.2V9.7c0-.6-.3-1.2-1-1.2m-4.1 3.1H36c-.2 0-.4 0-.6-.1-.2-.1-.2-.3-.2-.5V9.2c0-.3 0-.4.2-.5.1-.1.4-.1.6-.1h2c.4-1.1 1.5-1.8 3-2h.6c.5 0 .9.1 1.3.1-.5-.2-1.3-.4-2-.4-.8 0-1.5.2-2.1.5 0 0-.1-.1-.2-.1h-5.3c-.3 0-.4 0-.5.2-.2.1-.2.2-.2.4v10.9c0 .3.2.3 1.2.3 1.3 0 1.5-1.3 1.5-1.6v-2.7c0-.3-.1-.5.2-.6.1-.1.4-.1.6-.1h1.3c.4 0 .4-.1.4-.9 0-.9-.1-1-.4-1m13.9 5.3c0 .3 0 1.6-1.4 1.6-1.2 0-1.3 0-1.3-.3V15c0-.7-.3-1.2-.9-1.2-.9 0-1 0-1 .3v2.8c0 .5-.2 1.7-1.5 1.7-.7 0-1 0-1.2-.1-.6.3-1.3.5-2.1.5-1.3 0-2.3-.4-2.9-1 .3.2.6.3.9.4h.2c.4.1.9.2 1.4.2 2.4 0 3.7-1.2 3.7-2.8V9.3c0-.9-.4-1.6-1.2-2.1 0-.2 0-.3.1-.4.2-.2.3-.1.7-.1h2.5c1.1 0 2.2.2 3 .8.8.5 1 1.3 1 2.1v1.3c0 .6-.1.9-.4 1.3-.5.5-1.2.6-1.2.7 0 .1.8.1 1.3.6.3.3.5.7.5 1.2v2.2m-3-6.9c0-.4 0-.8-.4-1.1-.2-.2-.3-.2-.9-.2-.2 0-.4 0-.5.1-.1.1-.1.2-.1.3v2.5c0 .2 0 .3.1.4.1.1.3 0 .5 0s.6-.1.9-.3c.3-.3.4-.6.4-.8V10z"/></svg>