<svg xmlns="http://www.w3.org/2000/svg" width="47" height="30" viewBox="0 0 47 30"><title>Apple_Pay_Mark_RGB_041619</title><g fill-rule="nonzero" fill="none"><path d="M42.664 0H3.716c-.135.002-.27.003-.405.007-.294.008-.59.025-.881.078-.295.053-.57.14-.838.276A2.812 2.812 0 0 0 .36 1.592a2.962 2.962 0 0 0-.275.838c-.053.29-.07.587-.078.881A19.9 19.9 0 0 0 0 3.716L0 4.196v22.088c.002.135.003.27.007.405.008.294.025.59.078.88.052.296.139.57.275.839a2.802 2.802 0 0 0 1.232 1.231c.268.137.543.224.838.277.29.052.587.07.881.077l.405.006.48.001h38.468l.48-.001c.136 0 .27-.003.406-.006.294-.008.59-.025.881-.077.295-.053.57-.14.838-.277a2.798 2.798 0 0 0 1.231-1.231c.137-.268.224-.543.276-.838.053-.29.07-.587.078-.881l.006-.405.001-.48V4.196l-.001-.481c0-.135-.003-.27-.006-.405a5.845 5.845 0 0 0-.078-.88 2.944 2.944 0 0 0-.276-.839A2.824 2.824 0 0 0 44.431.085a5.9 5.9 0 0 0-.881-.078c-.135-.004-.27-.005-.405-.006L42.665 0z" fill="#000"/><path d="M42.664 1h.474c.128.002.256.003.385.007.224.006.486.018.731.062.213.038.39.096.562.183a1.81 1.81 0 0 1 .794.795c.086.17.144.347.182.561.044.242.056.505.062.73a62.73 62.73 0 0 1 .007.858v21.607l-.001.477c0 .127-.002.254-.006.382a4.965 4.965 0 0 1-.062.733 1.94 1.94 0 0 1-.183.559 1.811 1.811 0 0 1-.795.795c-.17.086-.348.144-.558.182-.25.045-.523.057-.729.063l-.39.005-.473.001H4.19l-.47-.001c-.129 0-.257-.002-.382-.005a5.094 5.094 0 0 1-.731-.062 1.964 1.964 0 0 1-.563-.185 1.794 1.794 0 0 1-.792-.793 1.963 1.963 0 0 1-.183-.562 4.947 4.947 0 0 1-.063-.73 18.69 18.69 0 0 1-.005-.383L1 25.903V3.722l.006-.384a4.95 4.95 0 0 1 .063-.732 1.96 1.96 0 0 1 .183-.56 1.804 1.804 0 0 1 .794-.794 1.97 1.97 0 0 1 .56-.183c.245-.044.508-.056.732-.062.129-.004.257-.005.384-.006L4.197 1h38.467" fill="#FFF"/><g fill="#000"><path d="M12.793 10.09c.401-.502.673-1.175.601-1.864-.587.03-1.304.387-1.719.89-.372.43-.702 1.132-.616 1.792.66.057 1.318-.33 1.734-.818M13.387 11.036c-.958-.057-1.772.544-2.229.544-.457 0-1.158-.515-1.915-.5-.986.014-1.9.57-2.4 1.457-1.03 1.774-.272 4.404.728 5.848.486.715 1.072 1.502 1.843 1.473.73-.028 1.015-.472 1.901-.472.886 0 1.143.472 1.915.458.8-.014 1.3-.715 1.786-1.43.558-.815.786-1.601.8-1.644-.014-.015-1.543-.601-1.557-2.36-.015-1.472 1.2-2.172 1.257-2.216-.686-1.014-1.757-1.129-2.13-1.158"/><g><path d="M21.724 9.044c2.081 0 3.53 1.434 3.53 3.523 0 2.096-1.478 3.538-3.582 3.538h-2.304v3.664h-1.665V9.044h4.021zm-2.356 5.663h1.91c1.45 0 2.274-.78 2.274-2.133 0-1.352-.824-2.125-2.266-2.125h-1.918v4.258zM25.69 17.547c0-1.368 1.048-2.208 2.906-2.312l2.14-.126v-.602c0-.87-.587-1.39-1.568-1.39-.93 0-1.509.446-1.65 1.145h-1.516c.089-1.413 1.293-2.453 3.226-2.453 1.895 0 3.106 1.003 3.106 2.571v5.39h-1.538v-1.287h-.037c-.454.87-1.442 1.42-2.468 1.42-1.531 0-2.601-.951-2.601-2.356zm5.046-.706v-.617l-1.925.119c-.959.067-1.501.49-1.501 1.16 0 .683.565 1.13 1.427 1.13 1.122 0 2-.774 2-1.792zM33.787 22.646v-1.3c.119.029.386.029.52.029.743 0 1.145-.312 1.39-1.115 0-.015.141-.476.141-.483l-2.824-7.827h1.739l1.977 6.363h.03l1.977-6.363h1.695l-2.929 8.228c-.669 1.896-1.442 2.505-3.062 2.505a6.21 6.21 0 0 1-.654-.037z"/></g></g></g></svg>