<svg xmlns="http://www.w3.org/2000/svg" xmlns:xlink="http://www.w3.org/1999/xlink" width="47" height="30" xml:space="preserve" overflow="hidden"><defs><linearGradient x1="4.18881" y1="7.8446" x2="12.8033" y2="7.8446" gradientUnits="userSpaceOnUse" spreadMethod="pad" id="fill0"><stop offset="0" stop-color="#FFFFFF"/><stop offset="0.57912" stop-color="#5CD92D"/><stop offset="1" stop-color="#258A00"/></linearGradient><linearGradient x1="4.18881" y1="10.7423" x2="12.8033" y2="10.7423" gradientUnits="userSpaceOnUse" spreadMethod="pad" id="fill1"><stop offset="0" stop-color="#FFFFFF"/><stop offset="0.58167" stop-color="#5CD92D"/><stop offset="1" stop-color="#258A00"/></linearGradient><linearGradient x1="4.18881" y1="13.893" x2="12.8033" y2="13.893" gradientUnits="userSpaceOnUse" spreadMethod="pad" id="fill2"><stop offset="0" stop-color="#FFFFFF"/><stop offset="0.59757" stop-color="#5CD92D"/><stop offset="1" stop-color="#258A00"/></linearGradient></defs><g transform="translate(-203 -50)"><path d="M38.5304 0C42.097 -8.79446e-16 44.9883 2.89129 44.9883 6.45787L44.9883 21.5074C44.9883 25.074 42.097 27.9653 38.5304 27.9653L6.45787 27.9653C2.89129 27.9653-1.57887e-06 25.074-1.57887e-06 21.5074L-1.57887e-06 6.45787C-1.57887e-06 2.89129 2.89129 7.81878e-07 6.45787 7.81878e-07Z" fill="#FFFFFF" fill-rule="evenodd" transform="matrix(1.01465 0 0 1 203.787 50.9905)"/><path d="M18.5461 20.853 18.5461 15.6057 19.9427 15.6057 22.3105 18.9685 22.3105 15.6057 23.6326 15.6057 23.6326 20.853 22.3798 20.853C22.305 20.8355 22.2639 20.8217 22.2567 20.8114 22.2495 20.8012 21.4615 19.743 19.8927 17.637L19.8927 20.853 18.5461 20.853Z" fill="#00AFD8" fill-rule="evenodd" transform="matrix(1.01465 0 0 1 203.787 50.9905)"/><path d="M25.5929 7.18961 27.6801 7.18961 27.6801 14.707 25.5929 14.707Z" fill="#006F90" fill-rule="evenodd" transform="matrix(1.01465 0 0 1 203.787 50.9905)"/><path d="M16.4784 7.19159 17.5606 11.8058 18.7508 7.19159 20.4262 7.19159 21.6362 11.8058 22.7491 7.19159 24.8116 7.19159 22.6946 14.705 20.7658 14.705 19.64 10.6651 18.4439 14.705 16.5269 14.705 14.3931 7.19159Z" fill="#006F90" fill-rule="evenodd" transform="matrix(1.01465 0 0 1 203.787 50.9905)"/><path d="M6.67472 16.821 6.67472 20.8648 5.27264 20.8648 5.27264 16.821 4.12603 16.821 4.12603 15.607 7.90154 15.607 7.90154 16.821Z" fill="#00AFD8" fill-rule="evenodd" transform="matrix(1.01465 0 0 1 203.787 50.9905)"/><path d="M31.2358 10.5768 31.5942 10.5768C31.9689 10.5768 32.2563 10.4976 32.4565 10.3391 32.6567 10.1806 32.7569 9.95284 32.7569 9.65572 32.7569 9.3586 32.6567 9.13081 32.4565 8.97235 32.2563 8.81389 31.9689 8.73466 31.5942 8.73466L31.2358 8.73466 31.2358 10.5768ZM35.4115 14.7067 33.0475 14.7067 31.2358 11.8394 31.2358 14.7067 29.3368 14.7067 29.3602 7.19578 32.2886 7.19578C32.6955 7.19578 33.277 7.27135 33.5806 7.3935 33.8842 7.51565 34.12 7.70516 34.317 7.91645 34.514 8.12773 34.6625 8.37202 34.7627 8.64934 34.8628 8.92665 34.9128 9.22376 34.9128 9.54069 34.9128 10.1085 34.7788 10.569 34.5108 10.9223 34.2427 11.2755 33.7048 11.516 33.1816 11.6414L35.4115 14.7067Z" fill="#006F90" fill-rule="evenodd" transform="matrix(1.01465 0 0 1 203.787 50.9905)"/><path d="M40.6602 8.84121 38.0343 8.84121 38.0343 10.0977 40.5335 10.0977 40.5335 11.7543 38.0343 11.7543 38.0343 13.0504 40.6602 13.0504 40.6602 14.707 36.1213 14.707 36.1213 7.18466 40.6602 7.18466Z" fill="#006F90" fill-rule="evenodd" transform="matrix(1.01465 0 0 1 203.787 50.9905)"/><path d="M9.93387 17.9553 10.1909 17.9553C10.4595 17.9553 10.6655 17.8998 10.8091 17.7886 10.9526 17.6775 11.0244 17.5177 11.0244 17.3093 11.0244 17.101 10.9526 16.9412 10.8091 16.8301 10.6655 16.7189 10.4595 16.6634 10.1909 16.6634L9.93387 16.6634 9.93387 17.9553ZM12.7074 20.8725 11.0932 20.8725 9.93387 18.8375 9.93387 20.8725 8.57245 20.8725 8.57245 15.6145 10.691 15.6145C10.9827 15.6145 11.2374 15.6574 11.455 15.743 11.6727 15.8287 11.8521 15.9456 11.9934 16.0938 12.1346 16.242 12.2411 16.4133 12.3129 16.6078 12.3847 16.8023 12.4205 17.0107 12.4205 17.2329 12.4205 17.6312 12.3245 17.9542 12.1323 18.2019 11.9401 18.4497 11.6169 18.6154 11.2418 18.7034L12.7074 20.8725ZM38.5433 17.9506 38.8003 17.9506C39.0688 17.9506 39.2749 17.8951 39.4184 17.7839 39.562 17.6728 39.6338 17.513 39.6338 17.3047 39.6338 17.0963 39.562 16.9365 39.4184 16.8254 39.2749 16.7143 39.0688 16.6587 38.8003 16.6587L38.5433 16.6587 38.5433 17.9506ZM41.3167 20.8678 39.7026 20.8678 38.5433 18.8328 38.5433 20.8678 37.1818 20.8678 37.1818 15.6098 39.3004 15.6098C39.5921 15.6098 39.8468 15.6527 40.0644 15.7383 40.2821 15.824 40.4615 15.9409 40.6027 16.0891 40.744 16.2373 40.8505 16.4086 40.9223 16.6031 40.994 16.7976 41.0299 17.006 41.0299 17.2283 41.0299 17.6265 40.9338 17.9495 40.7417 18.1972 40.5495 18.445 40.2263 18.6107 39.8512 18.6987L41.3167 20.8678Z" fill="#00AFD8" fill-rule="evenodd" transform="matrix(1.01465 0 0 1 203.787 50.9905)"/><path d="M16.2478 15.6249 18.0283 20.8617 16.6165 20.8617 16.3359 19.8856 14.331 19.8856 14.0473 20.8617 12.648 20.8617 14.4006 15.6249 16.2478 15.6249ZM15.3361 16.5062 14.6042 18.926 16.068 18.9325 15.3361 16.5062ZM27.9898 16.0555 27.4871 16.9795C26.8257 16.4285 26.3205 16.3601 25.9714 16.7742 25.9421 16.8248 25.482 17.4684 26.8743 17.6639 26.9326 17.6921 28.1835 17.836 28.1835 19.141 28.1835 20.011 27.7723 20.5954 26.95 20.8941 26.4271 21.0321 25.9613 21.047 25.5527 20.9387 25.5041 20.9169 24.8699 20.7727 24.3625 20.2108 24.4132 20.1535 24.6202 19.8271 24.9835 19.2316 24.9981 19.2264 25.0075 19.2264 25.0118 19.2316 25.3943 19.6905 25.7889 19.9052 26.2532 19.8914 26.3332 19.9022 26.8899 19.8379 26.9248 19.3321 26.9023 19.0939 27.008 18.8679 25.6331 18.5254 25.5718 18.5082 24.5883 18.2252 24.5897 17.1985 24.5566 16.9455 24.7441 15.9977 25.764 15.625 25.7664 15.6199 26.8785 15.246 27.9641 16.0427" fill="#00AFD8" fill-rule="evenodd" transform="matrix(1.01465 0 0 1 203.787 50.9905)"/><path d="M32.1557 16.8269 30.3952 16.8269 30.3952 17.7131 32.0745 17.7131 32.0745 18.8409 30.3952 18.8409 30.3952 20.8688 28.9862 20.8688 28.9862 15.6021 32.1557 15.6021Z" fill="#00AFD8" fill-rule="evenodd" transform="matrix(1.01465 0 0 1 203.787 50.9905)"/><path d="M36.1976 16.7427 34.3578 16.7427 34.3578 17.7111 36.0243 17.7111 36.0243 18.7637 34.3578 18.7637 34.3578 19.7123 36.1094 19.7123 36.1094 20.8717 32.9538 20.8717 32.9538 15.606 36.1976 15.606Z" fill="#00AFD8" fill-rule="evenodd" transform="matrix(1.01465 0 0 1 203.787 50.9905)"/><path d="M3.88344 7.10247 13.6118 7.10247 13.6118 8.58673 3.88344 8.58673Z" fill="url(#fill0)" fill-rule="evenodd" transform="matrix(1.01465 0 0 1 203.787 50.9905)"/><path d="M3.88344 10.0007 13.6118 10.0007 13.6118 11.484 3.88344 11.484Z" fill="url(#fill1)" fill-rule="evenodd" transform="matrix(1.01465 0 0 1 203.787 50.9905)"/><path d="M3.88344 13.1514 13.6118 13.1514 13.6118 14.6347 3.88344 14.6347Z" fill="url(#fill2)" fill-rule="evenodd" transform="matrix(1.01465 0 0 1 203.787 50.9905)"/><path d="M2.43179 0.486357C1.35736 0.486357 0.486357 1.35736 0.486357 2.43179L0.486357 25.5338C0.486357 26.6082 1.35736 27.4792 2.43179 27.4792L42.5563 27.4792C43.6307 27.4792 44.5017 26.6082 44.5017 25.5338L44.5017 2.43179C44.5017 1.35736 43.6307 0.486357 42.5563 0.486357L2.43179 0.486357ZM2.43179 0 42.5563 0C43.8993 0 44.9881 1.08875 44.9881 2.43179L44.9881 25.5338C44.9881 26.8768 43.8993 27.9655 42.5563 27.9655L2.43179 27.9655C1.08875 27.9655 0 26.8768 0 25.5338L0 2.43179C0 1.08875 1.08875 0 2.43179 0Z" fill="#01B5E5" transform="matrix(1.01465 0 0 1 203.787 50.9905)"/></g></svg>