<svg xmlns="http://www.w3.org/2000/svg" xmlns:xlink="http://www.w3.org/1999/xlink" width="136px" height="30px" viewBox="0 0 136 30" version="1.1">
    <title>Logo</title>
    <g id="Published-Requested-Designs" stroke="none" stroke-width="1" fill="none" fill-rule="evenodd">
        <g id="Logo">
            <g id="Group" transform="translate(94, 1)" fill-rule="nonzero">
                <path d="M0,0.440038142 C0.563983248,0.140468194 1.20893439,0.261448366 1.81479758,0.249926445 C3.20241973,0.287372688 4.59283388,0.215360681 5.98045603,0.278731247 C6.60586319,0.275850767 7.14192648,0.811620097 7.22847836,1.43668431 C7.66402978,3.6143274 8.06328525,5.80061192 8.49046068,7.98401596 C7.78408562,5.42614949 5.91903211,3.33780129 3.72731503,2.00989989 C2.56863658,1.2926603 1.2759423,0.874990663 0,0.440038142 Z" id="Path" fill="color(display-p3 0.957 0.663 0.161)"/>
                <path d="M12.0725919,0.255687405 C13.2759423,0.270089806 14.4765007,0.264328846 15.6770591,0.255687405 C13.8510935,4.75787806 12.1479758,9.31191737 10.2829223,13.7968251 C9.11028385,13.7593789 7.93764542,13.7766618 6.76500698,13.7766618 C5.72638436,9.8620891 4.75756166,5.92735305 3.72731503,2.00989989 C5.91903211,3.33780129 7.78408562,5.42614949 8.49046068,7.98401596 C8.59655654,8.47945857 8.67194044,8.9864231 8.76407631,9.48762666 C9.85853886,6.40839326 10.9669614,3.33204033 12.0725919,0.255687405 Z" id="Path" fill="color(display-p3 0.106 0.302 0.635)"/>
                <path d="M17.0255933,0.249926445 C18.1563518,0.258567885 19.2871103,0.258567885 20.4178688,0.249926445 C19.7226617,4.76075854 18.9911587,9.26582968 18.3127036,13.7795423 C17.1875291,13.7824227 16.0623546,13.7824227 14.9343881,13.7795423 C15.5821312,9.2629492 16.3443462,4.76363902 17.0255933,0.249926445 Z" id="Path" fill="color(display-p3 0.106 0.302 0.635)"/>
                <path d="M23.6342485,1.09966812 C25.6612378,-0.274320964 28.3108423,-0.233994241 30.5528153,0.52645255 C30.4495114,1.5259792 30.2875756,2.51686442 30.1200558,3.50486915 C28.9278734,2.91437069 27.5374593,2.65224699 26.241973,2.99502414 C25.6305258,3.14480911 25.0274546,3.92829975 25.535598,4.51591772 C26.5798046,5.61914166 28.2242904,5.86974345 29.2070731,7.07090372 C30.3462075,8.22021535 30.3043276,10.1558981 29.5281526,11.5010824 C28.7073057,12.9211591 27.1270358,13.6643231 25.5886459,13.8774786 C23.8492322,14.0647098 22.0372266,13.9523711 20.4067008,13.2581753 C20.5798046,12.2500072 20.7249884,11.2360782 20.9008841,10.2279101 C22.3108423,10.9797154 23.9469521,11.3570584 25.518846,10.9969983 C26.0521173,10.8126476 26.6021405,10.3604122 26.5546766,9.71518461 C26.3787808,8.94609637 25.5998139,8.61772162 24.9939507,8.26918351 C23.8185202,7.6729241 22.5537459,6.94128211 22.0260586,5.63066359 C21.3699395,3.97438743 22.2382503,2.03582421 23.6342485,1.09966812 Z" id="Path" fill="color(display-p3 0.106 0.302 0.635)"/>
                <path d="M39.2554677,0.267209326 C40.1852024,4.77228047 41.0842252,9.28023208 42,13.7853032 C40.9557934,13.7881837 39.9115868,13.7881837 38.8673802,13.7910642 C38.7194044,13.1141513 38.5798046,12.434358 38.4457887,11.7516842 C36.9967427,11.7516842 35.5504886,11.7545646 34.1042345,11.7459232 C33.8724988,12.428597 33.6323872,13.1112708 33.3838995,13.7881837 C32.2000931,13.7881837 31.0162866,13.7881837 29.8324802,13.7910642 C31.46859,9.73822845 33.1214518,5.69115367 34.7547697,1.63543745 C34.9809214,1.01325372 35.4276408,0.336340853 36.1340158,0.298894609 C37.1726384,0.224002122 38.216845,0.287372688 39.2554677,0.267209326 Z M36.9436947,3.92541927 C36.2373197,5.56729302 35.7208004,7.28982022 35.0898092,8.96337926 C36.02792,8.96625974 36.9632387,8.96625974 37.9013495,8.96625974 C37.5635179,7.28982022 37.1530945,5.62490262 36.9436947,3.92541927 Z" id="Combined-Shape" fill="color(display-p3 0.106 0.302 0.635)"/>
                <path d="M25.3876221,23.9245938 C26.236389,25.4944555 25.6081899,27.7786764 24.030712,28.5938523 C23.0200093,29.149785 21.8306189,28.9107051 20.7361564,28.9625538 C21.0711959,26.9318152 21.3308516,24.8866742 21.6966031,22.8616965 C21.9160783,22.8657042 22.1465314,22.8623935 22.3817356,22.8608102 L22.7373267,22.8608613 C23.7505201,22.871084 24.7932911,22.9941986 25.3876221,23.9245938 Z M24.7901349,24.5237337 C24.3517915,23.5530118 23.234993,23.5846971 22.3555142,23.596219 C22.0679386,25.1603198 21.8836668,26.738823 21.6044672,28.3029238 C22.3750582,28.2885214 23.229409,28.3605334 23.8827362,27.8506884 C24.9101908,27.1363293 25.1335505,25.6759258 24.7901349,24.5237337 Z" id="Combined-Shape" fill="color(display-p3 0.086 0.075 0.078)"/>
                <path d="M27.3196836,22.8732185 C28.3164262,22.8732185 29.3131689,22.870338 30.3099116,22.8789794 C30.2680316,23.0604497 30.1870638,23.4205097 30.1451838,23.60198 C29.4192648,23.6394262 28.6933457,23.6135019 27.9674267,23.6192629 C27.8976268,24.2270442 27.8054909,24.8319451 27.6826431,25.4282045 C28.2494183,25.4310849 28.8161936,25.4310849 29.3857608,25.4339654 C29.3857608,25.6269576 29.3801768,26.012942 29.3801768,26.2059341 C28.7854816,26.2030537 28.1935784,26.2001732 27.5988832,26.1944122 C27.4760354,26.888608 27.3615635,27.5828037 27.2526757,28.2798799 C28.0232666,28.2914019 28.7938576,28.2885214 29.5672406,28.2914019 C29.5309446,28.4469478 29.4611447,28.7551592 29.4248488,28.9107051 C28.4169381,29.0259243 27.3978595,28.9366294 26.3843648,28.9625538 C26.6803164,26.9289347 26.984644,24.8981961 27.3196836,22.8732185 Z" id="Path" fill="color(display-p3 0.094 0.078 0.082)"/>
                <path d="M33.8752908,23.2073542 C34.7631456,23.9303547 34.3275942,25.3965192 33.3587715,25.8055474 C34.4448581,26.2635437 34.4225221,27.9255809 33.5067473,28.5448841 C32.5993485,29.1958727 31.4211261,28.8905417 30.3880875,28.9769562 C30.714751,26.9433371 31.0162866,24.9039571 31.3289902,22.8674575 C32.1777571,22.9049038 33.1102839,22.7291945 33.8752908,23.2073542 Z M31.5998139,26.1454441 C31.502094,26.8857275 31.3736622,27.62025 31.2452303,28.3576529 C31.7673336,28.3202067 32.3145649,28.3691748 32.8115403,28.1704217 C33.3364356,27.9284613 33.6212192,27.2025803 33.3057236,26.6840939 C33.00698,26.0244639 32.1721731,26.2088146 31.5998139,26.1454441 Z M33.6016752,24.3768292 C33.5709632,23.4752388 32.5742206,23.5616533 31.9543974,23.5875776 C31.8790135,24.2270442 31.7952536,24.8607499 31.7198697,25.5002165 C32.4653327,25.5117384 33.5905072,25.3878777 33.6016752,24.3768292 Z" id="Combined-Shape" fill="color(display-p3 0.098 0.086 0.090)"/>
                <path d="M35.8939041,22.9077842 C36.0949279,22.8933818 36.4969753,22.864577 36.7007911,22.8501746 C36.3825035,24.8953156 36.0949279,26.9433371 35.7487203,28.9827171 C35.5532806,28.9769562 35.1596091,28.9654342 34.9641694,28.9596733 C35.3215449,26.9519785 35.5951605,24.9270009 35.8939041,22.9077842 Z" id="Path" fill="color(display-p3 0.094 0.078 0.082)"/>
                <path d="M37.7282457,22.8933818 C39.1326198,22.8415332 40.536994,22.8905014 41.9441601,22.8732185 C41.9441601,23.0604497 41.9441601,23.4349121 41.9469521,23.6221433 C41.3494649,23.6192629 40.7519777,23.6163824 40.1544905,23.6106214 C39.8194509,25.3821168 39.6323872,27.1795365 39.3001396,28.9481514 C39.1074919,28.9625538 38.7249884,28.9884781 38.5351326,29 C38.8059563,27.2054608 39.0600279,25.4080411 39.3615635,23.6192629 C38.7640763,23.6192629 38.1665891,23.6163824 37.5691019,23.6135019 C37.6081899,23.4320316 37.6891577,23.0719716 37.7282457,22.8933818 Z" id="Path" fill="color(display-p3 0.090 0.075 0.078)"/>
            </g>
            <g id="Group">
                <g id="svg3409">
                    <path d="M6.46476234,28.9364691 L6.46476234,27.0118557 C6.46476234,26.2756443 6.03639598,25.7935567 5.30103373,25.7935567 C4.9333526,25.7935567 4.53354399,25.9206186 4.25867558,26.3391753 C4.0444924,25.9878866 3.73749651,25.7935567 3.27700267,25.7935567 C2.97000677,25.7935567 2.66301088,25.8907216 2.42026994,26.2420103 L2.42026994,25.8570876 L1.7777204,25.8570876 L1.7777204,28.9364691 L2.42026994,28.9364691 L2.42026994,27.2360825 C2.42026994,26.6904639 2.69513836,26.4326031 3.12350472,26.4326031 C3.55187108,26.4326031 3.76605426,26.7203608 3.76605426,27.2360825 L3.76605426,28.9364691 L4.40860381,28.9364691 L4.40860381,27.2360825 C4.40860381,26.6904639 4.7155997,26.4326031 5.11183858,26.4326031 C5.54020495,26.4326031 5.75438813,26.7203608 5.75438813,27.2360825 L5.75438813,28.9364691 L6.46476234,28.9364691 Z M15.9959139,25.8570876 L14.9535557,25.8570876 L14.9535557,24.9265464 L14.3110062,24.9265464 L14.3110062,25.8570876 L13.7291419,25.8570876 L13.7291419,26.4662371 L14.3110062,26.4662371 L14.3110062,27.878866 C14.3110062,28.5851804 14.5858746,29 15.3212369,29 C15.5961053,29 15.9031012,28.9028351 16.1172844,28.7757732 L15.9316589,28.1965206 C15.7460335,28.3235825 15.5318503,28.3572165 15.3783524,28.3572165 C15.0713565,28.3572165 14.949986,28.1628866 14.949986,27.845232 L14.949986,26.4662371 L15.9923442,26.4662371 L15.9923442,25.8570876 L15.9959139,25.8570876 Z M21.4504456,25.7898196 C21.0827644,25.7898196 20.8364538,25.9841495 20.6829558,26.2382732 L20.6829558,25.8533505 L20.0404063,25.8533505 L20.0404063,28.932732 L20.6829558,28.932732 L20.6829558,27.1987113 C20.6829558,26.6867268 20.897139,26.395232 21.2969476,26.395232 C21.4183181,26.395232 21.571816,26.428866 21.6967562,26.4587629 L21.8823816,25.8159794 C21.7538717,25.7898196 21.571816,25.7898196 21.4504456,25.7898196 L21.4504456,25.7898196 Z M13.2079628,26.1112113 C12.9009669,25.8869845 12.4726006,25.7898196 12.0121067,25.7898196 C11.2767445,25.7898196 10.7876929,26.1747423 10.7876929,26.7838918 C10.7876929,27.2958763 11.155374,27.5873711 11.7979235,27.680799 L12.1049194,27.714433 C12.4404731,27.7779639 12.6260985,27.8751289 12.6260985,28.0358247 C12.6260985,28.2600515 12.3797879,28.4207474 11.9514215,28.4207474 C11.5230551,28.4207474 11.1839318,28.2600515 10.9697486,28.0993557 L10.6627527,28.6113402 C10.9983063,28.869201 11.4588002,28.9962629 11.919294,28.9962629 C12.7760267,28.9962629 13.2686481,28.5777062 13.2686481,28.0021907 C13.2686481,27.4565722 12.8688395,27.1688144 12.2584174,27.0716495 L11.9514215,27.0380155 C11.6765531,27.0043814 11.4623699,26.9408505 11.4623699,26.7502577 C11.4623699,26.5260309 11.6765531,26.3989691 12.0156764,26.3989691 C12.3833576,26.3989691 12.7510387,26.5596649 12.9366641,26.6568299 L13.2079628,26.1112113 L13.2079628,26.1112113 Z M30.3033504,25.7898196 C29.9356692,25.7898196 29.6893586,25.9841495 29.5358606,26.2382732 L29.5358606,25.8533505 L28.8933111,25.8533505 L28.8933111,28.932732 L29.5358606,28.932732 L29.5358606,27.1987113 C29.5358606,26.6867268 29.7500438,26.395232 30.1498524,26.395232 C30.2712229,26.395232 30.4247208,26.428866 30.549661,26.4587629 L30.7352865,25.8234536 C30.6103463,25.7898196 30.4282906,25.7898196 30.3033504,25.7898196 L30.3033504,25.7898196 Z M22.0929951,27.3967784 C22.0929951,28.3273196 22.7069869,29 23.6565323,29 C24.0848987,29 24.3918946,28.9028351 24.6988905,28.6487113 L24.3918946,28.1030928 C24.1455839,28.2974227 23.902843,28.3908505 23.6244048,28.3908505 C23.1032258,28.3908505 22.7355446,28.0059278 22.7355446,27.3967784 C22.7355446,26.8175258 23.1032258,26.4326031 23.6244048,26.4027062 C23.8992733,26.4027062 24.1455839,26.4998711 24.3918946,26.6904639 L24.6988905,26.1448454 C24.3918946,25.8869845 24.0848987,25.7935413 23.6565323,25.7935413 C22.7069869,25.7898196 22.0929951,26.4662371 22.0929951,27.3967784 L22.0929951,27.3967784 L22.0929951,27.3967784 Z M28.0365784,27.3967784 L28.0365784,25.8570876 L27.3940288,25.8570876 L27.3940288,26.2420103 C27.1798457,25.9542526 26.8728498,25.7935567 26.4730412,25.7935567 C25.6448662,25.7935567 25.0023166,26.4662371 25.0023166,27.3967784 C25.0023166,28.3273196 25.6448662,29 26.4730412,29 C26.9014075,29 27.2084034,28.8393041 27.3940288,28.5515464 L27.3940288,28.9364691 L28.0365784,28.9364691 L28.0365784,27.3967784 L28.0365784,27.3967784 Z M25.6769937,27.3967784 C25.6769937,26.8511598 26.0125473,26.4027062 26.5658539,26.4027062 C27.0870329,26.4027062 27.4547141,26.8212629 27.4547141,27.3967784 C27.4547141,27.9423969 27.0870329,28.3908505 26.5658539,28.3908505 C26.016117,28.3572165 25.6769937,27.9386598 25.6769937,27.3967784 L25.6769937,27.3967784 Z M17.9878175,25.7898196 C17.1310847,25.7898196 16.517093,26.4326031 16.517093,27.3930412 C16.517093,28.3572165 17.1310847,28.9962629 18.019945,28.9962629 C18.4483113,28.9962629 18.8766777,28.869201 19.215801,28.5777062 L18.9088052,28.0956186 C18.6624945,28.2899485 18.3554986,28.4170103 18.0520724,28.4170103 C17.6522638,28.4170103 17.2560249,28.2226804 17.1632122,27.680799 L19.3371715,27.680799 C19.3371715,27.583634 19.3371715,27.5201031 19.3371715,27.4229381 C19.3657293,26.4326031 18.8124227,25.7898196 17.9878175,25.7898196 L17.9878175,25.7898196 L17.9878175,25.7898196 Z M17.9878175,26.3690722 C18.3876261,26.3690722 18.6624945,26.626933 18.7231797,27.1052835 L17.19177,27.1052835 C17.2524552,26.6904639 17.5273236,26.3690722 17.9878175,26.3690722 L17.9878175,26.3690722 Z M33.9516039,27.3967784 L33.9516039,24.6387887 L33.3090543,24.6387887 L33.3090543,26.2420103 C33.0948712,25.9542526 32.7878753,25.7935567 32.3880667,25.7935567 C31.5598917,25.7935567 30.9173422,26.4662371 30.9173422,27.3967784 C30.9173422,28.3273196 31.5598917,29 32.3880667,29 C32.816433,29 33.1234289,28.8393041 33.3090543,28.5515464 L33.3090543,28.9364691 L33.9516039,28.9364691 L33.9516039,27.3967784 L33.9516039,27.3967784 Z M31.5920192,27.3967784 C31.5920192,26.8511598 31.9275728,26.4027062 32.4808794,26.4027062 C33.0020585,26.4027062 33.3697396,26.8212629 33.3697396,27.3967784 C33.3697396,27.9423969 33.0020585,28.3908505 32.4808794,28.3908505 C31.9275728,28.3572165 31.5920192,27.9386598 31.5920192,27.3967784 L31.5920192,27.3967784 Z M10.0808884,27.3967784 L10.0808884,25.8570876 L9.43833884,25.8570876 L9.43833884,26.2420103 C9.22415566,25.9542526 8.91715976,25.7935567 8.51735116,25.7935567 C7.68917619,25.7935567 7.04662665,26.4662371 7.04662665,27.3967784 C7.04662665,28.3273196 7.68917619,29 8.51735116,29 C8.94571752,29 9.25271341,28.8393041 9.43833884,28.5515464 L9.43833884,28.9364691 L10.0808884,28.9364691 L10.0808884,27.3967784 L10.0808884,27.3967784 Z M7.69274591,27.3967784 C7.69274591,26.8511598 8.02829956,26.4027062 8.58160611,26.4027062 C9.10278519,26.4027062 9.47046631,26.8212629 9.47046631,27.3967784 C9.47046631,27.9423969 9.10278519,28.3908505 8.58160611,28.3908505 C8.02829956,28.3572165 7.69274591,27.9386598 7.69274591,27.3967784 Z" id="XMLID_1775_" fill="color(display-p3 0.000 0.000 0.000)" fill-rule="nonzero"/>
                    <g id="Group" fill-rule="nonzero">
                        <rect id="rect19" fill="color(display-p3 1.000 0.353 0.000)" x="12.9937796" y="2.47023196" width="9.65252202" height="18.1548969"/>
                        <path d="M13.6363292,11.5476804 C13.6363292,7.85914948 15.2926791,4.58543814 17.8343195,2.47023196 C15.9637864,0.930541237 13.6042017,0 11.0304338,0 C4.9333526,0 0,5.16469072 0,11.5476804 C0,17.9306701 4.9333526,23.0953608 11.0304338,23.0953608 C13.6042017,23.0953608 15.9637864,22.1648196 17.8343195,20.6251289 C15.2891094,18.5398196 13.6363292,15.2362113 13.6363292,11.5476804 Z" id="XMLID_330_" fill="color(display-p3 0.922 0.000 0.106)"/>
                        <path d="M35.6686391,11.5476804 C35.6686391,17.9306701 30.7352865,23.0953608 24.6382052,23.0953608 C22.0644373,23.0953608 19.7048526,22.1648196 17.8343195,20.6251289 C20.4080874,18.5061856 22.0323099,15.2362113 22.0323099,11.5476804 C22.0323099,7.85914948 20.3759599,4.58543814 17.8343195,2.47023196 C19.7012829,0.930541237 22.0608676,0 24.6346355,0 C30.7352865,0 35.6686391,5.19832474 35.6686391,11.5476804 Z" id="path22" fill="color(display-p3 0.969 0.620 0.106)"/>
                    </g>
                </g>
                <g transform="translate(48.6391, 0)" fill-rule="nonzero">
                    <g>
                        <path d="M10.7834274,28.8365699 L10.7834274,26.919062 C10.805189,26.5928003 10.6915193,26.2725379 10.471444,26.0400539 C10.2513686,25.80757 9.94619177,25.6853698 9.63384052,25.7046573 C9.22229807,25.6766774 8.82875217,25.8848121 8.60654553,26.247963 C8.40401329,25.8955432 8.03332459,25.6870962 7.64036587,25.7046573 C7.29823489,25.6866963 6.97256173,25.859342 6.78429181,26.1584788 L6.78429181,25.7813717 L6.14830647,25.7813717 L6.14830647,28.8365699 L6.79038498,28.8365699 L6.79038498,27.1428043 C6.76226554,26.9311776 6.82622551,26.7175026 6.96472774,26.5603668 C7.10322997,26.4032311 7.30173924,26.3191252 7.50582639,26.3311102 C7.92775495,26.3311102 8.14181174,26.6187012 8.14181174,27.1364034 L8.14181174,28.8365699 L8.78389025,28.8365699 L8.78389025,27.1428043 C8.75789029,26.9316265 8.82258301,26.7192425 8.96060666,26.5626504 C9.0986303,26.4060583 9.29584904,26.3212956 9.49933472,26.3311102 C9.93344654,26.3311102 10.1413795,26.6187012 10.1413795,27.1364034 L10.1413795,28.8365699 L10.7834274,28.8365699 Z M14.3668226,27.3089388 L14.3668226,25.7813717 L13.7308342,25.7813717 L13.7308342,26.152078 C13.5105644,25.855386 13.1664217,25.6886318 12.8074598,25.7046573 C11.9890077,25.7466307 11.3460407,26.4524727 11.3460407,27.3089868 C11.3460407,28.1655009 11.9890077,28.8713429 12.8074598,28.9133163 C13.1664292,28.9293451 13.5105775,28.7625763 13.7308342,28.4658637 L13.7308342,28.8365699 L14.3668226,28.8365699 L14.3668226,27.3089388 Z M12.0003453,27.3089388 C12.0278742,26.8061397 12.4351445,26.4187379 12.916636,26.4373491 C13.3981275,26.4559603 13.776911,26.8737456 13.768836,27.3772967 C13.760761,27.8808478 13.3687948,28.2851295 12.8869771,28.2868634 C12.6421769,28.2903152 12.4071454,28.1866272 12.2387419,28.0008838 C12.0703384,27.8151405 11.9839026,27.564261 12.0003453,27.3089388 L12.0003453,27.3089388 Z M27.9746891,25.7010728 C28.1894384,25.698902 28.4025219,25.7406399 28.6019481,25.8239375 C28.7878236,25.9014711 28.9573453,26.016359 29.1009138,26.1620953 C29.2422193,26.3069806 29.354308,26.4800008 29.430557,26.6709323 C29.589367,27.0800853 29.589367,27.5378243 29.430557,27.9469773 C29.3543474,28.1379594 29.2422544,28.3110186 29.1009138,28.4559103 C28.9573585,28.6016481 28.7878322,28.7165172 28.6019481,28.7940042 C28.1984788,28.9578663 27.7509301,28.9578663 27.3474608,28.7940042 C27.1618876,28.7167498 26.9927916,28.6018408 26.8499342,28.4559103 C26.7094339,28.310621 26.5979099,28.1376366 26.5218219,27.9469773 C26.3631752,27.537791 26.3631752,27.0801186 26.5218219,26.6709323 C26.5979491,26.4803234 26.709469,26.3073781 26.8499342,26.1620953 C26.9928049,26.0161664 27.1618963,25.9012387 27.3474608,25.8239375 C27.5468763,25.74064 27.7599498,25.6989021 27.9746891,25.7010728 L27.9746891,25.7010728 Z M27.9746891,26.329606 C27.8503113,26.3284285 27.7269252,26.3528195 27.6115489,26.4013918 C27.5027967,26.4469946 27.4041198,26.5153709 27.3215878,26.602315 C27.2384802,26.6911355 27.1731059,26.7963484 27.1292705,26.911829 C27.0356581,27.1675829 27.0356581,27.4504548 27.1292705,27.7062087 C27.1730912,27.8216783 27.2384678,27.9268731 27.3215878,28.0156586 C27.4041088,28.1026326 27.5027874,28.171032 27.6115489,28.2166459 C27.8449939,28.3123601 28.104415,28.3123601 28.33786,28.2166459 C28.4469414,28.1707714 28.5460737,28.1024185 28.629352,28.0156586 C28.7132145,27.9271726 28.7791547,27.8219271 28.823234,27.7062087 C28.9168423,27.450454 28.9168423,27.1675836 28.823234,26.911829 C28.7791405,26.7960994 28.7132026,26.6908358 28.629352,26.602315 C28.5460628,26.5155851 28.4469322,26.4472552 28.33786,26.4013918 C28.222473,26.3528195 28.0990769,26.3284285 27.9746891,26.329606 Z M17.8273073,27.3089388 C17.8212142,26.3566177 17.2586223,25.7046573 16.4392297,25.7046573 C15.6149604,25.7498594 14.9722034,26.4678307 14.983712,27.3304973 C14.9952205,28.1931639 15.6568803,28.892123 16.482035,28.9132843 C16.9183081,28.9292875 17.3449476,28.7768419 17.6805509,28.4850343 L17.3687004,27.9928715 C17.1272083,28.1951395 16.8281443,28.3075772 16.5187195,28.3124349 C16.081867,28.3508532 15.6947448,28.0198032 15.6442434,27.5646215 L17.8150904,27.5646215 C17.8212142,27.4815382 17.8273073,27.398487 17.8273073,27.3089388 Z M15.6503948,27.0405184 C15.673628,26.6139278 16.0184283,26.2847449 16.4269822,26.2991059 C16.8269171,26.290981 17.1577948,26.6225173 17.1669218,27.0405184 L15.6503948,27.0405184 Z M20.5055126,26.5611894 C20.2280461,26.394345 19.9144845,26.3041466 19.5944164,26.2991059 C19.2458201,26.2991059 19.0379483,26.4333321 19.0379483,26.6570744 C19.0379483,26.8616142 19.2580677,26.919062 19.5332704,26.9574032 L19.8328764,27.0021452 C20.4688648,27.0980302 20.8540507,27.3792524 20.8540507,27.9161571 C20.8540507,28.497804 20.36488,28.9133163 19.5210229,28.9133163 C19.0693637,28.9263482 18.6256428,28.7873995 18.2552372,28.5169426 L18.5548432,27.9992724 C18.8354729,28.2167846 19.1779238,28.3293479 19.5271466,28.3188677 C19.9612615,28.3188677 20.193659,28.1846736 20.193659,27.9481295 C20.193659,27.7755621 20.0285313,27.6796771 19.6800268,27.6285662 L19.3803627,27.5838561 C18.7260948,27.4879391 18.3714359,27.1811455 18.3714359,26.6825819 C18.3714359,26.0753636 18.8483561,25.7046573 19.5882926,25.7046573 C20.0068556,25.6895806 20.4207496,25.8005243 20.7807154,26.0242846 L20.5055126,26.5611894 Z M23.5613103,26.38859 L22.5217984,26.38859 L22.5217984,27.7692252 C22.5217984,28.0759548 22.6257495,28.2805265 22.9437269,28.2805265 C23.142199,28.2736411 23.3357605,28.2142687 23.5063187,28.1079592 L23.689726,28.6768363 C23.4512941,28.8322193 23.1757776,28.9141819 22.894801,28.9133231 C22.142675,28.9133231 21.8797505,28.4914671 21.8797505,27.7819309 L21.8797505,26.38859 L21.2865704,26.38859 L21.2865704,25.7813717 L21.8797505,25.7813717 L21.8795667,24.8546221 L22.5216146,24.8546221 L22.5217984,25.7813717 L23.5613103,25.7813717 L23.5613103,26.38859 Z M25.7621974,25.7046573 C25.9164696,25.7053077 26.0695082,25.7334258 26.2147449,25.7878046 L26.0190595,26.4141615 C25.8926741,26.3615651 25.7576168,26.3354978 25.6215954,26.3374471 C25.20576,26.3374471 24.997827,26.6187012 24.997827,27.1236017 L24.997827,28.8365699 L24.3619029,28.8365699 L24.3619029,25.7813717 L24.9917645,25.7813717 L24.9917645,26.152078 C25.1507051,25.8666084 25.4463407,25.6949212 25.7621974,25.7046573 L25.7621974,25.7046573 Z M30.1649546,28.3918285 C30.2045001,28.3915632 30.2436871,28.3996857 30.2801398,28.4157129 C30.3151861,28.4310069 30.3471283,28.4531313 30.3742624,28.4809057 C30.4011832,28.5086301 30.4227164,28.5415381 30.4376741,28.5778149 C30.4686195,28.6531121 30.4686195,28.7383896 30.4376741,28.8136868 C30.4226186,28.8497844 30.4010944,28.8825376 30.3742624,28.9101799 C30.3470706,28.9379689 30.315148,28.9601991 30.2801398,28.9757248 C30.2437515,28.992012 30.2045379,29.0002709 30.1649546,28.9999841 C30.0458533,29.0012414 29.9375997,28.9278624 29.8901162,28.8136868 C29.8592524,28.738372 29.8592524,28.6531297 29.8901162,28.5778149 C29.9050307,28.5415841 29.9264644,28.5086851 29.9532524,28.4809057 C29.9803546,28.4529239 30.0124476,28.4307743 30.0477117,28.4157129 C30.0848708,28.3996355 30.124739,28.3915168 30.1649546,28.3918285 L30.1649546,28.3918285 Z M30.1649546,28.932903 C30.1951268,28.9331508 30.2250156,28.9268064 30.2527053,28.9142765 C30.2792872,28.9022132 30.3034584,28.8850262 30.3239555,28.8636136 C30.3773073,28.8080025 30.4007256,28.7283109 30.3864393,28.6509842 C30.372153,28.5736574 30.3220307,28.50881 30.2527053,28.4779613 C30.2249723,28.4656112 30.1950985,28.4593789 30.1649546,28.4596461 C30.1342566,28.4594082 30.1038263,28.4656345 30.0754831,28.4779613 C30.0484554,28.4895918 30.0238735,28.5066523 30.0031306,28.5281761 C29.9150892,28.6210538 29.9150892,28.7707359 30.0031306,28.8636136 C30.0461147,28.9082774 30.1043457,28.9332107 30.1649546,28.932903 L30.1649546,28.932903 Z M30.1820675,28.5535236 C30.2107127,28.5515716 30.2391076,28.5601661 30.2623227,28.5778149 C30.281086,28.5939535 30.2915054,28.6183686 30.2904584,28.6437438 C30.2911136,28.6654291 30.2829603,28.6863917 30.2680148,28.7014476 C30.2502933,28.7179172 30.2278343,28.7277577 30.2041743,28.7294194 L30.2926017,28.8359939 L30.2234642,28.8359939 L30.1414668,28.7301555 L30.1150733,28.7301555 L30.1150733,28.8359939 L30.057326,28.8359939 L30.057326,28.5535236 L30.1820675,28.5535236 Z M30.1150733,28.6064907 L30.1150733,28.681765 L30.1813939,28.681765 C30.1941351,28.6824217 30.2067812,28.6791616 30.2177691,28.6723877 C30.2268562,28.6660593 30.2320078,28.6551313 30.2312721,28.6437438 C30.2318747,28.6325594 30.2267287,28.6218871 30.2177691,28.61574 C30.2067564,28.609041 30.1941199,28.6058278 30.1813939,28.6064907 L30.1150733,28.6064907 Z" id="Shape" fill="color(display-p3 0.000 0.000 0.000)"/>
                        <g>
                            <rect id="Rectangle" fill="color(display-p3 0.451 0.459 0.812)" x="13.0120859" y="2.4634902" width="9.64495615" height="18.1165043"/>
                            <path d="M13.6245253,11.5217423 C13.6214444,7.98648376 15.1739587,4.64614303 17.8345946,2.4634902 C13.3152873,-1.2495264 6.82488764,-0.709110684 2.92495185,3.70492459 C-0.974983949,8.11895987 -0.974983949,14.9245248 2.92495185,19.3385601 C6.82488764,23.7525954 13.3152873,24.2930111 17.8345946,20.5799945 C15.1739642,18.397337 13.6214512,15.0569993 13.6245253,11.5217423 L13.6245253,11.5217423 Z" id="Path" fill="color(display-p3 0.922 0.000 0.106)"/>
                            <path d="M34.617002,18.6457858 L34.617002,18.2876771 L34.7600842,18.2876771 L34.7600842,18.2147204 L34.3956886,18.2147204 L34.3956886,18.2876771 L34.538832,18.2876771 L34.538832,18.6457858 L34.617002,18.6457858 Z M35.3244519,18.6457858 L35.3244519,18.2140097 L35.2127541,18.2140097 L35.0842772,18.5109967 L34.9557696,18.2140097 L34.8440106,18.2140097 L34.8440106,18.6457858 L34.9228849,18.6457858 L34.9228849,18.3200919 L35.0433703,18.600887 L35.1251534,18.600887 L35.2456388,18.3193812 L35.2456388,18.6457858 L35.3244519,18.6457858 Z" id="Shape" fill="color(display-p3 0.000 0.635 0.898)"/>
                            <path d="M35.6686391,11.5217423 C35.6686391,15.9327897 33.2594029,19.9567337 29.4637148,21.8846362 C25.6680268,23.8125388 21.1524031,23.3059423 17.8345946,20.5799945 C20.4927525,18.3952564 22.0446339,15.0562538 22.0446339,11.5217423 C22.0446339,7.98723093 20.4927525,4.64822829 17.8345946,2.4634902 C21.1524031,-0.26245763 25.6680268,-0.769054091 29.4637148,1.15884845 C33.2594029,3.086751 35.6686391,7.11069504 35.6686391,11.5217423 L35.6686391,11.5217423 Z" id="Path" fill="color(display-p3 0.000 0.635 0.898)"/>
                        </g>
                    </g>
                </g>
            </g>
        </g>
    </g>
</svg>