<svg xmlns="http://www.w3.org/2000/svg" width="72" height="30" viewBox="0 0 72 30"><g transform="translate(0 6.937)"><path d="M12.3183926,0 L8.87171561,0 C8.87171561,2.82843895 7.57341577,5.40958269 5.31684699,7.10973725 L3.95672334,8.12982998 L9.24265842,15.3323029 L13.5857805,15.3323029 L8.71715611,8.70170015 C11.0200927,6.41421947 12.3183926,3.32302937 12.3183926,0 Z"/><rect width="3.524" height="15.332"/><rect width="3.323" height="15.332" x="14.606"/><path d="M47.0788253 4.43585781C45.8114374 4.43585781 44.6058733 4.82225657 43.8021638 5.91962906L43.8021638 4.72952087 40.6491499 4.72952087 40.6491499 15.3323029 43.8485317 15.3323029 43.8485317 9.76816074C43.8485317 8.16074189 44.9304482 7.37248841 46.2287481 7.37248841 47.6197836 7.37248841 48.423493 8.20710974 48.423493 9.75270479L48.423493 15.3477589 51.5919629 15.3477589 51.5919629 8.5935085C51.5919629 6.12055641 49.6290572 4.43585781 47.0788253 4.43585781ZM27.9752705 4.72952087 27.9752705 5.40958269C27.0788253 4.79134467 25.9969088 4.43585781 24.8222566 4.43585781 21.7310665 4.43585781 19.2272025 6.93972179 19.2272025 10.0309119 19.2272025 13.122102 21.7310665 15.625966 24.8222566 15.625966 25.9969088 15.625966 27.0788253 15.2704791 27.9752705 14.6522411L27.9752705 15.3323029 31.1437403 15.3323029 31.1437403 4.72952087 27.9752705 4.72952087ZM25.0850077 12.7511592C23.4930448 12.7511592 22.2102009 11.5301391 22.2102009 10.0309119 22.2102009 8.5316847 23.4930448 7.31066461 25.0850077 7.31066461 26.6769706 7.31066461 27.9598145 8.5316847 27.9598145 10.0309119 27.9598145 11.5301391 26.6769706 12.7511592 25.0850077 12.7511592ZM36.0587326 6.10510046 36.0587326 4.72952087 32.812983 4.72952087 32.812983 15.3323029 36.0741886 15.3323029 36.0741886 10.3863988C36.0741886 8.71715611 37.8825348 7.82071097 39.1344668 7.82071097 39.1499227 7.82071097 39.1653787 7.82071097 39.1653787 7.82071097L39.1653787 4.72952087C37.8825348 4.72952087 36.6924266 5.28593509 36.0587326 6.10510046ZM61.4528594 4.72952087 61.4528594 5.40958269C60.5564142 4.79134467 59.4744977 4.43585781 58.2998454 4.43585781 55.2086553 4.43585781 52.7047913 6.93972179 52.7047913 10.0309119 52.7047913 13.122102 55.2086553 15.625966 58.2998454 15.625966 59.4744977 15.625966 60.5564142 15.2704791 61.4528594 14.6522411L61.4528594 15.3323029 64.6213292 15.3323029 64.6213292 4.72952087 61.4528594 4.72952087ZM58.5625966 12.7511592C56.9706337 12.7511592 55.6877898 11.5301391 55.6877898 10.0309119 55.6877898 8.5316847 56.9706337 7.31066461 58.5625966 7.31066461 60.1545595 7.31066461 61.4374034 8.5316847 61.4374034 10.0309119 61.4528594 11.5301391 60.1545595 12.7511592 58.5625966 12.7511592Z"/><g transform="translate(65.997 4.451)"><path d="M1.51004637,0.64772322 C1.51004637,0.455415527 1.32085718,0.340030912 1.02355988,0.340030912 L0.510046368,0.340030912 L0.510046368,1.34003091 L0.753289611,1.34003091 L0.753289611,0.974646297 L1.02355988,0.974646297 L1.2397761,1.34003091 L1.51004637,1.34003091 L1.26680312,0.936184758 C1.42896529,0.87849245 1.51004637,0.782338604 1.51004637,0.64772322 Z M1.02355988,0.801569373 L0.753289611,0.801569373 L0.753289611,0.493877066 L1.02355988,0.493877066 C1.18572204,0.493877066 1.26680312,0.551569373 1.26680312,0.64772322 C1.26680312,0.743877066 1.21274907,0.801569373 1.02355988,0.801569373 Z"/><path d="M0.757341577,0 C0.340030912,0 0,0.340030912 0,0.757341577 C0.0154559505,1.17465224 0.340030912,1.51468315 0.757341577,1.51468315 C1.17465224,1.51468315 1.51468315,1.17465224 1.51468315,0.757341577 C1.51468315,0.340030912 1.17465224,0 0.757341577,0 Z M0.757341577,1.3755796 C0.417310665,1.3755796 0.154559505,1.09737249 0.154559505,0.757341577 C0.154559505,0.417310665 0.432766615,0.139103555 0.757341577,0.139103555 C1.09737249,0.139103555 1.36012365,0.417310665 1.36012365,0.757341577 C1.36012365,1.09737249 1.08191654,1.3755796 0.757341577,1.3755796 Z"/></g><path d="M68.0061824,11.576507 C66.9088099,11.576507 66.0123648,12.4729521 66.0123648,13.5703246 C66.0123648,14.6676971 66.9088099,15.5641422 68.0061824,15.5641422 C69.1035549,15.5641422 70,14.6676971 70,13.5703246 C70,12.4574961 69.1035549,11.576507 68.0061824,11.576507 Z"/></g></svg>