<svg xmlns="http://www.w3.org/2000/svg" xmlns:xlink="http://www.w3.org/1999/xlink" width="61" height="37" viewBox="0 0 61 37"><defs><polygon id="c" points="2.008 1.49 16.315 0 13.446 20.02 0 15.926"/><polygon id="g" points="2.008 1.49 16.315 0 13.446 20.02 0 15.926"/><polygon id="k" points="2.004 1.49 16.315 0 13.442 20.02 0 15.926"/><polygon id="o" points="2.004 1.49 16.315 0 13.442 20.02 0 15.926"/><path id="a" d="M3.30444534,1.01661812 L12.8627707,0.0142473111 C14.5019061,-0.157473868 15.8605032,1.24824299 15.6320447,2.87360767 L13.6763202,16.7191161 C13.4598982,18.2526561 11.9169373,19.2310568 10.4301075,18.7797552 L1.34472824,16.0162781 C0.451033356,15.7447297 -0.110043332,14.8661526 0.0181893477,13.9436555 L1.62127399,2.63798632 C1.74551408,1.77139277 2.44280863,1.10847232 3.30444534,1.01661812 Z"/><path id="e" d="M3.30444534,1.01661812 L12.8627707,0.0142473121 C14.5019061,-0.157473867 15.8605032,1.24824299 15.6320447,2.87360177 L13.6763202,16.7191161 C13.4598982,18.2526561 11.9169373,19.2310568 10.4301075,18.7797552 L1.34472824,16.0162781 C0.451033356,15.7447297 -0.110043332,14.8661526 0.0181893477,13.9436555 L1.62127399,2.63798632 C1.74545536,1.77139277 2.44280863,1.10847232 3.30444534,1.01661812 Z"/><path id="i" d="M3.30444534,1.01661812 L12.8627707,0.0142473121 C14.5019061,-0.157473867 15.8605032,1.24824299 15.6320447,2.87360177 L13.6763202,16.7191161 C13.4598982,18.2526561 11.9169373,19.2310568 10.4301075,18.7797552 L1.34472824,16.0162781 C0.451033356,15.7447297 -0.110043332,14.8661526 0.0181893477,13.9436555 L1.62127399,2.63798632 C1.74551408,1.77139277 2.44280863,1.10847232 3.30444534,1.01661812 Z"/><path id="m" d="M3.30447986,1.01661812 L12.8627818,0.0142473121 C14.5019172,-0.157473867 15.8605142,1.24824299 15.6320557,2.87360177 L13.6763312,16.7191161 C13.4599092,18.2526561 11.9169483,19.2310568 10.4301186,18.7797552 L1.34472753,16.0122639 C0.451020909,15.7407155 -0.110052785,14.8621384 0.0181927533,13.9396413 L1.62125567,2.63399574 C1.74549576,1.77139277 2.44283141,1.10847232 3.30447986,1.01661812 Z"/></defs><g fill="none" fill-rule="evenodd" transform="translate(.444)"><g transform="translate(.157)"><g transform="translate(32.88)"><mask id="b" fill="#fff"><use xlink:href="#a"/></mask><g mask="url(#b)"><g transform="translate(-.182 -.401)"><mask id="d" fill="#fff"><use xlink:href="#c"/></mask><g mask="url(#d)"><polygon fill="color(display-p3 0.067 0.133 0.192)" fill-rule="nonzero" points="16.315 0 2.004 1.49 0 15.926 13.442 20.023"/><path fill="color(display-p3 1.000 0.310 0.251)" fill-rule="nonzero" d="M11.0369938,12.2561257 C11.0169721,12.3918999 10.9488045,12.5236599 10.8646664,12.591547 L8.53622168,14.5364238 C8.407989,14.6442167 8.25169074,14.5004731 8.27171242,14.3487012 L8.98104346,9.34884603 L11.7944121,6.74906538 L11.8184851,6.74906538 L11.0369938,12.2561257 Z"/><path fill="color(display-p3 0.733 0.957 0.180)" fill-rule="nonzero" d="M10.4359325,4.87208751 C10.3758087,4.79221687 10.2636051,4.79620745 10.1834597,4.87607809 L6.98533431,8.06690151 L6.94523224,8.06288732 L6.44028671,11.6371134 L6.46430098,11.7409512 L8.97311699,9.40073538 L11.8185438,6.74906538 L10.4359325,4.87208751 Z"/><path fill="color(display-p3 0.000 0.533 0.651)" fill-rule="nonzero" d="M2.76128878,11.0061176 C2.74525969,11.1179247 2.76128878,11.233746 2.80133214,11.3096615 L3.99564575,13.5739618 C4.06780599,13.709736 4.22005294,13.6458631 4.24013333,13.5060747 L4.87730414,8.97340087 L3.42658388,6.4735028 L3.41055479,6.4735028 L2.76128878,11.0061176 Z"/><path fill="color(display-p3 0.282 0.827 0.698)" fill-rule="nonzero" d="M4.99350033,4.92799696 C4.94940566,4.86010396 4.86127505,4.86010396 4.79715871,4.92799696 L3.3904744,6.49345571 L4.86926024,9.02133506 L6.46430098,11.7169841 L6.97729041,8.06690151 L4.99350033,4.92799696 Z"/></g></g></g></g><path stroke="color(display-p3 0.925 0.925 0.937)" stroke-width=".398" d="M45.761275,0.209264627 C47.2755245,0.0519771895 48.528083,1.35077022 48.3185306,2.84496522 L46.3638629,16.6910168 C46.1658773,18.104131 44.7426942,19.008269 43.3685378,18.5916784 L34.2809273,15.8274339 L34.2803989,15.8274339 C33.5275016,15.5993923 33.0403466,14.892481 33.0779826,14.12394 L33.092309,13.9694526 L34.6960982,2.66106203 L34.6960982,2.66048941 C34.8035459,1.89130499 35.4269188,1.29391035 36.2029496,1.21177287 L36.2023625,1.21120025 L45.761275,0.209264627 Z"/><g transform="translate(21.92)"><mask id="f" fill="#fff"><use xlink:href="#e"/></mask><g mask="url(#f)"><g transform="translate(-.182 -.401)"><mask id="h" fill="#fff"><use xlink:href="#g"/></mask><g mask="url(#h)"><g fill-rule="nonzero" transform="translate(.004)"><polygon fill="color(display-p3 0.251 0.027 0.333)" points="16.311 0 2.004 1.49 0 15.926 13.442 20.023"/><path fill="color(display-p3 0.812 0.000 0.173)" d="M8.44415719,11.7090059 L9.17756122,14.0252546 C9.1975829,14.057191 9.19359031,14.0811581 9.23363366,14.1171088 C9.29375741,14.1849959 9.41001231,14.1809817 9.47007734,14.0811581 L11.0050531,11.9166814 C11.0691694,11.8128436 11.0891911,11.6770694 11.0571329,11.5612481 L10.1153508,8.88956621 C10.0952704,8.86164395 10.0712561,8.85762975 10.0512344,8.85762975 C10.0271614,8.85762975 10.0031472,8.88159685 9.97907418,8.87758266 L8.51625871,11.0580572 C8.40006253,11.2537491 8.21569869,11.3296056 8.02334967,11.3056385 L8.00326928,11.3016833 C8.2117061,11.3575869 8.38403344,11.5133139 8.44415719,11.7090059 Z"/><path fill="color(display-p3 0.867 0.243 0.337)" d="M5.98730359,11.0221065 C5.96728192,11.0180923 5.94726024,11.0420594 5.92318725,11.0620123 C5.89917298,11.0820243 5.89917298,11.1059914 5.91115076,11.1339136 L6.6405622,13.6259014 C6.66463519,13.7336943 6.76080969,13.8055956 6.84095512,13.8215343 L9.07322538,14.276791 C9.20950196,14.3047723 9.30966906,14.2448546 9.3737854,14.1210639 L9.43390915,14.0252546 L8.71254161,11.3814949 C8.73256329,11.405462 5.98730359,11.0221065 5.98730359,11.0221065 Z"/><path fill="color(display-p3 0.812 0.000 0.173)" d="M4.64896307 10.8343839 3.01382026 10.6067556C2.99779118 10.6028004 2.96573301 10.5987862 2.96174041 10.6227533 2.90560926 10.6626591 2.857522 10.7664969 2.88159499 10.8424123L3.45870076 12.9669243C3.47872244 13.0668069 3.55886786 13.1306798 3.6229842 13.1666304L5.57072353 13.5659836C5.60677429 13.573953 5.63483987 13.530033 5.63883246 13.5060659L5.64288377 13.4820988 4.98557386 11.229782C4.9374866 11.0300759 4.96954477 10.814431 5.065778 10.6587039L5.06977059 10.6347369C4.95756699 10.7585275 4.79322484 10.8543959 4.64896307 10.8343839ZM7.22976318 7.13241201 8.51220741 5.09571646C8.5162 5.07175527 8.54027298 5.04379759 8.54426558 5.0198423 8.56029466 4.92000105 8.50821481 4.81616921 8.40399641 4.82016569L6.38814815 4.84412688C6.29197364 4.84412688 6.20783562 4.89603985 6.15569706 4.99188463L4.82915817 7.20029911C4.80913649 7.22426621 4.8051439 7.24421911 4.82117298 7.2722004 4.83185904 7.28813911 4.84788813 7.30413685 4.86926024 7.32007556L6.76885359 7.41594395C6.92920316 7.4239133 7.08949401 7.55573234 7.14562516 7.73542653L7.14157386 7.75939363C7.0934866 7.55171814 7.12554477 7.30413685 7.22976318 7.13241201Z"/><path fill="color(display-p3 0.867 0.243 0.337)" d="M6.30800272 8.61400363C6.33207571 8.59003653 6.3360683 8.56606943 6.32003922 8.54216137 6.32403181 8.51819427 6.30800272 8.49021298 6.28798105 8.49021298L4.28411057 8.33448588C4.19597996 8.3264575 4.11583453 8.39038943 4.07173987 8.45827653L2.88547015 10.4510285C2.82135381 10.5548662 2.80532473 10.6666733 2.8373829 10.7865088L2.87343366 10.8823181 4.89327451 10.9382217 5.08967484 10.6028004 6.30800272 8.61400363ZM7.8830805 10.0197388C7.89376656 10.0383339 7.91378824 10.0490188 7.94314553 10.0516752 7.9832476 10.0556894 7.9872402 10.0317223 8.01131318 10.0317223L9.55022277 7.70349008C9.61034651 7.59965234 9.63036819 7.4718475 9.59831002 7.36405459L8.76473889 4.98789405C8.71665163 4.88805869 8.62047712 4.81217863 8.5322878 4.81217863L8.42806939 4.81217863 7.04146547 7.34404266 7.18572723 7.75142427 7.8830805 10.0197388Z"/></g></g></g></g></g><path stroke="color(display-p3 0.925 0.925 0.937)" stroke-width=".398" d="M34.8013148,0.209264627 C36.3155642,0.0519771895 37.568064,1.35077022 37.3585703,2.84496522 L35.4039027,16.6910168 C35.2059171,18.104131 33.7827339,19.008269 32.4085775,18.5916784 L23.3209671,15.8274339 L23.3204386,15.8274339 C22.5675413,15.5993923 22.0803863,14.892481 22.1180224,14.12394 L22.1323488,13.9694526 L23.736138,2.66106203 L23.736138,2.66048941 C23.8435857,1.89130499 24.4669586,1.29391035 25.2429894,1.21177287 L25.2424022,1.21120025 L34.8013148,0.209264627 Z"/><g transform="translate(10.96)"><mask id="j" fill="#fff"><use xlink:href="#i"/></mask><g mask="url(#j)"><g transform="translate(-.182 -.401)"><mask id="l" fill="#fff"><use xlink:href="#k"/></mask><g mask="url(#l)"><polygon fill="color(display-p3 0.859 0.000 0.067)" fill-rule="nonzero" points="16.315 0 2.004 1.49 0 15.926 13.442 20.023"/><polygon fill="color(display-p3 1.000 1.000 1.000)" fill-rule="nonzero" points="11.694 9.74 9.522 6.629 8.713 12.356"/><polygon fill="color(display-p3 1.000 1.000 1.000)" fill-rule="nonzero" points="6.813 9.277 9.526 6.629 5.098 6.497"/><polygon fill="color(display-p3 1.000 1.000 1.000)" fill-rule="nonzero" points="2.857 8.902 4.376 11.657 5.098 6.501"/><polygon fill="color(display-p3 1.000 1.000 1.000)" fill-rule="nonzero" points="6.813 9.277 4.376 11.657 8.717 12.36"/></g></g></g></g><path stroke="color(display-p3 0.925 0.925 0.937)" stroke-width=".398" d="M23.841061,0.209264627 C25.3553104,0.0519771895 26.6078689,1.35077022 26.3983752,2.84496522 L24.4436489,16.6910168 C24.2456632,18.104131 22.8224801,19.008269 21.4483237,18.5916784 L12.3607132,15.8274339 L12.3601848,15.8274339 C11.6072875,15.5993923 11.1201325,14.892481 11.1577686,14.12394 L11.1720949,13.9694526 L12.7758842,2.66106203 L12.7758842,2.66048941 C12.8833319,1.89130499 13.5067047,1.29391035 14.2827356,1.21177287 L14.2821484,1.21120025 L23.841061,0.209264627 Z"/><mask id="n" fill="#fff"><use xlink:href="#m"/></mask><g mask="url(#n)"><g transform="translate(-.182 -.401)"><mask id="p" fill="#fff"><use xlink:href="#o"/></mask><g mask="url(#p)"><polygon fill="color(display-p3 0.000 0.686 0.914)" fill-rule="nonzero" points="16.315 0 2.004 1.49 0 15.926 13.442 20.023"/><path fill="color(display-p3 1.000 1.000 1.000)" fill-rule="nonzero" d="M7.2296205,4.14527645 C7.0131985,4.15326351 6.96511125,4.2011859 6.87292933,4.30102125 L6.7927839,4.30102125 C6.63648565,4.30501184 6.40004196,4.33296951 6.20769294,4.50868493 C6.01528521,4.65644267 5.90308162,4.9200158 5.97524186,5.08374767 C5.97524186,5.08374767 6.04335079,4.9879029 6.2557802,4.9879029 L6.35195471,4.9879029 C6.63648565,5.03582529 6.8008278,5.22751484 6.71263848,5.71472577 C6.62444915,6.20193671 6.39205678,6.75703474 5.79889843,6.73708184 C5.79889843,6.73708184 5.72275147,6.73306764 5.65461906,6.70910055 C5.38210113,6.67716409 5.34202254,6.43755216 5.34202254,6.43755216 C5.34202254,6.43755216 5.59049684,6.37367925 5.64660451,5.99427303 C5.68267289,5.73469048 5.53038484,5.49508445 5.30595416,5.39923967 C5.23782175,5.37527848 5.12961662,5.35131729 5.04144491,5.35131729 C4.75690223,5.35131729 4.41625188,5.51105858 4.15575282,5.87845764 C3.56662817,6.68513345 3.36624113,7.87923796 3.31013346,8.9934128 C3.25403166,10.1116018 3.65078968,11.2377602 3.65880422,11.2856944 C3.66681876,11.3016331 3.67750482,11.3109602 3.69086239,11.3136167 C3.70422583,11.3162731 3.71090168,11.3096615 3.71090168,11.2936638 C3.97541094,11.0261296 4.27999291,10.6467293 4.40823733,10.3751809 C4.50041338,10.4829738 4.41224167,10.7305551 4.30804675,10.9542283 C4.20384595,11.1778425 4.03552294,11.5052944 3.98342548,11.6171605 C3.91930327,11.7009864 3.84716065,11.8328054 3.92330761,11.9166312 C3.93934256,11.9206454 3.93933669,11.9446125 3.95537165,11.9446125 C4.05956657,11.9606102 4.34411512,11.7489205 4.69679022,11.297678 C5.10557299,10.7784893 5.34202254,10.2992654 5.34202254,10.2992654 C5.36206183,10.3032796 5.38610546,10.379136 5.37007638,10.4989715 C5.35003708,10.6427151 5.16167479,11.1738873 4.85308848,11.6371134 C4.5685458,12.0963844 4.30804675,12.3639186 4.26395796,12.4278505 C4.23991433,12.4717705 4.25594341,12.4996928 4.26796816,12.5236599 C4.28399725,12.5516412 4.60861851,13.094738 5.13763116,13.6178818 C5.76683439,14.2528918 6.08345286,14.4206025 6.08345286,14.4206025 C6.08345286,14.4206025 6.43210013,14.3966354 7.24964218,14.0571999 C7.97905362,13.7616844 8.52809382,13.3343499 8.55615939,13.2864157 C8.58023238,13.2664628 8.60829796,13.2424957 8.59221016,13.1865922 C8.56015199,13.1027073 8.36780297,12.723366 8.16741005,12.1362902 C7.98709752,11.561257 7.94300286,10.9581834 7.94699545,10.8024564 C7.96701713,10.6506844 8.01915569,10.6028093 8.04316996,10.5827973 C8.04316996,10.5827973 8.15543227,11.1698731 8.45599229,11.8168076 C8.72848674,12.415867 8.99698859,12.7553025 9.12927257,12.7752554 C9.14530166,12.7779118 9.16133074,12.7712412 9.17735983,12.7553025 C9.27752693,12.6913705 9.22943968,12.547627 9.20143281,12.4118528 C9.14929425,12.2960315 9.04912715,11.8807396 9.02505416,11.5812099 C9.00103989,11.2856944 8.96898172,11.014146 9.11723608,10.926247 C9.20542541,11.2577131 9.40981092,11.7688734 9.67831277,12.1602573 L9.69833445,12.1921938 C9.69833445,12.1921938 9.72640003,12.1682267 9.7464217,12.1722409 C9.77448728,12.1482738 10.6722335,11.0181012 11.0329172,9.68031216 C11.3975936,8.33048055 11.5258263,6.90880667 11.0128956,5.91839296 C10.7884297,5.48709738 10.3956877,5.29939842 10.02696,5.29939842 C9.91475645,5.29939842 9.79856026,5.32735609 9.70238575,5.35131729 C9.37376016,5.45514913 9.14130907,5.71072929 9.101207,5.99427303 C9.04108325,6.40561571 9.317629,6.49345571 9.317629,6.49345571 C9.317629,6.49345571 9.19738151,6.72509829 8.86077072,6.76500409 C8.79260308,6.78897119 8.72848674,6.78501603 8.68439207,6.78501603 C8.44794839,6.77698764 8.25160678,6.66919474 8.10329371,6.36169571 C7.97905362,6.05417306 8.06325035,5.45115264 8.07123554,5.25147603 C8.07927944,5.05179942 8.12331538,4.57258145 7.96302453,4.40085661 C7.80672628,4.20517648 7.61038467,4.16125058 7.349868,4.14527645 C7.26972257,4.14527645 7.24964218,4.14527645 7.2296205,4.14527645 Z"/></g></g></g><path stroke="color(display-p3 0.925 0.925 0.937)" stroke-width=".398" d="M12.8811007,0.209264627 C14.3953502,0.0519771895 15.6479087,1.35077022 15.4383563,2.84496522 L13.4836886,16.6910168 C13.285703,18.104131 11.8625199,19.008269 10.4883635,18.5916784 L1.40077649,15.8274339 L1.40020695,15.8274339 C0.647344907,15.5993923 0.160175217,14.892481 0.197817733,14.12394 L0.212152314,13.9694526 L1.81591217,2.66106203 L1.81591217,2.66048941 C1.92336576,1.89130499 2.54675625,1.29391035 3.32276359,1.21177287 L3.32218819,1.21120025 L12.8811007,0.209264627 Z"/><rect width="9.394" height="9.445" x="50.103" y="4.723" fill="color(display-p3 0.886 0.886 0.902)" fill-rule="nonzero" rx="1.789"/><polygon fill="color(display-p3 0.024 0.024 0.024)" fill-rule="nonzero" points="51.865 10 51.865 8.903 54.242 8.903 54.242 6.494 55.371 6.494 55.371 8.903 57.736 8.903 57.736 10 55.371 10 55.371 12.397 54.242 12.397 54.242 10"/></g><path fill="color(display-p3 0.024 0.024 0.024)" fill-rule="nonzero" d="M0 33.9090145 0 25.9741935 3.32237721 25.9741935C3.39925223 25.9741935 3.50113967 25.9769681 3.62617828 25.9825171 3.75121688 25.9880661 3.86514082 26.0001087 3.96795595 26.0185858 4.43477222 26.0925532 4.82008676 26.2469816 5.12111063 26.4846455 5.42305632 26.7213648 5.64627747 27.0191235 5.79169592 27.3769771 5.93710261 27.7348306 6.00938028 28.1343019 6.00938028 28.575391 6.00938028 29.016421 5.93528246 29.4168368 5.78891871 29.7765203 5.64164489 30.1362629 5.41750192 30.4349071 5.11555036 30.6716264 4.8135988 30.9083458 4.43106733 31.0637187 3.96795595 31.1376861 3.86514082 31.1525032 3.75029507 31.1636013 3.62340108 31.1709803 3.49650709 31.1783593 3.39647503 31.1820784 3.32237721 31.1820784L1.41249706 31.1820784 1.41249706 33.909959 0 33.909959 0 33.9090145ZM1.41342475 29.8588703 3.26217126 29.8588703C3.33534139 29.8588703 3.41870438 29.8551513 3.51039897 29.8477723 3.60209355 29.8403342 3.68730605 29.8255761 3.76418694 29.80338 3.97721524 29.7478897 4.14301352 29.6526116 4.26064234 29.5167193 4.37827117 29.3807681 4.46070646 29.2291142 4.50887004 29.0617577 4.55703363 28.8944013 4.58019066 28.7316493 4.58019066 28.5744464 4.58019066 28.4172435 4.55611181 28.2582106 4.50887004 28.0899097 4.46070646 27.9206642 4.37827117 27.7690103 4.26064234 27.6349481 4.14301352 27.5008858 3.97721524 27.4065523 3.76418694 27.3510619 3.68730605 27.3288658 3.60209355 27.3141077 3.51039897 27.3066697 3.41870438 27.2992906 3.33534139 27.2955716 3.26217126 27.2955716L1.41342475 27.2955716 1.41342475 29.8579258 1.41342475 29.8588703ZM8.33336275 34.0746C7.90269118 34.0746 7.53960011 33.9931945 7.24320882 33.8295571 6.94681754 33.6658606 6.72264521 33.4476774 6.56981111 33.1739448 6.41703573 32.9002123 6.34105904 32.599679 6.34105904 32.2732897 6.34105904 31.9903481 6.38644542 31.7350926 6.47627876 31.5076413 6.56611209 31.28019 6.70878856 31.0804248 6.90419074 30.9093493 7.09965163 30.7382739 7.35529499 30.5958881 7.67112081 30.4821329 7.90269118 30.405391 8.17500948 30.3351426 8.48807571 30.2731587 8.80114194 30.2112339 9.14755806 30.1520245 9.52820479 30.0965342 9.90891024 30.0410439 10.3201473 29.980949 10.7619159 29.9143606L10.248809 30.1954723C10.2525081 29.8135926 10.1654343 29.532481 9.98670708 29.3521964 9.80792113 29.1718529 9.50783083 29.0821829 9.0845573 29.0821829 8.84188987 29.0821829 8.59828301 29.1413332 8.35279728 29.2587484 8.10830969 29.3762226 7.93786122 29.5787032 7.84245 29.8644784L6.55131601 29.4566835C6.70227124 28.9610487 6.98574532 28.5596884 7.40162081 28.2527206 7.8174963 27.9456939 8.380628 27.79221 9.09007647 27.79221 9.61621797 27.79221 10.0821183 27.8754455 10.486838 28.0428019 10.8916164 28.2101584 11.1972846 28.4903255 11.4029032 28.8833623 11.5131105 29.0997155 11.5798102 29.3179577 11.6020044 29.5362 11.6242572 29.7544423 11.6353542 29.9985406 11.6353542 30.2667242L11.6353542 33.9090735 10.3933057 33.9090735 10.3933057 32.6523948 10.5868877 32.8835652C10.3071714 33.2987981 9.99316569 33.6011613 9.64586885 33.7897693 9.29851329 33.9793219 8.8613244 34.0736555 8.33524161 34.0736555L8.33336275 34.0746ZM8.62605501 32.9557026C8.91692712 32.9557026 9.16235414 32.9039313 9.36239477 32.8012742 9.56249412 32.6986171 9.72272625 32.5784274 9.84221046 32.4406461 9.96169466 32.3028648 10.0413117 32.1771261 10.0821183 32.063371 10.1552767 31.8978445 10.1987842 31.7073474 10.2117601 31.4900497 10.2247361 31.2736964 10.2311947 31.0952419 10.2311947 30.9555716L10.6563471 31.0767058C10.2293745 31.1432942 9.87556035 31.199729 9.59396514 31.2477813 9.31242865 31.2958926 9.07897941 31.3402848 8.89279542 31.3827881 8.70667015 31.4253503 8.54268028 31.4715726 8.39912309 31.5233439 8.24816786 31.5788342 8.12310577 31.6408181 8.02399553 31.7110664 7.92488529 31.7813739 7.84990675 31.8608903 7.80082135 31.9505603 7.75079651 32.0402893 7.72672353 32.1410574 7.72672353 32.2510935 7.72672353 32.3944239 7.76189357 32.5183326 7.83135294 32.6228197 7.90081231 32.7273068 8.00362157 32.8095977 8.13796057 32.8678626 8.27224085 32.9270719 8.43523257 32.9557026 8.62605501 32.9557026Z"/><polygon fill="color(display-p3 0.024 0.024 0.024)" fill-rule="nonzero" points="13.308 36.555 14.456 33.408 14.478 34.334 11.883 27.959 13.351 27.959 15.146 32.571 14.793 32.571 16.553 27.959 17.971 27.959 14.627 36.555"/><path fill="color(display-p3 0.024 0.024 0.024)" fill-rule="nonzero" d="M20.5994879,33.9090145 L20.5994879,25.9741935 L22.023082,25.9741935 L22.023082,29.7821284 L21.8517528,29.7821284 L21.8517528,33.9090145 L20.5985485,33.9090145 L20.5994879,33.9090145 Z M23.5022789,34.074541 C22.9168943,34.074541 22.426921,33.9367597 22.0314195,33.6611971 C21.635918,33.3856345 21.3385873,33.0111339 21.1404255,32.5367506 C20.9412656,32.0633119 20.8421553,31.5288339 20.8421553,30.9333755 C20.8421553,30.3378581 20.9403261,29.80338 21.1376072,29.3299413 C21.3340075,28.8565026 21.6257603,28.4810574 22.011985,28.2054948 C22.3982096,27.9299323 22.875207,27.792151 23.441157,27.792151 C24.0070483,27.792151 24.5007793,27.9281023 24.9203538,28.1999458 C25.3399283,28.4717893 25.6640916,28.8435155 25.8947225,29.3160687 C26.1244141,29.7885629 26.2392598,30.32676 26.2392598,30.9333755 C26.2392598,31.5399319 26.1253535,32.0633119 25.8974821,32.5367506 C25.6696695,33.0101893 25.3510254,33.3856345 24.9425479,33.6611971 C24.5340705,33.9367597 24.0543135,34.074541 23.5022789,34.074541 Z M23.2818643,32.8123132 C23.6161852,32.8123132 23.8913218,32.7291368 24.1070979,32.5617213 C24.3219934,32.3943648 24.4812861,32.1687435 24.5840953,31.8839129 C24.6869046,31.5991413 24.7388083,31.2829055 24.7388083,30.9333755 C24.7388083,30.5837864 24.6850844,30.2730997 24.5785761,29.9883281 C24.4720679,29.7034974 24.3071973,29.4769316 24.0849038,29.3077452 C23.8626103,29.1384997 23.5782556,29.0543787 23.2318394,29.0543787 C22.9039184,29.0543787 22.6390569,29.1320652 22.4371374,29.2883235 C22.2342784,29.4445819 22.0870222,29.6637687 21.9925504,29.9467103 C21.8989594,30.2296519 21.8517528,30.5579303 21.8517528,30.9333755 C21.8517528,31.3087616 21.8989594,31.631491 21.9925504,31.9144326 C22.0860828,32.1974332 22.2379775,32.4175055 22.4482344,32.5755939 C22.657552,32.7337413 22.9354481,32.8123132 23.2818643,32.8123132 Z"/><polygon fill="color(display-p3 0.024 0.024 0.024)" fill-rule="nonzero" points="27.66 36.555 28.808 33.408 28.83 34.334 26.236 27.959 27.704 27.959 29.498 32.571 29.145 32.571 30.906 27.959 32.324 27.959 28.979 36.555"/><path fill="color(display-p3 0.024 0.024 0.024)" fill-rule="nonzero" d="M34.9708249 33.9090145 34.9708249 25.9741935 38.1384775 25.9741935C38.6868131 25.9741935 39.135099 26.0842297 39.4824546 26.3052464 39.8298101 26.5253187 40.0863342 26.8046003 40.2521442 27.1430323 40.4179542 27.4814642 40.5003895 27.8263897 40.5003895 28.1786942 40.5003895 28.6197832 40.398461 28.9896203 40.1937819 29.2892681 39.9900423 29.5888568 39.7112066 29.7895074 39.3573925 29.89305L39.3518733 29.6174874C39.8520042 29.7238635 40.2290107 29.9559193 40.4837146 30.3147174 40.7374791 30.672571 40.8643613 31.0775913 40.8643613 31.5297784 40.8643613 31.9819655 40.7764069 32.4137864 40.5994998 32.7725845 40.4225927 33.1304381 40.1557936 33.4096606 39.7992198 33.6103703 39.4426461 33.811021 38.9989399 33.9108445 38.4691581 33.9108445L34.9698855 33.9108445 34.9708249 33.9090145ZM36.4055161 29.10432 38.1162833 29.10432C38.2968894 29.10432 38.4571216 29.0719113 38.5988586 29.0081564 38.7405369 28.9443426 38.8526231 28.84446 38.9359978 28.7103977 39.0184331 28.5762764 39.0600618 28.4079755 39.0600618 28.2064393 39.0600618 27.9456348 38.9785659 27.7292816 38.8146347 27.5563761 38.6507036 27.3834116 38.4181938 27.2974606 38.1162833 27.2974606L36.4055161 27.2974606 36.4055161 29.1052055 36.4055161 29.10432ZM36.4055161 32.5755939 38.3098654 32.5755939C38.5265809 32.5755939 38.720163 32.5303161 38.889672 32.4405871 39.059181 32.3509171 39.1925219 32.2242339 39.289812 32.0605374 39.3870434 31.8969 39.4361288 31.7036284 39.4361288 31.4788926 39.4361288 31.280131 39.393502 31.1025619 39.3092465 30.9444735 39.2249324 30.7863261 39.099929 30.6605874 38.934119 30.5671393 38.7683089 30.4737503 38.5663894 30.4266426 38.3265403 30.4266426L36.4055161 30.4266426 36.4055161 32.5755939ZM43.3224479 34.0746C42.8917764 34.0746 42.5286853 33.9931945 42.232294 33.8295571 41.9359027 33.6658606 41.7117304 33.4476774 41.558955 33.1739448 41.4061209 32.9002123 41.3301442 32.599679 41.3301442 32.2732897 41.3301442 31.9903481 41.3755306 31.7350926 41.4653639 31.5076413 41.5551973 31.28019 41.6978737 31.0804248 41.8932759 30.9093493 42.0887368 30.7382739 42.3443802 30.5958881 42.660206 30.4821329 42.8917764 30.405391 43.1640947 30.3351426 43.4771609 30.2731587 43.7902271 30.2112339 44.1365845 30.1520245 44.51729 30.0965342 44.8979954 30.0410439 45.3092325 29.980949 45.7510011 29.9143606L45.2378942 30.1954723C45.2415932 29.8135926 45.1545195 29.532481 44.9757923 29.3521964 44.7970063 29.1718529 44.496916 29.0821829 44.0736425 29.0821829 43.8309751 29.0821829 43.5873682 29.1413332 43.3419412 29.2587484 43.0973949 29.3762226 42.9269464 29.5787032 42.8315352 29.8644784L41.5404012 29.4566835C41.6913564 28.9610487 41.9747718 28.5596884 42.3906473 28.2527206 42.8065228 27.9456939 43.3697132 27.79221 44.0791617 27.79221 44.6053032 27.79221 45.0712035 27.8754455 45.4759232 28.0428019 45.8807016 28.2101584 46.1863698 28.4903255 46.3919883 28.8833623 46.5021956 29.0997155 46.5688954 29.3179577 46.5910895 29.5362 46.6133424 29.7544423 46.6244394 29.9985406 46.6244394 30.2667242L46.6244394 33.9090735 45.3823908 33.9090735 45.3823908 32.6523948 45.5759729 32.8835652C45.2962565 33.2987981 44.9822509 33.6011613 44.6348953 33.7897693 44.2875985 33.9793219 43.8504096 34.0736555 43.3243268 34.0736555L43.3224479 34.0746ZM43.6151402 32.9557026C43.9059536 32.9557026 44.1514393 32.9039313 44.35148 32.8012742 44.5515793 32.6986171 44.7118114 32.5784274 44.8312956 32.4406461 44.9507798 32.3028648 45.0303968 32.1771261 45.0712035 32.063371 45.1443619 31.8978445 45.1878694 31.7073474 45.2008453 31.4900497 45.2138212 31.2736964 45.2202798 31.0952419 45.2202798 30.9555716L45.6454322 31.0767058C45.2184597 31.1432942 44.8646455 31.199729 44.5830503 31.2477813 44.3014551 31.2958926 44.0680646 31.3402848 43.8818806 31.3827881 43.6957553 31.4253503 43.5317655 31.4715726 43.3882083 31.5233439 43.2372531 31.5788342 43.112191 31.6408181 43.0130807 31.7110664 42.9139705 31.7813739 42.8389919 31.8608903 42.7899065 31.9505603 42.7398817 32.0402893 42.7158087 32.1410574 42.7158087 32.2510935 42.7158087 32.3944239 42.7509788 32.5183326 42.8204381 32.6228197 42.8898975 32.7273068 42.9927068 32.8095977 43.1270458 32.8678626 43.261326 32.9270719 43.4243178 32.9557026 43.6151402 32.9557026ZM47.7526404 33.9090145 47.7526404 27.9586219 49.0169418 27.9586219 49.0169418 29.8708539 49.188271 29.8708539 49.188271 33.909959 47.7535211 33.909959 47.7526404 33.9090145ZM51.853033 33.9090145 51.853033 31.0710977C51.853033 30.9092903 51.8428167 30.7197377 51.8224427 30.50061 51.8020687 30.2823677 51.7502237 30.0659555 51.6650289 29.8533213 51.5807147 29.6406281 51.4482546 29.4640035 51.2676485 29.3243923 51.0870424 29.1847219 50.8369769 29.1154181 50.5173934 29.1154181 50.3701371 29.1154181 50.2182425 29.1394442 50.0617094 29.186611 49.9051763 29.2346632 49.7616191 29.3206732 49.6310378 29.4455264 49.5003978 29.5703206 49.3938895 29.7478897 49.3105148 29.97723 49.2280795 30.2065113 49.1864509 30.5052145 49.1864509 30.8723361L48.3639181 30.4978355C48.3639181 30.0095797 48.4602687 29.5592226 48.6538508 29.1477677 48.8474328 28.7362539 49.1354866 28.40709 49.5207718 28.1583281 49.9051763 27.9105106 50.3831131 27.7866019 50.9527621 27.7866019 51.4056865 27.7866019 51.7779958 27.8615139 52.070688 28.0122232 52.3633803 28.1629326 52.5921324 28.3562042 52.7579424 28.5938681 52.9237524 28.8305874 53.044176 29.0784048 53.1192133 29.3373203 53.1941918 29.5962358 53.2423965 29.8375597 53.2627705 30.0622955 53.2831444 30.2860868 53.2933021 30.4571032 53.2933021 30.5745774L53.2933021 33.90807 51.853033 33.90807 51.853033 33.9090145Z"/><polygon fill="color(display-p3 0.024 0.024 0.024)" fill-rule="nonzero" points="54.414 33.909 54.425 25.974 55.86 25.974 55.86 30.823 57.963 27.958 59.718 27.958 57.488 30.933 59.889 33.909 58.029 33.909 55.86 31.043 55.86 33.909"/></g></svg>