<svg xmlns="http://www.w3.org/2000/svg" xmlns:xlink="http://www.w3.org/1999/xlink" width="72" height="20" xml:space="preserve" overflow="hidden"><g transform="translate(-257 -32)"><path d="M283.832 36.6555 279.862 36.6555C279.59 36.6551 279.359 36.8523 279.316 37.1205L277.71 47.3035C277.681 47.4835 277.804 47.6527 277.984 47.6814 278.001 47.6842 278.019 47.6856 278.037 47.6855L279.933 47.6855C280.205 47.6854 280.436 47.4877 280.478 47.2195L280.912 44.4735C280.953 44.205 281.184 44.0068 281.456 44.0065L282.713 44.0065C285.329 44.0065 286.839 42.7415 287.233 40.2325 287.411 39.1355 287.241 38.2725 286.727 37.6695 286.162 37.0055 285.161 36.6555 283.832 36.6555ZM284.29 40.3745C284.073 41.7995 282.984 41.7995 281.932 41.7995L281.332 41.7995 281.752 39.1385C281.777 38.9768 281.916 38.8576 282.08 38.8585L282.354 38.8585C283.072 38.8585 283.748 38.8585 284.098 39.2685 284.306 39.5115 284.37 39.8735 284.29 40.3745ZM295.702 40.3285 293.801 40.3285C293.638 40.3285 293.499 40.4473 293.474 40.6085L293.39 41.1395 293.257 40.9465C292.845 40.3495 291.927 40.1495 291.011 40.1495 288.909 40.1495 287.115 41.7415 286.765 43.9735 286.583 45.0875 286.842 46.1525 287.473 46.8945 288.053 47.5775 288.883 47.8625 289.869 47.8625 291.562 47.8625 292.501 46.7735 292.501 46.7735L292.416 47.3015C292.386 47.4813 292.508 47.6512 292.688 47.6811 292.706 47.684 292.724 47.6855 292.742 47.6855L294.455 47.6855C294.727 47.6853 294.958 47.4871 295 47.2185L296.028 40.7105C296.057 40.5305 295.934 40.3613 295.754 40.3326 295.737 40.3299 295.719 40.3285 295.702 40.3285ZM293.052 44.0295C292.868 45.1155 292.006 45.8455 290.906 45.8455 290.354 45.8455 289.913 45.6685 289.629 45.3325 289.349 44.9995 289.241 44.5245 289.331 43.9965 289.502 42.9195 290.379 42.1665 291.461 42.1665 292.001 42.1665 292.441 42.3465 292.73 42.6845 293.02 43.0265 293.135 43.5035 293.052 44.0295ZM305.83 40.3285 303.919 40.3285C303.736 40.3288 303.565 40.4193 303.462 40.5705L300.827 44.4525 299.709 40.7225C299.639 40.4885 299.423 40.3283 299.179 40.3285L297.302 40.3285C297.119 40.3281 296.971 40.4759 296.97 40.6587 296.97 40.6954 296.976 40.7318 296.988 40.7665L299.093 46.9435 297.113 49.7365C297.006 49.8843 297.04 50.0906 297.188 50.1972 297.245 50.2382 297.313 50.26 297.383 50.2595L299.293 50.2595C299.474 50.2597 299.643 50.1711 299.746 50.0225L306.102 40.8485C306.207 40.6995 306.171 40.4936 306.022 40.3887 305.966 40.3491 305.899 40.328 305.83 40.3285Z" fill="#253B80"/><path d="M312.157 36.6555 308.185 36.6555C307.914 36.6555 307.683 36.8527 307.64 37.1205L306.034 47.3035C306.005 47.4835 306.128 47.6527 306.308 47.6814 306.325 47.6842 306.343 47.6856 306.361 47.6855L308.399 47.6855C308.588 47.6855 308.75 47.5475 308.779 47.3595L309.235 44.4735C309.276 44.2046 309.508 44.0063 309.78 44.0065L311.037 44.0065C313.653 44.0065 315.162 42.7415 315.557 40.2325 315.735 39.1355 315.564 38.2725 315.05 37.6695 314.486 37.0055 313.486 36.6555 312.157 36.6555ZM312.615 40.3745C312.398 41.7995 311.309 41.7995 310.256 41.7995L309.658 41.7995 310.078 39.1385C310.103 38.9771 310.242 38.8581 310.405 38.8585L310.679 38.8585C311.396 38.8585 312.073 38.8585 312.423 39.2685 312.631 39.5115 312.694 39.8735 312.615 40.3745ZM324.026 40.3285 322.126 40.3285C321.963 40.3281 321.824 40.4471 321.799 40.6085L321.715 41.1395 321.582 40.9465C321.17 40.3495 320.252 40.1495 319.336 40.1495 317.235 40.1495 315.441 41.7415 315.091 43.9735 314.911 45.0875 315.167 46.1525 315.799 46.8945 316.379 47.5775 317.208 47.8625 318.194 47.8625 319.887 47.8625 320.826 46.7735 320.826 46.7735L320.741 47.3015C320.712 47.4819 320.834 47.652 321.015 47.6812 321.033 47.6841 321.051 47.6856 321.069 47.6855L322.781 47.6855C323.053 47.6853 323.284 47.4871 323.326 47.2185L324.354 40.7105C324.382 40.5292 324.257 40.3599 324.076 40.3323 324.059 40.3298 324.043 40.3285 324.026 40.3285ZM321.376 44.0295C321.193 45.1155 320.33 45.8455 319.23 45.8455 318.679 45.8455 318.237 45.6685 317.953 45.3325 317.673 44.9995 317.567 44.5245 317.655 43.9965 317.827 42.9195 318.703 42.1665 319.785 42.1665 320.325 42.1665 320.765 42.3465 321.054 42.6845 321.344 43.0265 321.46 43.5035 321.376 44.0295ZM326.268 36.9345 324.638 47.3045C324.61 47.4846 324.733 47.6534 324.913 47.6815 324.93 47.6842 324.948 47.6856 324.965 47.6855L326.603 47.6855C326.875 47.6862 327.106 47.4882 327.148 47.2195L328.756 37.0375C328.785 36.8576 328.663 36.6881 328.483 36.6588 328.465 36.6559 328.447 36.6544 328.429 36.6545L326.594 36.6545C326.431 36.6554 326.293 36.7739 326.268 36.9345Z" fill="#179BD7"/><path d="M261.219 49.6645 261.523 47.7365 260.846 47.7215 257.616 47.7215 259.861 33.4865C259.874 33.3965 259.952 33.33 260.043 33.3305L265.49 33.3305C267.298 33.3305 268.546 33.7075 269.197 34.4505 269.502 34.7985 269.697 35.1625 269.791 35.5635 269.89 35.9835 269.891 36.4855 269.795 37.0985L269.788 37.1435 269.788 37.5355 270.094 37.7085C270.351 37.8455 270.555 38.0015 270.712 38.1805 270.973 38.4775 271.142 38.8565 271.214 39.3055 271.287 39.7665 271.263 40.3155 271.142 40.9385 271.002 41.6535 270.778 42.2765 270.473 42.7865 270.193 43.2565 269.837 43.6465 269.413 43.9475 268.981 44.2477 268.497 44.466 267.986 44.5915 267.403 44.7351 266.804 44.8044 266.203 44.7975L265.779 44.7975C265.476 44.7975 265.181 44.9075 264.95 45.1025 264.719 45.3025 264.565 45.5755 264.518 45.8735L264.486 46.0475 263.95 49.4475 263.925 49.5715C263.919 49.6115 263.908 49.6315 263.892 49.6445 263.876 49.6573 263.856 49.6644 263.836 49.6645L261.219 49.6645Z" fill="#253B80"/><path d="M270.383 37.1885C270.366 37.2925 270.348 37.3985 270.327 37.5085 269.609 41.1955 267.151 42.4685 264.013 42.4685L262.415 42.4685C262.032 42.4685 261.706 42.7479 261.648 43.1265L260.83 48.3165 260.598 49.7865C260.563 50.0096 260.715 50.2191 260.938 50.2545 260.959 50.2578 260.981 50.2595 261.002 50.2595L263.836 50.2595C264.172 50.2595 264.456 50.0155 264.509 49.6845L264.537 49.5405 265.071 46.1545 265.105 45.9685C265.157 45.6367 265.443 45.3924 265.779 45.3925L266.203 45.3925C268.949 45.3925 271.098 44.2775 271.726 41.0525 271.989 39.7045 271.853 38.5785 271.158 37.7875 270.938 37.5428 270.675 37.3401 270.383 37.1895Z" fill="#179BD7"/><path d="M269.631 36.8885C269.402 36.8222 269.169 36.7704 268.933 36.7335 268.467 36.6618 267.996 36.6273 267.524 36.6305L263.255 36.6305C262.919 36.6292 262.633 36.8742 262.582 37.2065L261.674 42.9585 261.648 43.1265C261.707 42.7483 262.032 42.4694 262.415 42.4695L264.013 42.4695C267.151 42.4695 269.609 41.1945 270.327 37.5075 270.348 37.3985 270.367 37.2925 270.383 37.1875 270.144 37.0616 269.892 36.9613 269.631 36.8885Z" fill="#222D65"/><path d="M262.582 37.2065C262.633 36.8748 262.919 36.6305 263.255 36.6315L267.525 36.6315C268.03 36.6315 268.502 36.6645 268.933 36.7345 269.225 36.7803 269.512 36.8489 269.793 36.9395 270.005 37.0095 270.202 37.0925 270.383 37.1885 270.597 35.8255 270.382 34.8985 269.645 34.0575 268.832 33.1325 267.366 32.7365 265.49 32.7365L260.044 32.7365C259.66 32.7359 259.333 33.0153 259.274 33.3945L257.006 47.7745C256.966 48.0299 257.141 48.2692 257.396 48.3089 257.42 48.3126 257.443 48.3144 257.467 48.3145L260.83 48.3145 261.674 42.9585 262.582 37.2065Z" fill="#253B80"/></g></svg>