<svg xmlns="http://www.w3.org/2000/svg" xmlns:xlink="http://www.w3.org/1999/xlink" width="106" height="21" xml:space="preserve" overflow="hidden"><defs><clipPath id="clip0"><rect x="155" y="82" width="106" height="21"/></clipPath></defs><g clip-path="url(#clip0)" transform="translate(-155 -82)"><path d="M104.735 17.607 104.735 21.076 100.716 21.076C99.532 21.076 98.601 22.006 98.601 23.191L98.601 28.394C98.601 29.578 99.531 30.509 100.716 30.509L103.677 30.509C104.862 30.509 105.792 29.579 105.792 28.394L105.792 17.607 104.735 17.607ZM103.465 29.451 100.928 29.451C100.208 29.451 99.658 28.901 99.658 28.182L99.658 23.402C99.658 22.683 100.208 22.133 100.928 22.133L104.735 22.133 104.735 28.183C104.735 28.902 104.143 29.451 103.465 29.451ZM73.221 25.221 73.221 23.191C73.221 22.007 72.291 21.076 71.106 21.076L67.722 21.076C66.538 21.076 65.607 22.006 65.607 23.191L65.607 28.394C65.607 29.578 66.537 30.509 67.722 30.509L73.222 30.509 73.222 28.055 68.568 28.055C68.2214 28.0466 67.9424 27.7676 67.934 27.421L67.934 27.294 73.221 25.221ZM68.526 23.529 70.345 23.529C70.599 23.529 70.81 23.699 70.895 23.91L67.976 25.052 67.976 24.079C67.934 23.826 68.188 23.529 68.526 23.529ZM83.67 21.076 83.67 22.133 88.703 22.133C89.423 22.133 89.973 22.683 89.973 23.403L89.973 24.249 85.784 24.249C84.6 24.249 83.669 25.179 83.669 26.364L83.669 28.394C83.669 29.578 84.6 30.509 85.784 30.509L88.914 30.509C90.099 30.509 91.03 29.579 91.03 28.394L91.03 23.19C91.03 22.006 90.099 21.075 88.915 21.075L83.669 21.075ZM88.703 29.451 85.996 29.451C85.276 29.451 84.726 28.901 84.726 28.182L84.726 26.575C84.726 25.855 85.276 25.306 85.996 25.306L89.972 25.306 89.972 28.182C89.972 28.902 89.38 29.452 88.703 29.452ZM76.648 28.182 76.648 23.402C76.648 22.683 77.198 22.133 77.917 22.133L81.258 22.133 81.258 21.076 77.705 21.076C76.521 21.076 75.59 22.006 75.59 23.191L75.59 28.394C75.59 29.578 76.52 30.509 77.705 30.509L81.258 30.509 81.258 29.45 77.917 29.45C77.24 29.45 76.647 28.9 76.647 28.181ZM19.247 21.076 15.863 21.076C14.678 21.076 13.748 22.006 13.748 23.191L13.748 33.977 16.074 33.977 16.074 30.51 19.246 30.51C20.431 30.51 21.362 29.58 21.362 28.395L21.362 23.19C21.362 22.048 20.431 21.075 19.247 21.075ZM19.035 27.506C19.035 27.802 18.781 28.098 18.485 28.098L16.666 28.098C16.3419 28.0911 16.0809 27.8301 16.074 27.506L16.074 24.122C16.074 23.826 16.328 23.529 16.666 23.529L18.486 23.529C18.781 23.529 19.035 23.783 19.035 24.122L19.035 27.506ZM7.783 30.509 2.115 30.509C0.958574 30.5207 0.0116567 29.5926 9.53674e-09 28.4362-0.000141821 28.4221-0.000141821 28.4081 9.53674e-09 28.394L0 23.19C0 22.006 0.93 21.075 2.115 21.075L7.783 21.075C8.968 21.075 9.898 22.005 9.898 23.19L9.898 28.393C9.898 29.577 8.968 30.508 7.783 30.508ZM23.265 21.076 23.265 23.529 28.003 23.529C28.3045 23.5343 28.5477 23.7775 28.553 24.079L28.553 24.249 25.38 24.249C24.196 24.249 23.265 25.179 23.265 26.364L23.265 28.394C23.265 29.578 24.195 30.509 25.38 30.509L28.764 30.509C29.948 30.509 30.879 29.579 30.879 28.394L30.879 23.19C30.879 22.006 29.949 21.075 28.764 21.075L23.265 21.075ZM28.552 27.506C28.552 27.802 28.299 28.098 28.002 28.098L26.184 28.098C25.8599 28.0911 25.5989 27.8301 25.592 27.506L25.592 26.956C25.5973 26.6545 25.8405 26.4113 26.142 26.406L27.96 26.406C28.256 26.406 28.51 26.66 28.51 26.998L28.51 27.506ZM49.195 23.53 49.195 21.076 44.203 21.076C43.019 21.076 42.088 22.006 42.088 23.191L42.088 24.798C42.088 25.983 43.019 26.913 44.203 26.913L46.276 26.913C46.572 26.913 46.868 27.167 46.868 27.506 46.8611 27.8301 46.6001 28.0911 46.276 28.098L42.088 28.098 42.088 30.551 47.08 30.551C48.264 30.551 49.195 29.621 49.195 28.436L49.195 26.83C49.195 25.645 48.265 24.715 47.08 24.715L44.965 24.715C44.6409 24.7081 44.3799 24.4471 44.373 24.123 44.373 23.826 44.626 23.53 44.965 23.53L49.195 23.53ZM37.985 21.076 37.985 27.463C37.985 27.759 37.732 28.055 37.435 28.055L35.617 28.055C35.321 28.055 35.067 27.802 35.067 27.463L35.067 21.076 32.74 21.076 32.74 28.394C32.74 29.578 33.67 30.509 34.855 30.509L38.028 30.509 38.028 31.101C38.0227 31.4025 37.7795 31.6457 37.478 31.651L32.698 31.651 32.698 33.977 38.197 33.977C39.381 33.977 40.312 33.047 40.312 31.863L40.312 21.075 37.985 21.075Z" fill="#164194" transform="matrix(1 0 0 1.01339 155 66.4916)"/><path d="M4.95 16C2.368 16 0.253 18.073 0.253 20.653 0.253 20.823 0.253 20.949 0.295 21.118 0.639468 20.8225 1.0694 20.6448 1.522 20.611 1.78981 18.9273 3.24318 17.689 4.948 17.692 6.65282 17.689 8.10619 18.9273 8.374 20.611 8.84 20.653 9.263 20.822 9.601 21.118 9.601 20.949 9.643 20.822 9.643 20.653 9.644 18.073 7.53 16 4.95 16ZM50.802 21.118 50.802 23.529 55.498 23.529C55.836 23.529 56.09 23.783 56.09 24.122L56.09 24.248 52.96 24.248C51.7933 24.2513 50.8483 25.1963 50.845 26.363L50.845 28.352C50.845 29.536 51.817 30.467 52.96 30.467L56.3 30.467C57.4667 30.4637 58.4117 29.5187 58.415 28.352L58.415 23.233C58.4117 22.0663 57.4667 21.1213 56.3 21.118L50.801 21.118C50.844 21.076 50.801 21.118 50.801 21.118ZM56.09 27.506C56.0831 27.8301 55.8221 28.0911 55.498 28.098L53.72 28.098C53.4009 28.1058 53.1358 27.8535 53.128 27.5343 53.1278 27.5249 53.1278 27.5154 53.128 27.506L53.128 26.998C53.128 26.66 53.382 26.406 53.72 26.406L55.497 26.406C55.835 26.406 56.089 26.66 56.089 26.998L56.089 27.506ZM63.154 19.934 64.296 19.934 64.296 17.607 62.393 17.607C61.208 17.607 60.278 18.538 60.278 19.722L60.278 30.51 62.604 30.51 62.604 23.53 64.296 23.53 64.296 21.077 62.604 21.077 62.604 20.485C62.604 20.231 62.858 19.935 63.154 19.935ZM93.906 23.191 93.906 30.509 94.963 30.509 94.963 23.402C94.963 22.683 95.513 22.133 96.233 22.133L96.613 22.133 96.613 21.076 96.021 21.076C94.8543 21.0793 93.9093 22.0243 93.906 23.191Z" fill="#164194" transform="matrix(1 0 0 1.01339 155 66.4916)"/></g></svg>