<svg xmlns="http://www.w3.org/2000/svg" xmlns:xlink="http://www.w3.org/1999/xlink" width="73" height="17" xml:space="preserve" overflow="hidden"><defs><clipPath id="clip0"><rect x="328" y="106" width="73" height="17"/></clipPath></defs><g clip-path="url(#clip0)" transform="translate(-328 -106)"><path d="M64.0538 11.1953 65.7647 17.6439 67.6859 11.1953 70.2861 11.1953 66.6968 22.8998 64.0538 22.8998 64.6001 21.3513 64.6001 21.3513 64.8458 20.6395 64.8458 20.6395 64.9947 20.1932 64.9947 20.1932 65.0637 19.9736 65.0637 19.9736 65.0848 19.8991 65.0848 19.8991 65.0947 19.8583C65.097 19.8475 65.0982 19.8394 65.0984 19.8341L65.098 19.8283 63.8104 19.8283 61.4228 11.1953 64.0538 11.1953ZM47.5054 11.0123C49.4996 11.0123 50.6841 12.4193 50.8301 13.4805L50.837 13.537 48.7708 14.0007C48.332 13.0999 47.6276 12.8941 47.0679 13.0004L46.989 13.0176 46.989 13.0176 46.9123 13.0389C46.8494 13.0582 46.7891 13.0814 46.7321 13.1079L46.6653 13.1412C46.6219 13.1644 46.5808 13.1895 46.5423 13.2162L46.4866 13.2575C46.4777 13.2645 46.4689 13.2717 46.4603 13.2789L46.4111 13.3232C46.1527 13.5721 46.1043 13.9012 46.4648 14.1248L46.4865 14.1352 46.4865 14.1352 46.5378 14.1568 46.5378 14.1568 46.5996 14.1798 46.5996 14.1798 46.7124 14.2167 46.7124 14.2167 46.8011 14.243 46.8011 14.243 46.9009 14.2708 46.9009 14.2708 47.1338 14.3308 47.1338 14.3308 47.4123 14.3971 47.4123 14.3971 47.7373 14.4702 47.7373 14.4702 48.4211 14.6154 48.4211 14.6154 49.0017 14.7335 49.0017 14.7335C49.9934 14.9469 50.9866 15.8259 50.9866 17.3424 50.9866 19.1553 48.9648 20.0594 47.4947 20.0594 45.6467 20.0108 44.6953 19.371 44.2113 18.7119L44.1508 18.6258C44.1026 18.5541 44.0596 18.4825 44.0214 18.4117L43.9778 18.3271C43.9708 18.3131 43.9641 18.2991 43.9576 18.2852L43.9204 18.2023 43.9204 18.2023 43.8873 18.1209 43.8873 18.1209 43.8579 18.0412C43.8533 18.0281 43.8489 18.015 43.8446 18.0021L43.8206 17.9256 43.8206 17.9256 43.7999 17.8515 43.7999 17.8515 43.7823 17.7802 43.7823 17.7802 43.7675 17.712 43.7675 17.712 43.7554 17.647 43.7554 17.647 43.7458 17.5856 43.7458 17.5856 43.7354 17.5009 43.7354 17.5009 43.7293 17.4258 43.7293 17.4258 43.7269 17.3614 43.7269 17.3614 43.7267 17.3424 45.7518 16.9363C45.9325 17.6268 46.4072 18.0035 47.1757 18.0665L47.2592 18.0721C48.5037 18.1765 48.8256 17.301 48.4036 16.991L48.3102 16.9395 48.3102 16.9395 48.2419 16.906 48.2419 16.906 48.1832 16.8803 48.1832 16.8803 48.0906 16.8446 48.0906 16.8446 47.9759 16.806 47.9759 16.806 47.872 16.7745 47.872 16.7745 47.75 16.7401 47.75 16.7401 47.4996 16.6751 47.4996 16.6751 47.1807 16.5986 47.1807 16.5986 46.7817 16.5081 46.7817 16.5081 46.4991 16.4461 46.4991 16.4461C44.7147 16.0333 44.1297 15.3505 43.938 14.7388L43.9151 14.6594C43.9117 14.6463 43.9084 14.6332 43.9053 14.6201L43.8884 14.5423C43.8858 14.5294 43.8835 14.5166 43.8812 14.5038L43.8694 14.4279 43.8694 14.4279 43.8604 14.3534 43.8604 14.3534 43.8515 14.2449 43.8515 14.2449 43.8467 14.1407 43.8467 14.1407 43.8447 14.0093 43.8447 14.0093 43.8446 13.9172C43.8548 11.9407 45.4757 11.0123 47.5054 11.0123ZM34.8413 11.1953 37.3964 11.1953 37.3971 15.9103 37.3971 15.9103 37.4 16.0447 37.4 16.0447 37.4038 16.1386 37.4038 16.1386 37.4134 16.2843 37.4134 16.2843 37.4228 16.3839C37.43 16.4508 37.4391 16.5185 37.4507 16.5864L37.4699 16.6881C37.5972 17.2976 37.9424 17.8828 38.8753 17.8828 39.7567 17.8828 40.0932 17.315 40.2217 16.7367L40.2423 16.6346C40.2454 16.6176 40.2483 16.6007 40.2511 16.5837L40.2659 16.4826 40.2659 16.4826 40.2775 16.383 40.2775 16.383 40.2862 16.2856 40.2862 16.2856 40.2925 16.191 40.2925 16.191 40.2981 16.0559 40.2981 16.0559 40.301 15.8546 40.301 15.8546 40.301 11.1965 42.8299 11.1965 42.8299 19.8049 40.5202 19.8211 40.5202 19.1036C40.1294 19.4536 39.7517 19.6928 39.3871 19.8211 39.0225 19.9495 38.5952 20.0136 38.1051 20.0136 36.6934 20.0136 35.7425 19.5061 35.2525 18.4911 34.9903 17.9554 34.8534 17.1769 34.842 16.1555L34.8413 16.0147 34.8413 11.1953ZM55.2759 8.51515 55.2759 11.2366 56.999 11.2366 56.999 13.3711 55.2759 13.3711 55.2759 16.6205 55.2737 16.7756 55.2737 16.7756 55.275 16.8711C55.2754 16.8865 55.2759 16.9016 55.2765 16.9165L55.2817 17.0028C55.2861 17.0583 55.2926 17.1099 55.3016 17.1579L55.317 17.227C55.3953 17.5258 55.5989 17.6618 56.0725 17.7088L56.1822 17.7179C56.2013 17.7191 56.2207 17.7203 56.2406 17.7213L56.3643 17.7263 56.3643 17.7263 56.4978 17.7287C56.5209 17.7289 56.5444 17.7291 56.5684 17.7291L56.7172 17.7282 56.7172 17.7282 56.8767 17.7252 56.8767 17.7252 57.0472 17.7204C57.0765 17.7195 57.1064 17.7185 57.1367 17.7174L57.1043 19.7922 57.1043 19.7922 57.1042 19.8465 56.8479 19.8663 56.8479 19.8663 56.6044 19.8827 56.6044 19.8827 56.3732 19.8958 56.3732 19.8958 56.154 19.9058 56.154 19.9058 55.9464 19.9128 55.9464 19.9128 55.7499 19.9167 55.7499 19.9167 55.5643 19.9178 55.5643 19.9178 55.389 19.9161C55.3607 19.9156 55.3328 19.915 55.3052 19.9143L55.145 19.9087 55.145 19.9087 54.9942 19.9005C54.9698 19.8989 54.9458 19.8973 54.9222 19.8955L54.7849 19.8837 54.7849 19.8837 54.6561 19.8697 54.6561 19.8697 54.5355 19.8535 54.5355 19.8535 54.4226 19.8352C54.3863 19.8288 54.3511 19.822 54.3172 19.815L54.2187 19.7928C54.187 19.7851 54.1564 19.7772 54.1268 19.7689L54.0412 19.7433C54.0275 19.7389 54.0139 19.7344 54.0007 19.7299L53.9237 19.702 53.9237 19.702 53.852 19.6726 53.852 19.6726 53.7853 19.6419 53.7853 19.6419 53.723 19.6099C53.713 19.6045 53.7032 19.599 53.6935 19.5935L53.6373 19.5599 53.6373 19.5599 53.5848 19.5253 53.5848 19.5253 53.5354 19.4898 53.5354 19.4898 53.4888 19.4536 53.4888 19.4536 53.4446 19.4166 53.4446 19.4166 53.3821 19.36 53.3821 19.36 53.323 19.3025 53.2565 19.2345 53.2565 19.2345 53.2283 19.2053C52.9647 18.9362 52.8252 18.5303 52.8097 17.9874L52.8083 17.884 52.8083 13.3711 51.4552 13.3711 51.4552 11.2366 52.8083 11.2366 52.8083 8.51515 55.2759 8.51515ZM29.3023 8.03899 29.3023 10.3802 26.0497 10.3802 26.0497 19.8587 23.3371 19.8587 23.3371 10.3802 19.964 10.3802 19.964 8.03899 29.3023 8.03899ZM31.2031 12.4956C31.4309 11.6661 32.12 11.3528 32.7573 11.2461L32.8798 11.2279 32.8798 11.2279 33.0003 11.2144C33.0201 11.2125 33.0399 11.2108 33.0594 11.2092L33.1751 11.2017C33.1941 11.2008 33.2129 11.2 33.2315 11.1993L33.3406 11.1968 33.3406 11.1968 33.4443 11.1969 33.4443 11.1969 33.5417 11.1992 33.5417 11.1992 33.6743 11.2056 33.6743 11.2056 33.8214 11.217 33.8214 11.217 33.9966 11.2353 33.9966 13.663 33.9112 13.6553 33.9112 13.6553 33.837 13.6506 33.837 13.6506 33.7447 13.647 33.7447 13.647 33.6364 13.6457 33.6364 13.6457 33.5564 13.6468 33.5564 13.6468 33.4707 13.6499 33.4707 13.6499 33.3802 13.6553 33.3802 13.6553 33.2853 13.6635 33.2853 13.6635 33.1867 13.6747 33.1867 13.6747 33.0851 13.6895 33.0851 13.6895 32.981 13.7081C32.9459 13.715 32.9106 13.7226 32.8751 13.7309L32.768 13.7584C32.0872 13.9476 31.3721 14.4365 31.3358 15.6534L31.3344 15.751 31.3344 19.8587 28.8231 19.8587 28.8231 11.2648 31.2031 11.2648 31.2031 12.4956ZM60.7302 8.0327 60.7302 19.8587 58.3084 19.8587 58.3084 8.0327 60.7302 8.0327ZM15.7008 8.0327 15.7008 13.2394 10.8574 13.2394 10.8574 19.8184 5.44886 19.8184 5.44886 17.5581 9.73674 13.2239 5.50862 8.98436 5.50862 13.2394-9.98826e-14 13.2394-9.98826e-14 8.0327 15.7008 8.0327Z" fill="#07E16B" fill-rule="evenodd" transform="matrix(1.00976 0 0 1 328 99.0932)"/></g></svg>