<svg xmlns="http://www.w3.org/2000/svg" width="550" height="160" viewBox="0 0 550 160" fill="none">
<rect width="550" height="160" fill="#fc6200"/>
<g transform="translate(30, 14)">
<path fill-rule="evenodd" clip-rule="evenodd" d="M111.419 56.5308C128.352 56.5308 142.838 70.1468 142.838 87.8792C142.838 105.612 128.351 119.229 111.419 119.229C94.4868 119.229 80 105.717 80 87.8792C80 70.0428 94.4857 56.5308 111.419 56.5308ZM111.576 75.3839C118.361 75.3839 124.165 80.8049 124.165 87.8792C124.165 94.9545 118.361 100.387 111.576 100.387C104.792 100.387 98.9876 94.9965 98.9876 87.8792C98.9876 80.7629 104.792 75.3839 111.576 75.3839V75.3839Z" fill="white" fill-opacity="0.9"/>
<path fill-rule="evenodd" clip-rule="evenodd" d="M174.541 56.5308C191.474 56.5308 205.96 70.1468 205.96 87.8792C205.96 105.612 191.473 119.229 174.541 119.229C157.609 119.229 143.122 105.717 143.122 87.8792C143.122 70.0428 157.608 56.5308 174.541 56.5308ZM174.699 75.3839C181.483 75.3839 187.287 80.8049 187.287 87.8792C187.287 94.9545 181.483 100.387 174.699 100.387C167.914 100.387 162.11 94.9965 162.11 87.8792C162.11 80.7629 167.914 75.3839 174.699 75.3839V75.3839Z" fill="white" fill-opacity="0.9"/>
<path fill-rule="evenodd" clip-rule="evenodd" d="M237.649 56.5308C254.581 56.5308 269.068 70.1468 269.068 87.8792C269.068 105.612 254.581 119.229 237.649 119.229C220.716 119.229 206.23 105.717 206.23 87.8792C206.23 70.0428 220.716 56.5308 237.649 56.5308ZM237.806 75.3839C244.591 75.3839 250.395 80.8049 250.395 87.8792C250.395 94.9545 244.591 100.387 237.806 100.387C231.022 100.387 225.218 94.9965 225.218 87.8792C225.218 80.7629 231.022 75.3839 237.806 75.3839V75.3839Z" fill="white" fill-opacity="0.9"/>
<path fill-rule="evenodd" clip-rule="evenodd" d="M111.419 12.645C128.352 12.645 142.838 26.2705 142.838 44.0145C142.838 61.7585 128.351 75.3839 111.419 75.3839C94.4868 75.3839 80 61.8635 80 44.0145C80 26.1665 94.4857 12.645 111.419 12.645ZM111.576 31.4982C118.361 31.4982 124.165 36.9349 124.165 44.0145C124.165 51.094 118.361 56.5307 111.576 56.5307C104.792 56.5307 98.9876 51.136 98.9876 44.0145C98.9876 36.8929 104.792 31.4982 111.576 31.4982V31.4982Z" fill="white" fill-opacity="0.9"/>
<path fill-rule="evenodd" clip-rule="evenodd" d="M174.541 12.645C191.474 12.645 205.96 26.2705 205.96 44.0145C205.96 61.7585 191.473 75.3839 174.541 75.3839C157.609 75.3839 143.122 61.8635 143.122 44.0145C143.122 26.1665 157.608 12.645 174.541 12.645ZM174.699 31.4982C181.483 31.4982 187.287 36.9349 187.287 44.0145C187.287 51.094 181.483 56.5307 174.699 56.5307C167.914 56.5307 162.11 51.136 162.11 44.0145C162.11 36.8929 167.914 31.4982 174.699 31.4982V31.4982Z" fill="white" fill-opacity="0.9"/>
<path fill-rule="evenodd" clip-rule="evenodd" d="M237.649 12.645C254.581 12.645 269.068 26.2705 269.068 44.0145C269.068 61.7585 254.581 75.3839 237.649 75.3839C220.716 75.3839 206.23 61.8635 206.23 44.0145C206.23 26.1665 220.716 12.645 237.649 12.645ZM237.806 31.4982C244.591 31.4982 250.395 36.9349 250.395 44.0145C250.395 51.094 244.591 56.5307 237.806 56.5307C231.022 56.5307 225.218 51.136 225.218 44.0145C225.218 36.8929 231.022 31.4982 237.806 31.4982V31.4982Z" fill="white" fill-opacity="0.9"/>
<path fill-rule="evenodd" clip-rule="evenodd" d="M133.876 65.9537C128.105 71.8158 120.083 75.3839 111.419 75.3839C102.734 75.3839 94.6947 71.8263 88.9219 65.9537C94.6947 60.0852 102.734 56.5308 111.419 56.5308C120.083 56.5308 128.105 60.0968 133.876 65.9537" fill="white"/>
<path fill-rule="evenodd" clip-rule="evenodd" d="M196.998 65.9537C191.227 71.8158 183.205 75.3839 174.541 75.3839C165.858 75.3839 157.817 71.8263 152.044 65.9537C157.817 60.0852 165.858 56.5308 174.541 56.5308C183.206 56.5308 191.227 60.0968 196.998 65.9537" fill="white"/>
<path fill-rule="evenodd" clip-rule="evenodd" d="M260.105 65.9537C254.335 71.8158 246.312 75.3839 237.649 75.3839C228.964 75.3839 220.925 71.8263 215.152 65.9537C220.925 60.0852 228.964 56.5308 237.649 56.5308C246.312 56.5308 254.335 60.0968 260.105 65.9537" fill="white"/>
<path fill-rule="evenodd" clip-rule="evenodd" d="M370.309 91.4504H375.586V97.6497L375.623 97.6056C377.429 93.8925 380.764 91.0103 385.552 91.0103V96.0773C379.848 95.9302 375.659 100.205 375.586 105.494V118.898H370.309V91.4504" fill="white"/>
<path fill-rule="evenodd" clip-rule="evenodd" d="M302.925 91.4502H308.201V96.5939C310.041 93.197 313.233 90.9912 318.069 90.9912C326.37 90.9912 331.967 97.1275 331.967 105.18C331.967 113.337 326.475 119.526 318.121 119.526C313.62 119.526 310.195 117.356 308.201 113.858V130.887H302.925V91.4502ZM317.7 95.9836C322.953 95.9836 326.562 100.051 326.562 105.232C326.562 110.413 322.867 114.428 317.7 114.428C312.323 114.428 308.785 110.327 308.785 105.18C308.785 100.033 312.448 95.9836 317.7 95.9836V95.9836Z" fill="white"/>
<path fill-rule="evenodd" clip-rule="evenodd" d="M389.656 91.4502H393.357V83.4253H398.633V91.4502H406.622V96.4436H398.633V110.462C398.633 115.841 403.607 114.534 406.62 113.931V118.31C404.572 119.051 403.133 119.375 400.871 119.375C397.332 119.375 393.357 117.804 393.357 111.466V96.4436H389.656V91.4502" fill="white"/>
<path fill-rule="evenodd" clip-rule="evenodd" d="M350.289 90.8862C358.695 90.8862 364.556 97.1276 364.556 105.18C364.556 113.232 358.641 119.473 350.289 119.473C341.935 119.473 336.021 113.179 336.021 105.18C336.021 97.1801 341.882 90.8862 350.289 90.8862ZM350.289 95.9837C355.541 95.9837 359.203 99.9993 359.203 105.18C359.203 110.36 355.507 114.376 350.289 114.376C345.069 114.376 341.373 110.327 341.373 105.18C341.373 100.033 345.036 95.9837 350.289 95.9837V95.9837Z" fill="white"/>
<path fill-rule="evenodd" clip-rule="evenodd" d="M277.646 98.3241C277.646 94.2633 281.653 90.8569 287.48 90.8569C291.164 90.8569 294.246 92.3422 296.305 94.0028L294.844 98.2222C292.48 96.6182 289.558 95.4366 287.434 95.4366C284.192 95.4366 283.033 97.0499 283.033 98.2295C283.033 100.391 285.025 101.183 286.819 102.037C288.992 103.073 291.137 103.802 293.216 105.002C296.091 106.662 297.577 108.35 297.577 111.901C297.577 114.065 296.129 116.581 293.951 117.953C292.206 119.054 289.797 119.761 287.512 119.761C281.923 119.761 277.786 117.602 275.37 115.185L277.581 111.257C279.812 113.308 283.132 115.228 286.858 115.228C289.72 115.228 292.379 114.229 292.379 111.611C292.379 109.747 290.239 108.583 288.398 107.867C286.328 107.031 284.543 106.442 282.536 105.356C279.153 103.524 277.646 101.754 277.646 98.3241" fill="white"/>
</g>
</svg>