<svg xmlns="http://www.w3.org/2000/svg" width="550" height="160" viewBox="0 0 550 160" fill="none">
<rect width="550" height="160" fill="#027b5b"/>
<g transform="translate(30, 14)">
<path d="M13.4024 12.1052C24.1868 12.0976 34.9712 12.09 45.7632 12.1052C45.6644 26.302 45.7784 40.4912 45.6948 54.688C48.7652 50.318 52.7704 46.3508 57.9992 44.732C67.3776 41.7832 78.7168 43.8352 85.4352 51.3516C92.1916 58.8832 94.4868 69.2648 94.768 79.122C94.9276 89.0096 93.9776 99.3684 89.068 108.154C85.724 114.333 79.8796 119.22 72.956 120.755C66.0476 122.298 58.1588 122.077 52.1472 117.943C48.0204 115.169 45.7404 110.571 43.6352 106.224C43.772 110.814 43.5136 115.389 43.4224 119.972C33.4132 119.972 23.404 119.972 13.3948 119.972C13.3948 84.0164 13.3948 48.0608 13.4024 12.1052V12.1052Z" fill="#FAFCFC"/>
<path d="M191.037 27.8372C201.844 24.3564 212.507 20.4348 223.314 16.9616C223.223 26.378 223.284 35.802 223.276 45.2184C228.186 45.2184 233.103 45.2108 238.028 45.2108C237.967 52.3396 238.02 59.4608 237.982 66.582C233.065 66.6656 228.133 66.4528 223.223 66.696C223.375 74.0908 223.14 81.4856 223.337 88.8804C223.421 92.1712 224.842 95.8952 228.11 97.2024C231.408 97.9168 234.844 97.2556 238.036 96.298C237.967 103.442 237.998 110.594 238.005 117.738C228.984 120.542 219.4 122.526 209.946 121.158C204.231 120.322 198.759 117.259 195.62 112.334C192.109 107.006 191.159 100.47 190.923 94.2308C190.9 85.012 190.923 75.8008 190.916 66.5896C187.146 66.5972 183.384 66.544 179.622 66.6656C179.485 59.514 179.576 52.3624 179.576 45.2032C183.354 45.226 187.131 45.2108 190.916 45.2108C190.992 39.4196 190.756 33.6132 191.037 27.8372V27.8372Z" fill="#FAFCFC"/>
<path d="M245.719 22.0916C256.222 18.2156 267.63 18.0408 278.696 18.17C288.728 18.5956 299.109 21.5064 306.74 28.2856C316.832 37.1244 317.25 55.2656 306.633 63.8308C303.92 66.1184 300.698 67.7068 297.338 68.8012C302.21 70.5112 307.066 72.8444 310.426 76.9104C315.814 83.1348 316.673 92.1332 314.727 99.8776C312.972 106.976 307.636 112.737 301.214 116.005C289.556 122.328 275.77 122.199 262.926 120.952C256.899 120.382 250.963 119.174 245.126 117.601C244.883 109.841 245.126 102.066 245.005 94.3144C255.022 97.6356 266.004 99.8396 276.454 97.3316C283.461 95.5684 283.818 84.6776 277.563 81.706C270.951 78.4152 263.207 79.6844 256.177 80.6192C256.215 73.2928 256.184 65.9588 256.192 58.6172C261.649 58.8756 267.159 59.1872 272.57 58.2828C275.838 57.7052 279.539 56.0636 280.436 52.5524C280.938 49.7404 280.634 46.5408 278.688 44.3216C276.476 41.7376 272.98 40.7192 269.69 40.5216C261.603 40.1036 253.464 41.5096 245.894 44.3216C245.628 36.9268 245.932 29.5016 245.719 22.0916V22.0916Z" fill="#F9DC1C"/>
<path d="M331.782 33.7424C339.313 24.44 350.964 19.0972 362.805 18.2992C373.81 17.8508 385.02 18.0104 395.728 20.9288C395.576 28.582 395.728 36.2428 395.644 43.896C386.927 41.4564 377.838 39.7312 368.756 40.7496C363.238 41.4944 357.751 44.3368 354.946 49.2996C352.986 52.6284 352.545 56.5348 352.256 60.312C358.807 55.1896 367.524 53.9812 375.611 54.4752C385.848 55.1364 395.561 61.3456 400.273 70.4808C403.799 77.2904 404.415 85.2856 403.328 92.7944C402.173 100.752 397.902 108.276 391.419 113.086C381.881 120.527 369.12 122.716 357.333 121.188C347.042 119.934 337.406 114.47 331.022 106.322C323.543 97.286 320.199 85.4376 319.979 73.8324C319.675 59.7572 322.479 44.7776 331.782 33.7424V33.7424Z" fill="#F9DC1C"/>
<path d="M410.814 19.8648C431.95 19.8572 453.085 19.8572 474.213 19.8648C474.19 27.556 474.213 35.2472 474.198 42.9384C462.889 43.0296 451.565 42.7788 440.264 43.0676C440.37 48.1596 440.393 53.2744 440.256 58.374C446.671 58.2524 453.321 57.2872 459.507 59.5064C468.354 62.4704 475.224 70.382 477.284 79.4488C479.244 88.1812 478.728 97.8788 474.168 105.745C469.881 113.117 461.985 117.624 453.914 119.714C439.344 123.346 424.053 121.378 409.773 117.441C409.56 109.803 409.735 102.165 409.674 94.5272C418.84 96.8376 428.72 99.0948 437.999 96.108C445.721 93.714 446.868 82.162 440.781 77.4652C437.125 74.714 432.39 74.0452 427.937 73.8552C422.951 73.7792 417.958 74.4404 413.109 75.588C412.076 75.7856 411.179 76.3784 410.358 76.994C410.594 76.1656 410.753 75.322 410.822 74.4708C410.799 56.2688 410.806 38.0592 410.814 19.8648V19.8648Z" fill="#F9DC1C"/>
<path d="M109.968 54.1408C118.199 45.8796 130.435 43.4552 141.706 43.5084C150.233 43.2652 159.246 45.4084 165.653 51.3212C172.296 57.4544 175.374 66.468 176.582 75.2232C177.403 80.5128 177.304 85.8784 177.289 91.2136C162.309 91.2136 147.337 91.2136 132.35 91.2136C132.593 93.8508 133.133 96.6476 135.147 98.54C138.719 101.922 143.925 102.378 148.599 102.69C156.784 102.826 165.273 101.945 172.577 97.9624C172.516 104.407 172.577 110.86 172.524 117.312C163.373 120.527 153.622 121.454 143.986 121.629C133.057 121.826 121.315 119.896 112.772 112.57C104.815 105.844 101.289 95.2872 100.825 85.1412C100.118 74.2504 102.011 62.212 109.968 54.1408V54.1408Z" fill="#FAFCFC"/>
<path d="M135.246 63.58C137.83 59.8408 144.206 59.6052 146.775 63.4888C149.085 67.0076 149.23 71.4156 149.306 75.4816C143.674 75.4892 138.05 75.4892 132.418 75.4892C132.57 71.4156 132.798 67.0304 135.246 63.58V63.58Z" fill="#027B5B"/>
<path d="M51.1288 65.9208C54.1612 64.9404 57.756 66.4452 59.1316 69.3484C61.1152 73.27 61.0468 77.8224 61.1076 82.1164C60.9556 86.418 60.7428 91.0692 58.288 94.778C55.9092 98.4488 49.662 98.4564 47.3668 94.6868C45.1856 91.1832 44.9652 86.8664 44.9424 82.8536C44.9424 78.9776 44.9348 75.0104 46.0824 71.2712C46.8196 68.8468 48.56 66.5288 51.1288 65.9208V65.9208Z" fill="#027B5B"/>
<path d="M359.149 73.954C363.717 72.282 369.538 73.6728 372.084 78.0124C375.193 83.3172 374.98 90.4688 371.682 95.6292C368.429 101.071 359.643 101.709 355.615 96.8452C352.142 92.8856 351.815 87.1324 352.887 82.1848C353.54 78.704 355.668 75.2004 359.149 73.954V73.954Z" fill="#027B5B"/>
</g>
</svg>
