<svg xmlns="http://www.w3.org/2000/svg" viewBox="0 0 490 132">
<!-- Brand Color: #000058 (dark blue/purple) -->
<rect width="490" height="132" fill="#000058"/>
<defs>
  <linearGradient id="BETFRED_LOGO_GRADIENT" x1="31.9" y1="32.2" x2="458.1" y2="99.8" gradientUnits="userSpaceOnUse">
    <stop offset="0" stop-color="#ec0e24"/>
    <stop offset="0" stop-color="#e50d2c"/>
    <stop offset=".2" stop-color="#d50b45"/>
    <stop offset=".3" stop-color="#b9086d"/>
    <stop offset=".4" stop-color="#9404a3"/>
    <stop offset=".5" stop-color="#6e00dc"/>
    <stop offset=".6" stop-color="#480de2"/>
    <stop offset=".7" stop-color="#211be9"/>
    <stop offset=".8" stop-color="#0824ee"/>
    <stop offset=".9" stop-color="#0028f0"/>
  </linearGradient>
</defs>
<path fill="url(#BETFRED_LOGO_GRADIENT)" d="M456,113.1H19.1l14.9-94.1h436.9l-14.9,94.1Z"/>
<path fill="#fff" d="M103.8,52.4c1.3-9.2-3-17.8-23.8-17.8h-28.4l-9.9,62.8h34.1c12.4,0,23.1-3.9,25.2-15.9,1.4-8-2.3-15.1-9.8-16.9,7.9-1,11.7-6.4,12.5-12.2ZM83.1,77.3c-.3,3.6-4,4.9-8.3,4.9h-11.4l1.6-9.9h11.5c4.4,0,7,1.4,6.7,5ZM84.9,54.2c-.5,3.6-3.1,4.7-7.4,4.7h-10.4l1.5-9.3h10.3c3.8,0,6.4,1.5,5.9,4.7ZM418.2,34.6h-25.3l-9.9,62.8h27.9c16.7,0,31.9-6.9,34.9-31.1,3-24.2-12.5-31.7-27.5-31.7ZM426,66.2c-1.7,11.7-7,16-15.7,16h-5.6l5.2-32.7h6.5c7,0,11.3,5,9.6,16.6ZM218.7,34.6l-2.4,14.9h-16.2l-7.6,47.8h-19.3l7.6-47.8h-16.1l2.4-14.9h51.6ZM112.9,34.6h48.9l-2.4,14.9h-29.5l-1.5,9.3h26.6l-2.1,13.4h-26.6l-1.6,9.9h29.5s-2.4,15.2-2.4,15.2h-48.9l9.9-62.8ZM338.8,34.6h48.9l-2.4,14.9h-29.5l-1.5,9.3h26.6l-2.1,13.4h-26.6l-1.6,9.9h29.5s-2.4,15.2-2.4,15.2h-48.9l9.9-62.8ZM214.1,97.4l9.9-62.8h48.9l-2.4,14.9h-29.5l-1.5,9.3h26.6l-2.1,13.4h-26.6l-4,25.1h-19.3ZM300.8,73.4c4.7,0,6.4,3,5.7,6.8l-2.7,17.1h20.1c-.4-3.7.5-8.4,1.1-12.2l.4-2.8c1.3-8.4-2.7-13.9-8.6-15.6,7-2,11.8-6.2,12.9-14.3,1.8-12.3-7-17.8-20.9-17.8h-30.7l-9.9,62.8h19.4l3.7-23.9h9.4ZM310.9,54.6c-.4,3.4-2.8,5.4-7.7,5.4h-9.6l1.7-10.5h9.3c4.3,0,6.8,1.8,6.4,5.1Z"/>
</svg>
