<svg viewBox="0 0 490 132" xmlns="http://www.w3.org/2000/svg"><rect width="490" height="132" fill="#FFB80C"/><path d="M138.943 26.0056V53.9256H139.158C141.441 50.7197 146.346 47.7287 155.139 47.7287H161.384C181.496 47.7287 189.215 53.9426 189.215 71.4025V82.9425C189.215 101.833 177.241 106 160.875 106H156.823C148.985 106 142.633 103.648 139.186 99.0794H138.943V104.191H126.641V26.0056H138.943ZM459.035 47.7315C469.936 47.7315 475.079 50.8978 477 56.1957L469.241 61.4427C468.489 59.4921 465.217 57.6319 458.357 57.6319C448.812 57.6319 444.721 63.857 444.721 70.9247V105.992H432.413V47.7372L444.094 47.7315V55.4607H444.529C447.982 49.8009 453.582 47.7315 459.035 47.7315ZM421.472 47.7306V105.991H409.147L409.175 47.7306H421.472ZM370.617 47.7338C387.395 47.7338 398.223 52.2005 398.223 68.524V105.982H385.92V100.634H385.717C383.377 104.049 382.19 105.988 370.3 105.988H358.348C341.932 105.988 338.021 98.6491 338.004 88.3812V84.8022C338.004 72.3801 347.165 68.4504 362.897 68.4504H367.707C378.376 68.4504 382.563 69.5078 385.649 73.6183H385.897V68.2752C385.897 58.4314 382.676 57.6341 369.068 57.6341C359.902 57.6341 353.873 59.189 353.336 64.4586L341.598 60.5743C342.062 52.8507 349.307 47.7338 366.006 47.7338H370.617ZM230.253 47.7343C246.438 47.7343 256.553 51.353 256.553 70.8653V81.6195H207.694L207.666 81.6421C207.683 94.0811 210.26 96.0827 226.009 96.0827H228.852C238.498 96.0827 242.9 94.7483 244.709 89.654L255.66 92.9616C253.914 101.251 247.105 105.989 232.186 105.989L220.756 105.988C209.082 105.936 195.906 102.664 195.906 83.5758V69.8137C195.906 49.9508 211.429 47.7343 224.223 47.7343H230.253ZM344.127 26.0027V35.3829L331.847 35.3716C325.122 35.3716 321.969 39.2447 321.969 44.0563V49.1111H338.487V58.9945H321.969V105.98H309.644V58.9945H303.004V49.1111H309.644V44.1242C309.644 31.148 317.917 26.0027 327.789 26.0027H344.127ZM279.645 26.0033V49.1117H296.175V58.9951H279.645V87.8989C279.645 92.7219 281.77 96.0861 288.495 96.0861L300.781 96.0748V105.981H285.489C275.616 105.981 267.332 100.824 267.332 87.8311L267.343 58.9951H260.703V49.1117H267.343V26.0033H279.645ZM45.9855 51.0722L78.9596 89.605H61.9046V105.634H30.0381V89.605H13L45.9855 51.0722ZM159.875 57.6347L158.254 57.6348C147.14 57.6409 138.943 58.0141 138.943 70.9501V81.6816C138.943 92.2435 142.741 96.0827 156.676 96.0827H159.474C174.172 96.0827 176.913 91.5763 176.913 80.9579V72.1375C176.913 59.4949 170.878 57.6347 159.875 57.6347ZM369.159 78.3395H363.666C353.421 78.3395 350.329 80.4146 350.329 85.9047V88.9579C350.329 93.6961 351.906 96.0821 364.288 96.0821H367.565C382.173 96.0821 385.92 94.0636 385.92 88.5791V86.3288C385.92 80.1827 378.506 78.3395 369.159 78.3395ZM103.952 26.1954V42.2022H120.99L88.0154 80.7519L55.0186 42.2022H72.0623V26.1954H103.952ZM228.089 57.6347H225.597C212.899 57.6347 207.694 58.7542 207.694 69.9494V71.7361L244.245 71.7247L244.234 68.5924C244.234 61.2364 242.386 57.6347 228.089 57.6347ZM421.472 26V38.5014H409.175V26H421.472Z" fill="#1E1E1E"/></svg>
