<svg xmlns="http://www.w3.org/2000/svg" viewBox="0 0 129 32">
<!-- Brand Color: #1D252D (dark background) -->
<!-- BET: #44B6E5 (blue), VICTOR: #FFFFFF (white) -->
<rect width="129" height="32" fill="#1D252D"/>
<g transform="translate(8, 8)" fill="none" fill-rule="evenodd">
<path d="M7.54 7.837c.192-.084.373-.177.544-.28a4.21 4.21 0 001.042-.881 3.79 3.79 0 00.653-1.111 3.55 3.55 0 00.227-1.257c0-.643-.109-1.23-.323-1.741A3.327 3.327 0 008.68 1.24C8.236.886 7.67.614 6.997.433c-.66-.18-1.449-.27-2.342-.27H0V16h5.22c.836 0 1.598-.1 2.261-.297.671-.2 1.247-.494 1.71-.875.468-.383.83-.858 1.077-1.411.244-.55.367-1.174.367-1.855 0-1.075-.35-1.96-1.043-2.63-.517-.498-1.204-.865-2.052-1.095zm-5.976.734h3.548c.606 0 1.152.068 1.624.203.465.133.86.325 1.175.57.309.242.549.54.713.884.165.346.249.742.249 1.18 0 .97-.305 1.7-.932 2.227-.63.532-1.585.8-2.84.8H1.565V8.572zm3.128-1.173H1.564V1.533h3.08c1.312 0 2.288.251 2.9.748.606.493.9 1.205.9 2.179 0 .368-.071.73-.212 1.079a2.57 2.57 0 01-.655.928c-.3.275-.69.502-1.164.672-.478.172-1.065.259-1.747.259h.026z" fill="#44B6E5"/>
<path fill="#44B6E5" d="M12.708.164v15.64h9.58l.005-1.368h-8.02V8.57h6.647V7.202h-6.647v-5.67h8.016V.165z"/>
<path fill="#44B6E5" d="M24.048.164v1.369h5.474v14.272h1.564V1.533h5.279V.163z"/>
<path d="M50.95.303a.69.69 0 00-.223.301L45.504 13.351a5.36 5.36 0 00-.11.295l-.105-.295-5.234-12.749a.771.771 0 00-.219-.302.61.61 0 00-.4-.135h-1.232l6.475 15.69.06.146h1.305L52.578.164H51.36a.637.637 0 00-.408.139" fill="#FFFFFF"/>
<path fill="#FFFFFF" d="M54.547 16.321h1.564V.485h-1.564zM69.954 13.134a.847.847 0 00-.164.107c-.293.266-.593.5-.889.695-.293.194-.617.36-.96.495a5.607 5.607 0 01-1.133.303 8.882 8.882 0 01-1.424.103c-.828 0-1.609-.149-2.32-.441a5.369 5.369 0 01-1.857-1.265c-.523-.549-.94-1.232-1.242-2.03-.3-.801-.454-1.727-.454-2.752 0-1.003.152-1.918.45-2.719.297-.798.714-1.482 1.24-2.034a5.378 5.378 0 011.894-1.275c.734-.297 1.555-.448 2.44-.448.693 0 1.292.075 1.782.222.497.15.916.316 1.246.494.33.18.592.344.774.49.25.199.42.283.57.283a.531.531 0 00.462-.226l.452-.642-.154-.134a7.767 7.767 0 00-2.27-1.383c-.83-.326-1.793-.492-2.861-.492-1.12 0-2.159.192-3.09.572a6.984 6.984 0 00-2.412 1.618 7.377 7.377 0 00-1.56 2.49c-.369.958-.554 2.03-.554 3.184 0 1.177.18 2.262.538 3.227.357.968.87 1.805 1.52 2.49a6.786 6.786 0 002.353 1.597c.906.373 1.915.562 3 .562.645 0 1.247-.052 1.788-.157a7.602 7.602 0 001.505-.447c.454-.192.88-.428 1.263-.701a7.47 7.47 0 001.064-.922l.15-.156-.587-.618a.494.494 0 00-.56-.09M72.534.485v1.369h5.474v14.272h1.564V1.854h5.278V.484zM98.093 2.65a6.814 6.814 0 00-2.386-1.603c-.92-.373-1.947-.562-3.052-.562-1.106 0-2.131.192-3.047.568a6.9 6.9 0 00-2.38 1.602 7.19 7.19 0 00-1.538 2.488c-.36.961-.543 2.041-.543 3.213 0 1.177.183 2.263.543 3.223.362.965.88 1.803 1.539 2.488a6.846 6.846 0 002.379 1.597c.916.373 1.941.562 3.047.562 1.105 0 2.133-.19 3.052-.562a6.843 6.843 0 002.386-1.597c.658-.685 1.176-1.523 1.538-2.488.36-.96.543-2.046.543-3.223 0-1.172-.183-2.252-.543-3.213a7.257 7.257 0 00-1.538-2.493m-5.438 12.176c-.872 0-1.681-.147-2.404-.438a5.186 5.186 0 01-1.864-1.264c-.52-.552-.928-1.234-1.213-2.029-.29-.798-.435-1.721-.435-2.74 0-1.011.146-1.93.435-2.734.286-.798.694-1.482 1.213-2.034a5.234 5.234 0 011.865-1.27c.724-.294 1.532-.443 2.403-.443.878 0 1.69.15 2.414.443.72.292 1.346.719 1.86 1.27.514.55.918 1.234 1.202 2.033.286.803.43 1.724.43 2.736 0 1.018-.144 1.941-.429 2.74-.284.795-.688 1.478-1.204 2.03a5.122 5.122 0 01-1.858 1.262c-.724.291-1.535.438-2.415.438M107.717 9.188a2.141 2.141 0 00-.106-.13 6.04 6.04 0 001.338-.4 4.832 4.832 0 001.43-.936c.397-.38.707-.83.922-1.336a4.27 4.27 0 00.324-1.68c0-1.377-.468-2.44-1.392-3.159-.907-.705-2.274-1.062-4.063-1.062h-4.115v15.64h1.564V9.283h1.744c.137 0 .252.006.347.019.082.011.151.029.206.053.051.021.095.05.135.088.052.049.1.106.155.18l4.835 6.12a.828.828 0 00.323.3.93.93 0 00.404.082h1.47l-5.52-6.937zm-4.098-7.335h2.583c1.314 0 2.32.253 2.99.749.657.487.977 1.223.977 2.249 0 .5-.092.955-.273 1.35a2.811 2.811 0 01-.789 1.014c-.35.285-.783.507-1.29.66a6.154 6.154 0 01-1.767.234h-2.43V1.853z"/>
</g>
</svg>
