<svg xmlns="http://www.w3.org/2000/svg" width="250" height="78" viewBox="0 0 250 78" fill="none">
<rect width="250" height="78" fill="#231F20"/>
<g transform="translate(30, 14)">
<path d="M34.771 17.6866C35.3466 17.5274 36.0182 17.4478 36.5938 17.2886C37.2654 17.209 37.937 17.1294 38.8964 17.1294C40.4314 17.1294 41.8704 17.3682 43.1176 17.8458C44.3648 18.3234 45.4202 18.8806 46.2836 19.7562C47.1471 20.6318 47.7227 21.5075 48.2024 22.6219C48.6821 23.6567 48.874 24.9304 48.874 26.1244C48.874 27.796 48.5861 29.3085 47.9146 30.5025C47.243 31.6965 46.4755 32.7313 45.3242 33.607C44.173 34.403 42.9258 34.9602 41.4867 35.3582C40.0476 35.7562 38.3207 35.995 36.5938 35.995C34.6751 35.995 32.8522 35.8358 31.3172 35.5174C29.7822 35.2786 28.2472 34.8806 27 34.4826V11H34.771V17.6866ZM34.771 30.9801C35.1548 31.0597 35.4426 31.1393 35.7304 31.1393C36.0182 31.1393 36.402 31.2189 36.8817 31.2189C38.1289 31.2189 39.2801 30.8209 40.1436 30.1045C41.007 29.3881 41.3908 28.194 41.3908 26.602C41.3908 25.0896 41.007 23.8955 40.1436 23.1791C39.2801 22.3831 38.3207 22.1443 37.0735 22.1443C36.6898 22.1443 36.2101 22.1443 35.9223 22.2239C35.5385 22.3035 35.1548 22.3831 34.771 22.4627V30.9801ZM57.4125 27.8756C57.5084 28.9104 57.8922 29.7861 58.6597 30.4229C59.4272 31.0597 60.3866 31.3781 61.6338 31.3781C62.6891 31.3781 63.4566 31.2189 64.1282 30.9005C64.8957 30.5821 65.3754 30.1045 66.0469 29.5473L70.7479 32.6517C70.2682 33.1294 69.6926 33.607 69.2129 33.9254C68.5413 34.3234 67.9657 34.7214 67.1022 34.9602C66.3347 35.2786 65.4713 35.5174 64.416 35.7562C63.3606 35.9154 62.3053 35.995 60.9622 35.995C59.4272 35.995 57.9881 35.7562 56.645 35.3582C55.3018 34.9602 54.1506 34.3234 53.0952 33.607C52.0399 32.8905 51.3683 31.7761 50.6968 30.5821C50.1211 29.4677 49.7374 28.0348 49.7374 26.5224C49.7374 25.0896 50.0252 23.6567 50.6008 22.5423C51.1765 21.4279 51.848 20.393 52.9034 19.5174C53.9587 18.6418 55.014 18.0846 56.4531 17.6866C57.8922 17.2886 59.2353 17.0498 60.7703 17.0498C64.0322 17.0498 66.6226 17.9254 68.4454 19.6766C70.3642 21.4279 71.3235 24.0547 71.3235 27.6368H57.4125V27.8756ZM64.1282 24.3731C64.0322 23.4179 63.6485 22.7015 63.0728 22.1443C62.4013 21.5871 61.8256 21.2687 60.8663 21.2687C59.9069 21.2687 59.2353 21.5871 58.5637 22.1443C57.8922 22.7015 57.5084 23.4179 57.3165 24.3731H64.1282ZM74.2976 22.0647V29.9453C74.2976 30.9005 74.3936 31.6965 74.6814 32.4129C74.8733 33.209 75.257 33.7662 75.8326 34.2438C76.4083 34.801 77.0798 35.199 77.9433 35.4378C78.8067 35.7562 79.862 35.9154 81.2052 35.9154C82.6443 35.9154 84.0833 35.7562 85.1387 35.4378C86.2899 35.1194 87.3452 34.7214 88.3046 34.1642L86.2899 30.2637C85.9062 30.5025 85.4265 30.7413 84.9468 30.9801C84.4671 31.2189 83.8915 31.2985 83.4118 31.2985C82.8361 31.2985 82.4524 31.1393 82.2605 30.7413C82.0686 30.4229 81.9727 29.8657 81.9727 29.3085V22.0647H87.1534L85.3305 17.607H81.9727V13.0697H74.2017V17.607H71.1317V22.0647H74.2976ZM100.489 35.597L103.847 26.1244L107.3 35.597H113.249L120.924 17.607H112.961L109.699 27.1592L106.341 17.607H101.256L97.8985 27.1592L92.334 13.1493H84.8508L94.5406 35.597H100.489ZM133.012 35.597L132.34 34.2438C131.765 34.7214 130.997 35.1194 129.942 35.4378C128.887 35.7562 127.831 35.9154 126.392 35.9154C125.337 35.9154 124.473 35.7562 123.61 35.5174C122.747 35.2786 122.075 34.8806 121.403 34.4826C120.732 34.005 120.252 33.4478 119.964 32.8109C119.581 32.0945 119.389 31.3781 119.389 30.5025C119.389 29.6269 119.581 28.8308 119.964 28.194C120.348 27.4776 120.924 27 121.595 26.5224C122.267 26.0448 123.034 25.6468 123.994 25.408C124.953 25.0896 125.817 24.8507 126.968 24.7711C127.927 24.6119 128.791 24.5323 129.654 24.4527C130.518 24.3731 131.189 24.3731 131.861 24.2935V23.8159C131.861 23.0199 131.573 22.5423 130.997 22.2239C130.422 21.9055 129.75 21.6667 128.983 21.6667C128.119 21.6667 127.352 21.8259 126.584 22.0647C125.817 22.3831 125.145 22.7015 124.377 23.0995L120.924 19.9154C122.171 19.0398 123.418 18.403 124.857 17.9254C126.296 17.4478 128.119 17.1294 130.134 17.1294C133.012 17.1294 135.218 17.6866 136.849 18.801C138.48 19.9154 139.344 21.7463 139.344 24.1343V35.5174H132.916C133.012 35.4378 133.012 35.597 133.012 35.597ZM131.957 27.4776C131.477 27.4776 130.997 27.5572 130.709 27.5572C130.23 27.5572 129.75 27.6368 129.366 27.7164C128.407 27.8756 127.831 28.1144 127.447 28.5124C127.064 28.9105 126.872 29.3881 126.872 29.8657C126.872 30.3433 127.064 30.8209 127.543 31.1393C128.023 31.4577 128.599 31.6169 129.27 31.6169C129.846 31.6169 130.422 31.5373 130.805 31.3781C131.189 31.2189 131.765 31.0597 132.053 30.7413L131.957 27.4776ZM139.536 41.8856C140.399 42.204 141.263 42.4428 142.222 42.6816C143.181 42.9204 144.141 43 145.388 43C147.115 43 148.746 42.6816 149.993 42.0448C151.24 41.408 152.296 40.3731 153.159 38.8607L164 17.607H156.037L151.72 28.1144L147.307 17.607H138.864L147.978 34.801L146.731 37.1095C146.443 37.5871 146.155 37.9055 145.868 38.0647C145.484 38.2239 145.004 38.3035 144.525 38.3035C144.045 38.3035 143.469 38.2239 142.99 38.0647C142.414 37.9055 141.934 37.7463 141.55 37.5075L139.536 41.8856Z" fill="white"/>
</g>
</svg>
