<svg xmlns="http://www.w3.org/2000/svg" viewBox="0 0 490 132">
<!-- Brand Color: #2400F6 (bright blue/purple) - already embedded -->
<rect width="490" height="132" fill="#2400f6"/>
<path fill="#f7f5f0" d="M320.62,42.63c-.37-.93-.93-1.8-1.87-2.61-1.3-1.06-2.67-1.49-4.47-1.49-3.85,0-5.84,2.3-5.84,4.97,0,1.24.43,3.42,4.47,5.03l4.16,1.68c7.64,3.11,9.76,7.46,9.76,12.18,0,7.89-5.59,13.3-13.36,13.3-4.79,0-7.64-1.8-9.76-4.16-2.24-2.48-3.23-5.22-3.48-8.08l6.28-1.37c0,2.05.75,3.98,1.74,5.28,1.18,1.49,2.92,2.48,5.41,2.48,3.85,0,6.83-2.8,6.83-6.96s-3.23-5.97-5.97-7.09l-3.98-1.68c-3.42-1.43-8.45-4.29-8.45-10.5,0-5.59,4.35-10.94,12.12-10.94,4.47,0,7.02,1.68,8.33,2.8,1.12.99,2.3,2.42,3.17,4.16l-5.1,2.98s0,0,0,0Z"/>
<path fill="#f7f5f0" d="M340.75,33.44c2.55,0,6.09.25,9.07,2.24,3.48,2.3,5.16,6.28,5.16,10.07,0,2.42-.62,6.15-4.04,9.07-3.29,2.8-7.09,3.23-10.13,3.23h-2.86v16.84h-6.34v-41.45h9.14ZM337.96,52.21h2.86c5.47,0,8.08-2.67,8.08-6.52,0-2.3-.93-6.4-8.14-6.4h-2.8v12.93h0Z"/>
<path fill="#f7f5f0" d="M400.91,54.2c0,12.18-9.14,21.5-21.57,21.5s-21.57-9.32-21.57-21.5,9.14-21.51,21.57-21.51,21.57,9.32,21.57,21.51h0ZM394.57,54.2c0-9.2-6.34-15.66-15.23-15.66s-15.23,6.46-15.23,15.66,6.34,15.66,15.23,15.66,15.23-6.46,15.23-15.66Z"/>
<path fill="#f7f5f0" d="M412.54,33.44c5.03,0,8.27.62,10.94,2.42,4.54,3.05,4.91,7.96,4.91,9.76,0,5.97-3.67,10.32-9.2,11.56l12.93,17.71h-7.64l-11.87-16.97h-1.12v16.97h-6.34v-41.45h7.4,0ZM411.48,52.46h1.99c1.74,0,8.82-.19,8.82-6.78,0-5.84-5.53-6.4-8.64-6.4h-2.18v13.18h0Z"/>
<path fill="#f7f5f0" d="M447.28,39.4v35.49h-6.34v-35.49h-9.51v-5.97h25.36v5.97h-9.51,0Z"/>
<path fill="#f7f5f0" d="M478.36,42.63c-.37-.93-.93-1.8-1.87-2.61-1.3-1.06-2.67-1.49-4.47-1.49-3.85,0-5.84,2.3-5.84,4.97,0,1.24.43,3.42,4.47,5.03l4.16,1.68c7.64,3.11,9.76,7.46,9.76,12.18,0,7.89-5.59,13.3-13.36,13.3-4.79,0-7.64-1.8-9.76-4.16-2.24-2.48-3.23-5.22-3.48-8.08l6.28-1.37c0,2.05.75,3.98,1.74,5.28,1.18,1.49,2.92,2.48,5.41,2.48,3.85,0,6.83-2.8,6.83-6.96s-3.23-5.97-5.97-7.09l-3.98-1.68c-3.42-1.43-8.45-4.29-8.45-10.5,0-5.59,4.35-10.94,12.12-10.94,4.47,0,7.02,1.68,8.33,2.8,1.12.99,2.3,2.42,3.17,4.16l-5.1,2.98s0,0,0,0Z"/>
<path fill="#f7f5f0" d="M6.95,33.31h27.08c14.2,0,24.27,7.16,24.27,20.13,0,6.15-2.8,10.29-7.49,12.86,5.48,2.8,8.94,7.49,8.94,14.54,0,13.31-10.18,20.68-24.49,20.68H6.95V33.31ZM33.58,59.92c4.36,0,7.16-2.35,7.16-6.04s-2.8-6.04-7.16-6.04h-9.64v12.07h9.64ZM34.48,86.98c4.7,0,7.72-2.68,7.72-6.82s-3.02-6.82-7.72-6.82h-10.53v13.64h10.53Z"/>
<path fill="#f7f5f0" d="M62.4,67.31c0-20.58,14.56-35.01,35.57-35.01s35.57,14.44,35.57,35.01-16.55,35.45-35.57,35.45-35.57-14.08-35.57-35.45h0ZM115.95,67.31c0-10.17-7.5-18.1-17.98-18.1s-17.98,7.94-17.98,18.1,7.5,18.54,17.98,18.54,17.98-8.17,17.98-18.54Z"/>
<polygon fill="#d1f20c" points="172.38 33.41 139.12 101.65 157.75 101.65 191.04 33.41 172.38 33.41"/>
<polygon fill="#f7f5f0" points="156.23 53.83 146.26 33.41 127.64 33.41 146.9 72.93 156.23 53.83"/>
<path fill="#f7f5f0" d="M194.43,33.41h16.99v52.56h24.4v15.67h-41.39V33.41Z"/>
<path fill="#f7f5f0" d="M241.53,33.41h43.15v15.67h-26.12v10.17h26.12v15.67h-26.12v11.09h26.12v15.67h-43.15V33.41Z"/>
</svg>
