<svg xmlns="http://www.w3.org/2000/svg" width="250" height="78" viewBox="0 0 250 78" fill="none">
<rect width="250" height="78" fill="#000000"/>
<g transform="translate(30, 14)">
<path d="M110.862 19.9844L105.816 40.5012H114.007L119.255 19.1255L110.862 19.9844Z" fill="white"/>
<path d="M137.861 19.0818C135.419 18.8416 131.612 19.5949 129.729 21.0306C129.685 20.3427 129.566 19.6617 129.374 18.9999L122.123 19.9097C122.41 21.935 122.123 24.1787 121.417 27.2048L118.157 40.5102H126.346L129.696 26.9136C130.517 25.7308 131.823 24.9411 132.924 24.9411C134.285 24.9411 134.62 25.9383 134.198 27.5796L131.041 40.4993H139.229L142.743 26.4605C143.606 22.6647 142.375 19.5094 137.861 19.0818Z" fill="white"/>
<path d="M100.967 19.3475L98.3667 25.3324C97.4077 27.5815 96.567 29.6996 95.8301 31.7759L95.7318 19.3421H88.3458L82.2244 31.8778L82.8867 19.0546L74.7637 20.0772L76.4014 40.5067H83.6019C83.6019 40.5067 89.0518 29.4831 89.5413 28.1893L89.6122 40.4866H97.0019L109.194 19.3312H100.967V19.3475Z" fill="white"/>
<path d="M65.9274 18.8143C64.3083 18.783 62.7073 19.1584 61.2709 19.9061C62.0983 17.3064 62.6509 14.6272 62.9195 11.9123V11.9123C62.9683 11.2906 62.9817 10.6666 62.9595 10.0435L54.3834 11.1007C54.478 12.4782 54.2779 14.6509 53.177 19.3038L49.0336 36.4432C48.8516 37.2639 48.3749 38.8088 48 39.3929C51.36 40.5469 54.8966 41.1013 58.4485 41.0306C61.1307 41.0306 63.2488 40.5375 65.4161 39.2674C69.1318 37.0983 71.421 33.1842 72.3799 29.4047C74.1487 22.2971 71.2445 18.8143 65.9274 18.8143ZM63.7602 29.7669C62.8212 33.7119 61.5948 35.4679 59.5276 35.4679C58.8495 35.5031 58.1767 35.3311 57.5988 34.9748L59.8552 25.5853C60.4938 24.9466 61.3542 24.579 62.2571 24.559C64.1041 24.5553 64.7555 25.5798 63.7602 29.7669V29.7669Z" fill="white"/>
<path d="M116.13 16.9419C118.6 16.9419 120.601 14.9402 120.601 12.4709C120.601 10.0017 118.6 8 116.13 8C113.661 8 111.659 10.0017 111.659 12.4709C111.659 14.9402 113.661 16.9419 116.13 16.9419Z" fill="#FFCC00"/>
</g>
</svg>