<svg xmlns="http://www.w3.org/2000/svg" width="490" height="132" viewBox="0 0 490 132" fill="none">
<rect width="490" height="132" fill="#c51a1b"/>
<path d="M424.419 67.2311C424.796 62.6783 423.449 58.2437 420.649 54.7644L420.489 54.5502C417.416 50.8518 412.807 48.7318 407.843 48.7318C403.878 48.7318 399.963 50.0269 396.521 52.4769C392.532 55.3209 388.644 61.8263 384.872 68.1372L383.884 69.7895C379.464 77.1715 374.894 84.8046 368.842 89.1211C363.39 92.9992 357.134 95.0479 350.746 95.0479C342.131 95.0479 334.114 91.2288 328.746 84.5683C323.863 78.4987 321.541 70.8187 322.208 62.9442L334.168 64.0301C333.793 68.5829 335.138 73.0175 337.938 76.4968L338.098 76.711C341.171 80.4094 345.78 82.5295 350.744 82.5295C354.708 82.5295 358.623 81.2343 362.066 78.7843C366.055 75.9403 369.938 69.4423 373.715 63.124L374.705 61.4668C379.125 54.0873 383.692 46.4566 389.745 42.1402C395.194 38.262 401.453 36.2134 407.84 36.2134C416.456 36.2134 424.473 40.0324 429.841 46.693C434.724 52.7626 437.046 60.4425 436.378 68.317L424.419 67.2311Z" fill="url(#paint0_linear_0_3874)"/>
<path d="M436.378 62.9442C437.048 70.8187 434.726 78.4987 429.841 84.5683C424.473 91.2288 416.453 95.0479 407.84 95.0479C401.453 95.0479 395.196 92.9992 389.745 89.1211C383.692 84.8046 379.125 77.1739 374.705 69.7944L373.715 68.1372C369.938 61.819 366.052 55.3185 362.066 52.4769C358.623 50.0269 354.708 48.7318 350.744 48.7318C345.78 48.7318 341.171 50.8518 338.098 54.5502L337.938 54.7644C335.138 58.2437 333.793 62.6783 334.168 67.2311L322.208 68.317C321.539 60.4425 323.86 52.7626 328.746 46.693C334.114 40.0324 342.133 36.2134 350.746 36.2134C357.134 36.2134 363.39 38.262 368.842 42.1402C374.894 46.4566 379.464 54.0922 383.884 61.4718L384.872 63.124C388.644 69.4373 392.532 75.9403 396.521 78.7843C399.961 81.2343 403.876 82.5295 407.843 82.5295C412.807 82.5295 417.416 80.4094 420.489 76.711L420.649 76.4968C423.449 73.0175 424.796 68.5829 424.419 64.0301L436.378 62.9442Z" fill="white"/>
<path d="M190.489 95.2625C168.496 95.2625 160.602 79.5456 160.525 66.0866C160.484 57.7689 163.537 49.9043 168.907 44.5094C174.263 39.1218 181.726 36.2754 190.489 36.2754C198.342 36.2754 205.524 39.2646 211.256 44.9181L212.064 45.7134L207.462 50.1431C206.347 51.2142 204.847 51.8027 203.242 51.8027C202.104 51.8027 200.989 51.4925 200.016 50.9064C197.138 49.1705 193.932 48.2915 190.489 48.2915C185.215 48.2915 180.945 49.9018 177.796 53.0757C174.612 56.2891 172.812 61.0265 172.852 66.0694C172.928 74.4511 177.604 83.4065 190.492 83.4065C193.816 83.4065 197.404 82.3846 200.331 80.5995L200.523 80.4837C201.493 79.9051 202.601 79.5973 203.727 79.5973C205.46 79.5973 207.127 80.3237 208.302 81.5918L212.749 86.0806L211.958 86.8587C206.376 92.357 198.952 95.2625 190.489 95.2625Z" fill="white"/>
<path d="M252.665 94.0953V72.0871H228.205V94.0953H215.723V43.677C215.723 40.2371 218.523 37.4399 221.963 37.4399C225.4 37.4399 228.197 40.2371 228.197 43.677L228.205 60.3838H252.665L252.673 43.6721C252.673 40.2347 255.472 37.4399 258.912 37.4399C262.352 37.4399 265.149 40.2371 265.149 43.677V94.0953H252.665Z" fill="white"/>
<path d="M472.099 94.0213L452.972 73.9559V94.0188H440.493L440.483 43.5734C440.483 40.1385 443.275 37.3438 446.71 37.3438C450.145 37.3438 452.942 40.136 452.942 43.566L452.979 58.5984L470.294 39.3382C471.402 38.0652 473.008 37.3413 474.704 37.3413C477.935 37.3413 480.562 39.9686 480.562 43.1991C480.562 44.6248 480.05 45.9939 479.119 47.0576L461.632 66.0272L488.584 94.0336L472.099 94.0213Z" fill="white"/>
<path d="M132.487 94.0211V48.9091L115.216 48.8993L115.226 43.6004C115.226 40.163 118.026 37.3683 121.463 37.3683L156.005 37.356C159.447 37.356 162.247 40.1531 162.247 43.5905L162.252 48.8919L144.971 48.9091V94.0211H132.487Z" fill="white"/>
<path fill-rule="evenodd" clip-rule="evenodd" d="M94.7202 37.3608C98.5565 37.3608 102.043 39.6311 103.599 43.1399L126.462 94.0211H112.833L108.246 83.7533H81.2119L76.5459 94.0211H62.9982L85.8731 43.0759C87.4367 39.604 90.9085 37.3608 94.7202 37.3608ZM94.73 52.6715L86.3114 71.9736H103.151L94.73 52.6715Z" fill="white"/>
<path d="M47.5423 94.0163V56.7098L31.8672 78.1492H28.1541L12.4815 56.7123V94.0163H0V44.6691C0 39.9957 3.7698 36.1938 8.40387 36.1938C11.1715 36.1938 13.7619 37.5629 15.3328 39.8602L30.0107 60.0635L44.7033 39.8381C46.2668 37.5506 48.8449 36.1938 51.615 36.1938C56.2515 36.1938 60.0238 39.9957 60.0238 44.6691V94.0188H47.5423V94.0163Z" fill="white"/>
<path fill-rule="evenodd" clip-rule="evenodd" d="M314.723 64.7594L314.302 64.3137L314.659 63.8163C316.432 61.3392 317.5 58.446 317.744 55.4519C318.126 50.7981 316.589 46.3364 313.413 42.8916C310.113 39.3089 305.373 37.2554 300.407 37.2554H277.542C273.991 37.2554 271.1 40.1437 271.1 43.6968V94.0141L302.106 94.0067C311.677 94.0067 319.463 86.2184 319.463 76.645C319.46 72.2227 317.779 68.0023 314.723 64.7594ZM283.424 48.8578H300.274C303.143 48.8578 305.477 51.1921 305.477 54.0631C305.477 56.9342 303.143 59.2684 300.276 59.2684L283.424 59.2709V48.8578ZM283.424 82.4043L301.384 82.3994C304.556 82.3994 307.136 79.8164 307.136 76.6425C307.136 73.4686 304.553 70.8856 301.38 70.8856H283.424V82.4043Z" fill="white"/>
<defs>
<linearGradient id="paint0_linear_0_3874" x1="386.991" y1="116.638" x2="422.111" y2="36.8598" gradientUnits="userSpaceOnUse">
<stop offset="0.3" stop-color="white"/>
<stop offset="0.45" stop-color="white" stop-opacity="0.01"/>
<stop offset="0.55" stop-color="white" stop-opacity="0.01"/>
<stop offset="0.7" stop-color="white"/>
</linearGradient>
</defs>
</svg>