<svg xmlns="http://www.w3.org/2000/svg" xmlns:xlink="http://www.w3.org/1999/xlink" width="550px" height="160px" viewBox="0 0 550 160" version="1.1">
<rect width="550" height="160" fill="#151515"/>
<g transform="translate(30, 14)">
<path style=" stroke:none;fill-rule:nonzero;fill:rgb(85.098039%,9.803922%,12.941176%);fill-opacity:1;" d="M 284.699219 44.398438 L 300.800781 44.398438 C 303.601562 44.398438 305.800781 44.898438 307.199219 45.800781 C 308.398438 46.699219 309.101562 48.398438 309.101562 50.800781 C 309.101562 53.199219 308.398438 55.101562 307 56.300781 C 305.601562 57.5 303.398438 58.199219 300.601562 58.199219 L 284.898438 58.199219 L 284.898438 44.398438 Z M 284.699219 75 L 301.101562 75 C 304.199219 75 306.601562 75.5 308.199219 76.699219 C 309.800781 77.898438 310.601562 79.5 310.601562 81.898438 C 310.601562 84.300781 309.898438 86.398438 308.199219 87.601562 C 306.5 88.800781 303.898438 89.300781 300.101562 89.300781 L 284.699219 89.300781 C 284.699219 89.300781 284.699219 75.101562 284.699219 75.101562 Z M 310.800781 109.699219 C 321.5 109.699219 329.101562 108 333.601562 104.5 C 338.101562 100.898438 340.5 95 340.5 86.898438 C 340.5 78.800781 338.601562 75 335 71.5 C 331.199219 68.199219 325.5 66.300781 317.398438 65.800781 C 325 65.300781 330.699219 63.199219 334.199219 59.601562 C 337.699219 56 339.398438 50.601562 339.398438 43.5 C 339.398438 36.398438 337.5 30 333.699219 26.898438 C 329.898438 23.800781 323 22.199219 313.300781 22.199219 L 252.601562 22.199219 L 252.601562 109.800781 L 311.199219 109.800781 L 310.699219 109.800781 Z M 310.800781 109.699219 "/>
<path style=" stroke:none;fill-rule:nonzero;fill:rgb(85.098039%,9.803922%,12.941176%);fill-opacity:1;" d="M 375.898438 53.699219 C 378 51.800781 381.398438 50.898438 385.601562 50.898438 C 389.800781 50.898438 393.199219 51.800781 395.300781 53.699219 C 397.398438 55.601562 398.601562 58.699219 398.601562 63 L 372.300781 63 C 372.300781 59 373.5 55.898438 375.601562 53.699219 Z M 421.199219 84.5 C 415.5 86.199219 410 87.601562 404.800781 88.300781 C 399.601562 89.199219 394.800781 89.5 390.601562 89.5 C 386.398438 89.5 380.898438 88.601562 378 86.898438 C 375.101562 85.199219 373.300781 82.398438 372.800781 78.800781 L 423.300781 78.800781 C 423.300781 76.398438 423.800781 74.300781 423.800781 72.398438 L 423.800781 66.5 C 423.800781 53.699219 420.699219 44.398438 414.5 38.699219 C 408.300781 33 398.101562 30.199219 384.101562 30.199219 C 370.101562 30.199219 358.5 33.300781 352.101562 39.199219 C 345.699219 45.101562 342.398438 54.898438 342.398438 68.601562 C 342.398438 82.300781 345.699219 93 352.101562 99.699219 C 358.5 106.300781 368.699219 109.699219 382.699219 109.699219 C 396.699219 109.699219 394.101562 109.199219 400 108.300781 C 405.898438 107.398438 411.898438 105.898438 418 103.800781 L 420.800781 84.601562 L 421 84.601562 Z M 421.199219 84.5 "/>
<path style=" stroke:none;fill-rule:nonzero;fill:rgb(85.098039%,9.803922%,12.941176%);fill-opacity:1;" d="M 489.300781 88.5 C 486.5 89 484.101562 89.199219 482.199219 89.398438 C 480.300781 89.398438 478.601562 89.601562 477.199219 89.601562 C 474.101562 89.601562 472 89.101562 470.601562 87.898438 C 469.199219 87 468.5 85.300781 468.5 83.199219 L 468.5 60.398438 L 490.101562 60.398438 L 490.101562 36 L 468.5 36 L 468.5 22 L 451.199219 22 C 447.199219 26.300781 443.101562 30.5 438.898438 34.601562 C 434.898438 38.601562 430.601562 42.199219 426.300781 45.800781 L 426.300781 60.699219 L 436.5 60.699219 L 436.5 89.898438 C 436.5 97 438.398438 102.199219 442 105.300781 C 445.601562 108.398438 451.699219 109.800781 460.5 109.800781 C 469.300781 109.800781 470 109.601562 474.699219 109.101562 C 479.398438 108.601562 484 107.898438 488.199219 107 L 489.101562 88.699219 Z M 489.300781 88.5 "/>
<path style=" stroke:none;fill-rule:nonzero;fill:rgb(100%,100%,100%);fill-opacity:1;" d="M 29.199219 54.601562 C 30.398438 58.398438 31.800781 62.398438 33.199219 66.5 C 34.601562 70.601562 36.5 74.601562 38.398438 78.601562 L 52.601562 109.699219 L 86.300781 109.699219 L 86.300781 22.101562 L 56.398438 22.101562 L 56.398438 38.199219 C 56.398438 44.398438 56.398438 49.800781 56.898438 54.800781 C 57.101562 59.800781 57.601562 64.300781 58.300781 68.601562 L 57.101562 68.601562 C 55.398438 63.398438 53.800781 58.601562 52.398438 54.800781 C 51 50.800781 49.601562 47.398438 48.398438 44.601562 L 38.398438 22.101562 L 0 22.101562 L 0 109.699219 L 29.898438 109.699219 L 29.898438 86.199219 C 29.898438 79.800781 29.898438 74.101562 29.398438 68.601562 C 29.199219 63.398438 28.699219 58.601562 28 54.398438 L 28.898438 54.398438 L 29.101562 54.601562 Z M 29.199219 54.601562 "/>
<path style=" stroke:none;fill-rule:nonzero;fill:rgb(100%,100%,100%);fill-opacity:1;" d="M 123.199219 53.699219 C 125.300781 51.800781 128.699219 50.898438 132.898438 50.898438 C 137.101562 50.898438 140.5 51.800781 142.601562 53.699219 C 144.699219 55.601562 145.898438 58.699219 145.898438 63 L 119.601562 63 C 119.601562 59 120.800781 55.898438 122.898438 53.699219 Z M 168.699219 84.5 C 163 86.199219 157.5 87.601562 152.300781 88.300781 C 147.101562 89.199219 142.300781 89.5 138.101562 89.5 C 133.898438 89.5 128.398438 88.601562 125.5 86.898438 C 122.601562 85.199219 120.800781 82.398438 120.300781 78.800781 L 170.800781 78.800781 C 170.800781 76.398438 171.300781 74.300781 171.300781 72.398438 L 171.300781 66.5 C 171.300781 53.699219 168.199219 44.398438 162 38.699219 C 155.800781 33 145.601562 30.199219 131.601562 30.199219 C 117.601562 30.199219 106 33.300781 99.601562 39.199219 C 93.199219 45.101562 89.898438 54.898438 89.898438 68.601562 C 89.898438 82.300781 93.199219 93 99.601562 99.699219 C 106 106.300781 116.199219 109.699219 130.199219 109.699219 C 144.199219 109.699219 141.601562 109.199219 147.5 108.300781 C 153.398438 107.398438 159.398438 105.898438 165.5 103.800781 L 168.300781 84.601562 L 168.5 84.601562 Z M 168.699219 84.5 "/>
<path style=" stroke:none;fill-rule:nonzero;fill:rgb(100%,100%,100%);fill-opacity:1;" d="M 237.101562 88.5 C 234.300781 89 231.898438 89.199219 230 89.398438 C 228.101562 89.398438 226.398438 89.601562 225 89.601562 C 221.898438 89.601562 219.800781 89.101562 218.398438 87.898438 C 217 87 216.300781 85.300781 216.300781 83.199219 L 216.300781 60.398438 L 237.898438 60.398438 L 237.898438 36 L 216.300781 36 L 216.300781 22 L 199 22 C 195 26.300781 190.898438 30.5 186.699219 34.601562 C 182.699219 38.601562 178.398438 42.199219 174.101562 45.800781 L 174.101562 60.699219 L 184.300781 60.699219 L 184.300781 89.898438 C 184.300781 97 186.199219 102.199219 189.800781 105.300781 C 193.398438 108.398438 199.5 109.800781 208.300781 109.800781 C 217.101562 109.800781 217.800781 109.601562 222.5 109.101562 C 227.199219 108.601562 231.800781 107.898438 236 107 L 236.898438 88.699219 Z M 237.101562 88.5 "/>
</g>
</svg>