<svg xmlns="http://www.w3.org/2000/svg" viewBox="0 0 490 132" fill="none">
<!-- Brand Color: #013B29 (dark green) -->
<rect width="490" height="132" fill="#013B29"/>
<path fill-rule="evenodd" clip-rule="evenodd" d="M18.7274 59.638C15.8628 59.875 12.0006 60.4134 10.3461 60.7591L14.7368 110.726L25.9678 109.723L24.6047 94.304C26.921 94.0373 29.3016 93.6323 31.5092 92.9162C33.4354 92.2988 35.3171 91.479 36.9124 90.4171C39.3275 88.8959 41.3426 86.5598 42.7255 83.5768C43.8021 81.1024 44.3899 78.065 44.0836 74.6472C43.4663 67.5056 39.4115 63.3569 34.7343 61.2233C31.8698 59.9096 28.5755 59.4256 25.7604 59.3367C23.3897 59.2774 20.7276 59.4602 18.7274 59.638ZM29.1336 70.2615C31.0499 71.3382 32.3488 73.2644 32.5563 75.714L32.5711 75.798C32.6847 77.2056 32.5464 78.3959 32.1118 79.5417C31.7414 80.6826 30.9709 81.5518 30.1856 82.2037C29.0892 83.0878 27.5186 83.7496 25.79 84.0163C25.2764 84.1349 24.0565 84.2435 23.7651 84.2633L22.476 69.6096C23.0802 69.5178 23.5985 69.4616 24.0218 69.4156C24.1452 69.4022 24.2606 69.3897 24.3676 69.3775C26.1851 69.2145 27.7656 69.5404 29.1336 70.2615Z" fill="white"/>
<path fill-rule="evenodd" clip-rule="evenodd" d="M56.3089 99.8118L54.0715 107.245L41.8527 108.341L59.9439 55.3273L61.6182 55.189L88.3277 104.306L74.963 105.417L71.5898 98.4783L56.3089 99.8118ZM67.2633 89.2476L62.275 78.3869L59.0944 89.9736L67.2633 89.2476ZM122.549 97.1004C129.395 91.6775 132.847 83.795 132.012 74.1938V74.1346C131.365 66.8201 128.234 58.8586 120.035 54.7445C115.605 52.522 109.901 51.47 102.236 52.1318C99.855 52.3343 97.3955 52.6257 94.3581 53.0208C91.7114 53.366 90.1435 53.6756 88.9365 53.9138C88.7966 53.9415 88.6615 53.9681 88.5302 53.9938L92.8863 103.62C94.2445 103.625 96.1953 103.6 97.519 103.546C99.5982 103.432 102.705 103.239 105.885 102.928C112.588 102.35 118.376 100.405 122.549 97.1004ZM119.714 75.557C119.319 70.9934 117.403 67.0077 113.936 64.7408C111.57 63.185 108.444 62.4195 104.587 62.7554C103.381 62.869 102.176 63.0961 101.327 63.2591L103.856 91.9096C103.86 92.0162 103.916 92.015 103.978 92.0136C103.985 92.0135 103.992 92.0133 103.999 92.0133C104.932 92.0578 105.964 92.043 106.942 91.9491C109.856 91.6973 112.597 90.6206 114.83 88.7734C118.099 85.9336 120.248 81.5775 119.714 75.6014V75.557ZM170.372 92.8776C177.208 87.5041 180.69 79.6167 179.84 70.0353V69.9612C179.193 62.6467 176.072 54.6852 167.868 50.5267C163.428 48.3634 157.729 47.2917 150.074 47.9683C147.683 48.1758 140.961 49.0351 136.388 49.7858L140.71 99.4316C142.078 99.4316 144.024 99.3772 145.342 99.3377C147.426 99.2389 150.528 99.0167 153.724 98.745C160.431 98.1524 166.224 96.246 170.372 92.8776ZM167.543 71.3737C167.152 66.7806 165.236 62.8344 161.774 60.523C159.398 58.9821 156.277 58.2066 152.43 58.5524C151.348 58.6531 150.267 58.843 149.461 58.9846L149.461 58.9846C149.357 59.0028 149.259 59.0201 149.165 59.0364L151.684 87.7313C151.684 87.8548 151.743 87.8548 151.827 87.8548C152.775 87.8943 153.793 87.8647 154.775 87.7857C157.684 87.5288 160.445 86.4423 162.648 84.5556C165.923 81.7207 168.076 77.414 167.543 71.4429V71.3737ZM209.819 93.6382L207.987 72.3763L222.028 42.0268L209.36 43.1332L201.068 61.4466L190.019 44.842L176.66 46.0224L196.129 74.0259L197.961 94.6803L209.819 93.6382ZM225.515 41.9182C227.16 41.5626 231.032 41.044 233.887 40.8218C235.897 40.6637 238.549 40.481 240.949 40.5304C243.73 40.6143 247.034 41.0687 249.903 42.3824C254.585 44.5012 258.621 48.719 259.243 55.8508C259.539 59.2142 258.961 62.2664 257.885 64.7852C256.541 67.7239 254.487 70.0452 252.086 71.6256C250.471 72.6776 248.644 73.453 246.683 74.0802C244.466 74.7964 242.08 75.2063 239.808 75.473L241.152 90.8922L229.896 91.8849L225.515 41.9182ZM244.288 51.4354C246.204 52.4924 247.553 54.4531 247.775 56.9275V56.9719C247.893 58.3647 247.745 59.55 247.325 60.6909C246.891 61.8417 246.135 62.7455 245.345 63.4073C244.253 64.2815 242.688 64.9334 240.974 65.1853C240.485 65.2841 239.235 65.3927 238.924 65.4174L237.64 50.7786C238.368 50.6471 238.988 50.5871 239.485 50.539L239.485 50.539L239.561 50.5316C241.359 50.3736 242.93 50.6995 244.288 51.4354ZM317.418 58.6956C318.722 73.4728 308.577 85.7854 293.405 87.114C278.509 88.4326 266.044 78.1104 264.819 63.6542C263.555 49.1388 274.025 36.841 289.355 35.4976C304.414 34.1691 316.139 44.2493 317.413 58.6314L317.418 58.6956ZM290.042 46.462C298.132 45.7557 304.577 51.7169 305.293 59.955L305.303 60.0192C306.009 68.3808 301.135 75.4137 292.65 76.1398C284.085 76.9102 277.675 70.949 276.929 62.5776C276.183 54.0234 281.631 47.2028 290.042 46.462ZM369.553 80.6539L367.948 80.8021L350.657 52.2899L338.359 83.3703L336.778 83.5036L316.662 33.7345L328.896 32.717L338.048 55.8162L348.311 31.3292L349.99 31.1811L364.387 53.3122L369.207 29.1857L380.433 28.1782L369.553 80.6539ZM411.247 25.4766L384.493 27.8226L388.874 77.982L415.875 75.5915L415.006 65.5607L399.902 66.8942L398.999 56.5818L412.101 55.4261L411.247 45.4594L398.119 46.5854L397.245 36.762L412.111 35.4532L411.247 25.4766ZM419.352 24.9432C420.448 24.7556 422.251 24.479 423.91 24.2666C425.333 24.069 428.425 23.7332 430.183 23.5949C434.317 23.2344 437.576 23.3282 440.554 23.8616C444.985 24.637 451.089 27.7633 451.899 37.0139C452.388 42.5356 450.082 46.7731 448.225 48.5659C447.173 49.6574 445.992 50.7539 445.232 51.1539L445.261 51.3268C445.725 51.9491 461.515 71.6552 461.515 71.6552L448.066 72.8109C448.066 72.8109 439.236 60.8045 434.524 54.5568L433.368 54.6655L435.062 73.9123L423.747 74.905L419.352 24.9432ZM433.754 33.2208C437.64 32.8899 440.233 34.984 440.569 38.9351V39.0141C440.811 41.7404 439.572 43.7258 438.48 44.6148C437.448 45.4989 436.001 46.1311 434.317 46.2792C433.749 46.3286 433.082 46.3829 432.637 46.3583L431.511 33.5418C431.557 33.533 431.602 33.5241 431.647 33.5152C432.186 33.4093 432.751 33.2982 433.754 33.2208Z" fill="white"/>
<path d="M479.148 64.4054C479.138 68.2479 476.061 71.389 472.159 71.389C468.263 71.3643 465.082 68.2084 465.092 64.3659C465.116 60.4741 468.287 57.3132 472.179 57.328C476.101 57.328 479.153 60.5037 479.148 64.4054Z" fill="#67B547"/>
</svg>
