<svg xmlns="http://www.w3.org/2000/svg" viewBox="0 0 490 132" fill="none">
<!-- Brand Color: #002C91 (dark blue) -->
<rect width="490" height="132" fill="#002C91"/>
<rect x="231.632" y="1" width="232.483" height="130" rx="8.66667" fill="url(#paint0_linear_0_2384)"/>
<path opacity="0.4" d="M237.872 65.5017H238.684C264.327 64.5917 457.637 57.8533 457.637 57.8533C459.376 57.8535 461.042 57.1568 462.264 55.919C463.485 54.6812 464.16 53.0055 464.137 51.2667V9.66667C464.137 4.8802 460.256 1 455.47 1H240.298C235.512 1 231.632 4.8802 231.632 9.66667V72.24C231.539 68.6729 234.308 65.6827 237.872 65.5017Z" fill="url(#paint1_linear_0_2384)"/>
<path fill-rule="evenodd" clip-rule="evenodd" d="M106.106 90.9818C106.106 96.9618 103.755 100.407 92.0225 100.407C90.6483 100.408 89.2759 100.306 87.9167 100.103V20.8251C87.9167 14.7909 89.9642 8.50759 101.751 8.50759C103.229 8.5002 104.703 8.64909 106.149 8.95175L106.106 90.9818ZM153.881 121.651C156.611 122.859 159.562 123.486 162.548 123.493C169.34 123.644 173.034 121.044 175.786 114.967L212.175 33.8901C209.787 32.8132 207.21 32.2169 204.592 32.1351C199.89 32.0376 193.596 32.9909 189.598 42.5568L177.833 70.3334L154.726 32.7418C152.181 32.076 149.567 31.7123 146.937 31.6584C138.747 31.6584 134.197 34.6593 129.452 39.7943L106.973 64.2993L125.053 92.7259C128.401 97.9151 132.799 100.548 139.949 100.548C143.507 100.602 147.04 99.9424 150.338 98.6084L128.553 65.8484L143.99 49.4901L169.318 89.1834L153.881 121.651ZM59.8692 99.8976C74.7 98.2943 81.9908 90.1693 81.9908 79.0001C81.9908 69.3909 76.0542 61.5584 62.2633 59.0776L48.83 56.5859C44.5292 55.8384 41.8317 54.6793 41.8317 52.3934C41.8317 50.1076 44.7892 48.2118 51.5275 48.2118C55.3753 48.2118 58.9476 48.4378 62.0124 48.6318C64.3147 48.7775 66.3305 48.9051 67.9617 48.9051C72.9017 48.9051 78.0475 46.8359 78.0475 37.0859C78.0397 35.8298 77.9054 34.5776 77.6467 33.3484C70.3017 32.4059 56.9225 31.0626 45.9267 32.2651C31.3883 33.8576 24 42.5784 24 53.0001C24 61.5584 30.24 69.6401 41.9617 71.9476L56.045 74.6343C61.1908 75.6418 63.8342 76.7793 63.8342 79.5742C63.8342 81.6651 61.8083 83.9076 55.1675 83.9076C52.0583 83.9076 48.383 83.6654 44.8473 83.4324C41.5704 83.2165 38.4135 83.0084 35.9383 83.0084C30.9983 83.0084 25.7442 85.1751 25.7442 94.9251C25.7719 96.233 25.9243 97.5353 26.1992 98.8143C33.5875 99.6917 49.1225 101.046 59.8692 99.8976Z" fill="#EBEBEB"/>
<path fill-rule="evenodd" clip-rule="evenodd" d="M101.708 8.49677C89.9208 8.49677 87.9167 14.7909 87.9167 20.8251V75.1543C87.9274 72.6638 89.9122 70.6311 92.4017 70.5609L101.534 70.2468C102.761 70.2439 103.936 69.7538 104.802 68.8842C105.667 68.0147 106.152 66.837 106.149 65.6101V8.95177C104.689 8.64241 103.2 8.48988 101.708 8.49677ZM154.726 32.7418L177.259 69.3584C176.648 68.3696 175.583 67.7517 174.421 67.7118L159.688 68.2318C157.627 68.2824 155.662 67.3641 154.379 65.7509L144.012 49.5009L128.574 65.8593L132.593 71.9043C131.256 70.1464 129.119 69.1876 126.917 69.3584L114.09 69.7593C111.968 69.874 109.944 68.8557 108.771 67.0834L106.973 64.2993L129.452 39.7943C134.197 34.6593 138.747 31.6584 146.937 31.6584C149.567 31.7124 152.181 32.076 154.726 32.7418ZM198.839 63.5626L212.175 33.8901C209.788 32.8095 207.211 32.2095 204.592 32.1243C199.89 32.0268 193.596 32.9801 189.598 42.5459L178.157 69.5042C178.139 69.5454 178.121 69.5871 178.104 69.6293L178.157 69.5042C178.679 68.3389 179.802 67.5507 181.083 67.4626L193.293 67.0834C195.665 67.075 197.822 65.7058 198.839 63.5626ZM48.83 56.5209L62.2633 59.0126C76.0542 61.5584 81.9908 69.3909 82.0125 79.0109C82.0125 79.3618 81.9931 79.707 81.9739 80.0482C81.9683 80.147 81.9628 80.2455 81.9578 80.3437C81.8544 75.5501 78.6458 71.0505 73.01 71.2434L56.9767 71.8068C51.9513 71.95 46.9226 71.6855 41.94 71.0159C38.0945 70.5207 34.4001 69.2055 31.1067 67.1593C26.6666 63.8 24.0404 58.5676 24 53.0001C24 42.5568 31.3883 33.8359 45.9808 32.2001C56.9767 31.0409 70.3558 32.3843 77.7008 33.2834C77.9596 34.5127 78.0939 35.7648 78.1017 37.0209C78.1017 46.7493 72.9558 48.8401 68.0158 48.8401C66.3958 48.8401 64.4257 48.7143 62.1643 48.5698C59.1177 48.3752 55.5424 48.1468 51.5817 48.1468C44.6808 48.1468 41.8317 49.8801 41.8317 52.3284C41.8317 54.7768 44.4967 55.7734 48.83 56.5209ZM81.9578 80.3437C81.9458 80.5763 81.9367 80.8072 81.9367 81.0368V81.1018V81.3076C81.9577 80.9859 81.9647 80.6641 81.9578 80.3437Z" fill="url(#paint2_linear_0_2384)"/>
<path fill-rule="evenodd" clip-rule="evenodd" d="M291.15 98.6192C306.544 98.6192 320.627 86.7459 320.627 66.7151C320.627 46.8034 306.587 34.9409 291.107 34.9517C282.772 34.8303 274.887 38.7244 269.917 45.4167V14.6501C268.325 14.31 266.702 14.1394 265.074 14.1409C260.86 14.1409 259.462 15.6684 259.462 18.0951V97.4709C261.055 97.8055 262.678 97.9761 264.305 97.9801C268.519 97.9801 269.917 96.5717 269.917 94.0259V88.1542C274.904 94.8492 282.803 98.7421 291.15 98.6192ZM289.102 44.1276C301.106 44.1276 310.032 53.3142 310.032 66.7151H310C310 80.2351 301.106 89.4326 289.059 89.4326C281.018 89.4138 273.648 84.9427 269.917 77.8192V55.7409C273.655 48.6036 281.045 44.1303 289.102 44.1276Z" fill="white"/>
<path fill-rule="evenodd" clip-rule="evenodd" d="M341.2 70.5392H388.672C388.894 68.5067 388.999 66.463 388.986 64.4184C388.986 49.6093 379.702 34.9409 360.819 34.9409C344.147 34.9409 330.486 48.1684 330.486 66.5851C330.486 85.7276 343.378 98.6193 362.52 98.6193C370.368 98.4554 378.104 96.7204 385.27 93.5168C385.779 87.8942 383.862 85.4676 380.937 85.4676C379.933 85.4676 378.816 85.8385 376.279 86.6808L376.083 86.7459C371.84 88.2554 367.371 89.032 362.867 89.0426C350.766 89.0426 342.608 82.4559 341.2 70.5392ZM378.846 62.3709H341.2C342.858 50.2484 351.405 43.7376 360.852 43.7376C371.696 43.7376 378.467 51.9059 378.846 62.3709Z" fill="white"/>
<path d="M438.754 94.4049C433.264 97.0876 427.249 98.5265 421.139 98.6191C409.017 98.6191 401.737 91.4691 401.737 79.6066V26.9024C401.737 24.2157 403.275 22.4282 407.359 22.4282C408.992 22.4661 410.615 22.6804 412.202 23.0674V36.3382H436.035C436.259 37.7326 436.39 39.1405 436.425 40.5524C436.425 44.2574 434.887 45.5249 432.59 45.5249H412.202V78.8374C412.202 85.9874 415.528 89.4324 422.288 89.4324C428.408 89.4324 431.853 86.7457 434.789 86.7457C437.725 86.7457 439.393 89.3024 438.754 94.4049Z" fill="white"/>
<defs>
<linearGradient id="paint0_linear_0_2384" x1="231.632" y1="1" x2="231.632" y2="131" gradientUnits="userSpaceOnUse">
<stop offset="0.4" stop-color="#FF0000"/>
<stop offset="1" stop-color="#D42321"/>
</linearGradient>
<linearGradient id="paint1_linear_0_2384" x1="454.322" y1="63.3456" x2="454.109" y2="-1.40111" gradientUnits="userSpaceOnUse">
<stop stop-color="white"/>
<stop offset="0.12" stop-color="white" stop-opacity="0.83"/>
<stop offset="0.27" stop-color="white" stop-opacity="0.66"/>
<stop offset="0.42" stop-color="white" stop-opacity="0.51"/>
<stop offset="0.57" stop-color="white" stop-opacity="0.4"/>
<stop offset="0.72" stop-color="white" stop-opacity="0.32"/>
<stop offset="0.86" stop-color="white" stop-opacity="0.27"/>
<stop offset="1" stop-color="white" stop-opacity="0.25"/>
</linearGradient>
<linearGradient id="paint2_linear_0_2384" x1="175.249" y1="69.1408" x2="175.022" y2="25.5948" gradientUnits="userSpaceOnUse">
<stop stop-color="white"/>
<stop offset="0.12" stop-color="white" stop-opacity="0.83"/>
<stop offset="0.27" stop-color="white" stop-opacity="0.66"/>
<stop offset="0.42" stop-color="white" stop-opacity="0.51"/>
<stop offset="0.57" stop-color="white" stop-opacity="0.4"/>
<stop offset="0.72" stop-color="white" stop-opacity="0.32"/>
<stop offset="0.86" stop-color="white" stop-opacity="0.27"/>
<stop offset="1" stop-color="white" stop-opacity="0.25"/>
</linearGradient>
</defs>
</svg>
