<svg xmlns="http://www.w3.org/2000/svg" width="550" height="160" viewBox="0 0 550 160" fill="none">
<rect width="550" height="160" fill="#0d0d0d"/>
<g transform="translate(30, 14)">
<path d="M428.314 104.367H416.074V56.9472H405.861V46.4096H416.074V28.7793H428.314V46.4096H440.352V56.9472V56.9472H428.314V104.367Z" fill="white"/>
<path d="M467.101 105.015C462.318 105.015 457.252 103.556 453.24 100.719C448.336 97.2331 445.539 91.5184 445.539 85.5201V85.5201H456.847V85.6822C456.969 87.9113 457.982 90.0594 459.806 91.3969C460.17 91.6806 460.535 91.8832 460.94 92.0859L460.981 92.1264C463.453 93.5854 466.29 94.1934 469.654 93.9907C474.437 93.6665 477.639 90.951 477.72 87.1413C477.801 83.8989 475.45 81.6698 470.627 80.5755L462.845 78.7517C451.254 75.6309 446.269 69.5515 447.201 59.6218V59.6218C448.052 51.1917 456.969 44.626 467.506 44.626C475.693 44.626 481.975 47.7062 485.299 53.1371C486.839 55.65 487.568 58.6086 487.528 61.5673V61.8915H475.693V61.8915C475.734 59.9461 474.842 58.0412 473.221 56.9469C471.802 55.9742 469.897 55.4473 467.749 55.4473C463.859 55.4473 460.576 57.3522 459.806 60.1082C459.36 61.851 459.36 63.0263 459.887 64.2017C460.738 65.985 462.683 67.2414 466.209 68.2546L474.558 70.3216C481.489 72.0238 489.716 76.401 489.716 87.425C489.716 92.6533 487.366 97.1115 482.907 100.394C478.733 103.394 473.14 105.015 467.101 105.015Z" fill="white"/>
<path d="M157.821 104.407H145.581V71.6996C145.581 62.621 140.921 57.2306 133.179 57.2306C129.208 57.1495 125.763 58.487 123.209 60.9998C120.291 63.8774 118.67 68.214 118.67 73.1586V104.407H106.43V71.578C106.43 62.702 101.931 57.2306 94.7577 57.2306C87.3813 57.2306 79.5591 61.4051 79.5591 73.1586V104.407H67.2787V46.4092H79.5186V53.3398C81.0182 51.2322 83.1663 49.4084 85.9223 47.9899C88.5972 46.6119 91.8395 45.6392 94.5955 45.4365C96.8247 45.3149 98.9727 45.4365 100.959 45.8013C107.889 46.8551 112.834 50.3406 115.711 56.1363C120.899 47.1388 129.208 45.1934 135.368 45.1934C142.582 45.1934 148.216 47.5035 152.107 52.0023C155.916 56.4605 157.862 62.8236 157.862 70.9295V104.407H157.821Z" fill="white"/>
<path fill-rule="evenodd" clip-rule="evenodd" d="M175.938 97.3546C181.369 102.705 188.705 105.623 196.608 105.623C204.592 105.623 211.928 102.299 215.94 96.9899V104.407H228.059V46.4092H215.94V53.5829C212.009 48.4357 204.633 45.1934 196.608 45.1934C188.664 45.1934 181.328 48.0709 175.938 53.3398C170.223 58.9328 167.184 66.5523 167.184 75.3472C167.184 83.98 170.304 91.8021 175.938 97.3546ZM179.707 75.2256C179.707 64.8096 187.205 57.2306 197.581 57.2306C206.416 57.2306 215.819 63.5126 215.819 75.2256C215.819 87.8302 206.376 93.5854 197.581 93.5854C187.408 93.5854 179.707 85.7227 179.707 75.2256Z" fill="white"/>
<path d="M343.608 104.407H327.396L301.62 76.8875V104.407H288.691V12.0811H301.62V65.4582L319.574 46.3689H335.867L312.481 71.1729L343.608 104.407Z" fill="white"/>
<path d="M252.984 104.407H240.136V46.4097H252.984V53.2591C257.078 48.7198 262.387 46.4097 268.75 46.4097C273.127 46.4907 277.059 47.7471 280.463 50.1384C280.868 50.4221 281.882 51.0705 282.368 51.3948C282.53 51.5164 282.571 51.7595 282.449 51.9217L273.289 63.2699C273.127 63.4725 272.803 63.5536 272.56 63.3915C272.114 63.1483 271.425 62.743 270.898 62.4593C268.75 61.2434 266.683 60.3923 264.495 60.3923C261.495 60.3923 258.861 61.4055 256.713 63.432L256.672 63.4725C254.281 65.4585 253.025 68.7413 252.944 73.1996L252.984 104.407V104.407Z" fill="white"/>
<path fill-rule="evenodd" clip-rule="evenodd" d="M372.181 45.1934C380.287 45.1934 387.582 48.0709 392.77 53.3398C398.16 58.8112 400.998 66.3902 400.957 75.2661V80.2513H355.686C355.483 80.2513 355.28 80.3323 355.159 80.4944C355.037 80.6566 354.997 80.8997 355.037 81.1024C356.861 89.2082 363.711 94.4771 372.546 94.4771C378.261 94.4771 383.448 92.2074 386.731 88.3166L394.472 96.5846C389.082 102.34 381.098 105.623 372.181 105.623C354.997 105.623 342.514 92.8154 342.514 75.2256C342.514 66.4307 345.472 58.8518 351.146 53.3398C351.633 52.8534 352.16 52.4076 352.687 51.9618L352.687 51.9618C355.524 49.6111 358.806 47.8278 362.373 46.6929C365.453 45.7202 368.736 45.1934 372.181 45.1934ZM355.078 69.3489C354.956 69.9163 354.875 70.4026 354.875 70.4026H388.758C388.758 70.4026 388.636 69.9163 388.514 69.3894C386.731 61.324 380.571 56.3795 372.141 56.3795H371.411C367.115 56.5416 363.386 57.9196 360.509 60.3108C357.834 62.5399 355.929 65.6202 355.078 69.3489Z" fill="white"/>
<path d="M53.6609 12.0811L52.7692 14.3102L46.6088 29.5492C46.5277 29.5087 46.4467 29.4276 46.3656 29.3466C44.1365 27.7254 41.5426 26.3879 38.7866 25.4152L44.2175 12.0405H53.6609V12.0811Z" fill="#0CCD93"/>
<path d="M14.5906 108.946L9.68652 121.064H0.243179L1.13483 118.835L7.01158 104.285C9.20017 106.15 11.7535 107.73 14.5906 108.946Z" fill="#0CCD93"/>
<path d="M1.78329 50.2599C1.78329 36.4394 14.6311 28.2119 26.9926 28.2119C41.0157 28.2119 51.067 36.642 52.0397 49.1656C52.1208 50.0978 52.1208 51.9216 52.1208 51.9216H40.4078C40.4078 51.9216 40.4078 50.5436 40.2051 49.4088C40.2051 49.4088 40.0835 48.8008 40.0835 48.7603C40.043 48.5982 40.0025 48.3955 39.962 48.2334C39.9214 48.0308 39.8809 47.8687 39.7998 47.666C39.7593 47.4634 39.6782 47.3012 39.6377 47.1391C38.9082 45.1532 37.6518 43.4915 35.9495 42.2351C35.7874 42.1135 35.6253 41.9919 35.4632 41.9108C35.3011 41.8298 35.1795 41.7082 35.0174 41.6271C34.8958 41.5461 34.7742 41.465 34.6526 41.4245C34.5715 41.384 34.45 41.3029 34.3689 41.2624C34.1257 41.1408 33.842 41.0192 33.5988 40.8976C33.3557 40.776 33.072 40.6544 32.7883 40.5734V40.5734C31.5724 40.1275 30.2349 39.8033 28.7759 39.6817C28.1679 39.6007 27.5194 39.6007 26.8304 39.6007C20.2647 39.6007 13.4963 43.5725 13.4963 50.2194C13.4963 51.8405 13.4963 56.4609 20.9132 59.1763L16.6981 69.6329C6.80894 65.9448 1.78329 59.4601 1.78329 50.2599Z" fill="white"/>
<path d="M54.3093 86.8171C52.8503 99.0164 42.3937 107.244 28.33 107.244C21.2779 107.244 14.6311 104.934 9.60545 100.719C4.78246 96.7063 1.6617 91.0727 1.21587 85.5607C1.09429 84.1827 1.21587 82.7236 1.21587 82.7236H12.6857C12.6857 82.7236 12.7262 83.6558 12.8883 84.588C13.0504 85.358 13.2936 86.2902 13.4557 86.6955C13.4963 86.7766 13.5368 86.8576 13.5368 86.9792C13.6584 87.344 13.8205 87.7087 14.0232 88.0735C14.0637 88.1546 14.1042 88.2356 14.1447 88.3572C14.1853 88.4383 14.2258 88.5193 14.3069 88.6409C14.5095 88.9651 14.7122 89.3299 14.9553 89.6541V89.6541C15.0364 89.8163 15.158 89.9379 15.2796 90.1C16.0496 91.1132 17.0223 92.0859 18.1166 92.8965C18.1977 92.9776 18.2787 93.0181 18.4003 93.0991C18.4814 93.1802 18.5624 93.2207 18.684 93.3018C20.1026 94.2745 21.7643 95.0446 23.6286 95.5714C25.0877 95.9767 26.6278 96.1794 28.2895 96.1794C34.4905 96.1794 41.5426 93.4639 42.7179 85.8039C43.2854 78.4275 37.2059 75.1446 32.4235 73.6856L36.6385 63.229C42.3937 65.0934 46.8519 67.8088 49.8511 71.2133C53.5798 75.4283 55.0794 80.6972 54.3093 86.8171Z" fill="white"/>
<path d="M36.517 54.9205V54.9205L35.5443 57.2712L27.8437 76.32L22.5749 89.3704C22.3317 89.2488 22.129 89.0867 21.9264 88.9651C21.9264 88.9651 21.8048 88.8841 21.7643 88.8841L21.5211 88.6814C16.8197 85.358 17.5087 79.2381 17.7113 78.0627C17.7113 77.9411 17.7519 77.8195 17.7924 77.698L19.0893 74.4961L26.7494 55.5284L31.3697 44.1396L32.2614 44.5449C36.8817 46.9767 36.517 54.9205 36.517 54.9205Z" fill="#0CCD93"/>
</g>
</svg>