<svg xmlns="http://www.w3.org/2000/svg" viewBox="0 0 550 160" fill="none">
<rect width="550" height="160" fill="#000000"/>
<g transform="translate(30, 14)">
<path opacity="0.95" d="M303.885 92.8713C293.451 92.8713 284.992 101.415 284.992 111.954C284.992 122.495 293.451 131.037 303.885 131.037C314.316 131.037 322.775 122.495 322.775 111.954C322.775 101.415 314.316 92.8713 303.885 92.8713Z" fill="#3AAA35"/>
<path d="M342.921 92.8708C332.487 92.8708 324.028 101.414 324.028 111.954C324.028 122.494 332.487 131.037 342.921 131.037C353.354 131.037 361.814 122.494 361.814 111.954C361.814 101.414 353.354 92.8708 342.921 92.8708Z" fill="#3AAA35"/>
<path opacity="0.55" d="M147.733 92.8713C137.302 92.8713 128.844 101.415 128.844 111.954C128.844 122.495 137.302 131.037 147.733 131.037C158.168 131.037 166.626 122.495 166.626 111.954C166.626 101.415 158.168 92.8713 147.733 92.8713Z" fill="#3AAA35"/>
<path opacity="0.65" d="M186.771 92.8713C176.337 92.8713 167.879 101.414 167.879 111.953C167.879 122.493 176.337 131.037 186.771 131.037C197.205 131.037 205.665 122.493 205.665 111.953C205.665 101.414 197.205 92.8713 186.771 92.8713Z" fill="#3AAA35"/>
<path opacity="0.85" d="M264.847 92.8713C254.413 92.8713 245.954 101.415 245.954 111.953C245.954 122.493 254.413 131.037 264.847 131.037C275.281 131.037 283.74 122.493 283.74 111.953C283.74 101.415 275.281 92.8713 264.847 92.8713Z" fill="#3AAA35"/>
<path opacity="0.75" d="M225.754 92.8726C215.319 92.8726 206.861 101.415 206.861 111.954C206.861 122.496 215.319 131.037 225.754 131.037C236.186 131.037 244.645 122.496 244.645 111.954C244.645 101.415 236.186 92.8726 225.754 92.8726Z" fill="#3AAA35"/>
<path d="M361.317 56.7108L328.5 56.6795L328.504 43.9734L346.057 43.9933C346.057 43.9933 346.058 43.9933 346.059 43.9933C346.444 43.9933 346.815 43.8403 347.088 43.5672C347.361 43.2947 347.516 42.9241 347.516 42.5371L347.524 28.8429C347.524 28.0391 346.873 27.3868 346.069 27.3854L328.526 27.364L328.531 16.6617L359.38 16.6845C359.38 16.6845 359.38 16.6845 359.381 16.6845C360.185 16.6845 360.836 16.0336 360.838 15.2298L360.856 1.5384C360.857 1.15142 360.704 0.780804 360.431 0.507651C360.158 0.23378 359.787 0.0801266 359.401 0.0794181L310.343 0.0324707C310.343 0.0324707 310.343 0.0324707 310.342 0.0324707C309.956 0.0324707 309.586 0.185416 309.313 0.458569C309.039 0.731013 308.885 1.10163 308.885 1.4879L308.827 71.8249C308.826 72.6294 309.478 73.2824 310.282 73.2832L361.305 73.3294C361.305 73.3294 361.305 73.3294 361.306 73.3294C361.692 73.3294 362.062 73.1765 362.335 72.9033C362.608 72.6302 362.763 72.2602 362.763 71.8733L362.772 58.1684C362.773 57.3645 362.121 56.7115 361.317 56.7108Z" fill="white"/>
<path d="M190.526 0.0324909L174.013 0.0246582H174.012C173.626 0.0246582 173.255 0.178312 172.982 0.450756C172.709 0.723918 172.555 1.09453 172.555 1.48079L172.546 38.1794L156.504 0.913144C156.274 0.378923 155.748 0.0324909 155.166 0.0324909H133.961C133.156 0.0324909 132.504 0.684804 132.504 1.48933L132.501 71.8647C132.501 72.6693 133.152 73.3216 133.957 73.3216L150.699 73.3273C150.7 73.3273 150.7 73.3273 150.7 73.3273C151.086 73.3273 151.457 73.1736 151.73 72.9005C152.003 72.6273 152.157 72.2567 152.157 71.8704L152.161 30.2678L170.638 72.4452C170.87 72.9745 171.394 73.3166 171.972 73.3173L190.523 73.3294H190.524C190.91 73.3294 191.281 73.1758 191.554 72.9033C191.827 72.6302 191.981 72.2588 191.981 71.8726L191.982 1.48934C191.982 0.684794 191.33 0.0331994 190.526 0.0324909Z" fill="white"/>
<path d="M118.2 0.0305885L99.5956 0.0246582C99.4109 0.0246582 99.2301 0.0994906 99.0997 0.22953C98.9674 0.361792 98.8946 0.537022 98.8946 0.723006V45.9075C98.8946 50.8626 94.8635 54.8937 89.9086 54.8937C84.9534 54.8937 80.922 50.8626 80.922 45.9075V8.83826L80.9215 8.839L80.9211 6.19417L80.922 0.728558C80.922 0.343632 80.6081 0.0305788 80.2223 0.0305788L61.6181 0.0246582C61.4307 0.0246582 61.2545 0.0972679 61.1222 0.22953C60.99 0.361792 60.9171 0.537032 60.9171 0.723006V45.9075C60.9171 61.8931 73.9226 74.8987 89.9086 74.8987C105.894 74.8987 118.9 61.8931 118.9 45.9075V6.19307L118.899 6.19417L118.9 0.728558C118.9 0.343642 118.586 0.0305885 118.2 0.0305885Z" fill="white"/>
<path d="M225.271 1.51352C225.272 0.708981 224.621 0.0566779 223.816 0.0559597L207.051 0.0246582C207.05 0.0246582 207.05 0.0246582 207.05 0.0246582C206.246 0.0246582 205.593 0.676253 205.593 1.48008L205.583 71.7929C205.583 72.1799 205.736 72.5505 206.009 72.8236C206.282 73.0975 206.652 73.2512 207.039 73.2512L223.807 73.2768H223.808C224.194 73.2768 224.564 73.1238 224.837 72.8507C225.111 72.5775 225.264 72.2069 225.264 71.8206L225.271 1.51352Z" fill="white"/>
<path fill-rule="evenodd" clip-rule="evenodd" d="M289.996 33.6418C293.79 30.0953 296.175 25.0609 296.175 19.4581C296.175 8.7253 287.474 0.0246582 276.741 0.0246582C276.663 0.0246582 276.586 0.0301298 276.509 0.0355965L276.509 0.0355981C276.446 0.0401377 276.382 0.0446736 276.318 0.0460694L267.208 0.0246582V0.0426626L240.365 0.0324423H240.363C239.559 0.0324423 238.907 0.684105 238.906 1.48858L238.873 71.8127C238.873 72.1991 239.025 72.5696 239.298 72.8434C239.572 73.1166 239.943 73.2704 240.329 73.2704L267.208 73.2758V73.2768H272.011H272.032H276.389C288.63 73.2768 298.554 63.3534 298.554 51.1124C298.554 44.0066 295.197 37.698 289.996 33.6418ZM258.123 14.6882H272.797C275.684 14.6882 278.025 17.0288 278.025 19.9161C278.025 22.8035 275.684 25.1441 272.797 25.1441H258.123V14.6882ZM272.555 55.8095C272.565 55.8095 272.575 55.8109 272.585 55.8109C276.807 55.8109 280.229 52.3886 280.229 48.167C280.229 43.9456 276.807 40.5233 272.585 40.5233H258.123V55.8095H272.555Z" fill="white"/>
<path d="M429.316 0.56314C429.043 0.289977 428.673 0.135615 428.286 0.134907L373.28 0.0324707C373.279 0.0324707 373.279 0.0324707 373.278 0.0324707C372.475 0.0324707 371.823 0.683357 371.821 1.48647L371.798 15.0527C371.796 15.8579 372.447 16.5109 373.252 16.5124L390.518 16.5479L390.426 71.8263C390.426 72.2126 390.579 72.5832 390.852 72.8571C391.124 73.1309 391.495 73.2846 391.881 73.2853L409.279 73.3081C409.28 73.3081 409.281 73.3081 409.282 73.3081C410.085 73.3081 410.737 72.6572 410.738 71.8533L410.825 16.5764L428.257 16.6105C428.258 16.6105 428.259 16.6105 428.26 16.6105C429.063 16.6105 429.715 15.9596 429.716 15.1565L429.741 1.59461C429.741 1.20762 429.588 0.837001 429.316 0.56314Z" fill="white"/>
</g>
</svg>
