<svg viewBox="0 0 490 132" xmlns="http://www.w3.org/2000/svg"><rect width="490" height="132" fill="#00003c"/><path fill-rule="evenodd" clip-rule="evenodd" d="M18.0065 85.8297C20.6478 101.069 31.6507 112.412 50.3003 112.412H486.345V114.931H48.5599C32.4486 114.931 16.672 103.564 14.3217 84.3922C9.10543 81.6637 4 75.9267 4 67.3196C4 35.5852 40.7537 16 74.1059 16C99.4657 16 114.105 25.3387 120.11 31.345L119.555 31.9925C109.796 24.913 94.0801 19.7887 78.6509 19.7887C40.0261 19.7887 7.27888 45.9445 7.27888 67.4275C7.27888 74.8436 10.4766 79.2214 14.0782 81.6123C14.0386 80.8803 14.0188 80.1378 14.0188 79.3848C14.0188 52.6221 34.7019 36.789 49.6756 36.789C56.5096 33.0656 64.3247 30.7599 72.5031 30.7599C80.2181 30.7599 85.8017 32.8884 89.1034 35.7881C92.4634 33.6369 95.8789 32.0588 98.245 32.0588C102.451 32.0588 102.643 38.2978 89.5479 38.9007C83.9388 46.0106 78.5533 56.6715 73.3602 66.9515C67.7184 78.1199 62.3036 88.8388 57.0759 94.0665C54.5751 96.5682 52.5308 98.3838 50.7904 99.6906C51.3346 99.8282 51.8933 99.9003 52.4546 99.9055C55.2563 99.9055 59.7113 98.1403 63.9683 93.8833C70.7408 87.1108 76.086 77.7223 81.4505 68.2999L81.4505 68.2999C86.8551 58.807 92.2793 49.2798 99.2024 42.3587C107.783 33.7764 112.654 32.6567 113.347 33.3498C109.086 37.6116 105.905 46.0536 102.263 55.7211C97.3841 68.6722 91.6765 83.8228 81.4299 94.0694C78.7856 96.7117 76.6511 98.5908 74.8474 99.9104C75.4141 100.074 76.0008 100.159 76.5908 100.163C78.9994 100.163 81.9764 99.1323 86.5551 94.5535C91.6096 89.499 97.8879 80.4905 104.628 70.8199L104.628 70.8196L104.628 70.8195C112.441 59.6094 120.873 47.5095 128.739 39.6471C142.469 25.9158 153.799 23.5824 160.531 23.5824C167.263 23.5824 174.703 26.2158 180.89 32.4033C181.509 33.0221 181.614 33.4824 181.345 33.7517C181.345 33.7517 173.769 26.7712 162.355 26.7712C149.71 26.7712 140.229 34.0833 134.918 39.3947C127.492 46.8201 119.39 57.7298 111.426 68.4531L111.426 68.4532C103.73 78.8165 96.1629 89.0057 89.4608 95.7079C85.6988 99.4689 81.2101 101.569 77.4818 101.569C76.0037 101.569 74.5365 101.29 73.303 100.956C70.9933 102.38 69.244 102.798 67.5283 102.798C65.3127 102.798 63.7455 101.757 64.0257 100.472C64.3059 99.1867 66.3274 98.1452 68.5421 98.1452C70.135 98.1452 71.3794 98.5808 72.5367 99.0471C78.9458 92.2323 84.2991 79.2703 89.1349 67.5613L89.1349 67.5612C92.0871 60.4131 94.8463 53.732 97.5352 49.2016C93.9186 51.6987 89.4826 59.2332 84.4269 67.8202C78.9315 77.1541 72.7039 87.7315 66.0007 94.4347C61.0755 99.36 56.8254 101.297 52.3209 101.297C51.123 101.294 49.9262 101.224 48.7361 101.087C46.5334 102.403 44.8375 102.799 43.1743 102.799C40.9587 102.799 39.3915 101.758 39.6717 100.473C39.9519 99.1877 41.9734 98.1462 44.1881 98.1462C45.7899 98.1462 47.1056 98.5135 48.3104 98.9095C53.3976 93.4158 57.5919 84.1798 62.0485 74.3665L62.0485 74.3665C67.3471 62.699 73.0163 50.2154 80.9973 42.235C82.7362 40.5263 84.6013 38.9511 86.5769 37.5226C78.9331 33.1181 68.1065 34.7219 57.8669 39.4214C70.0874 49.6164 55.7988 85.9613 36.4274 85.9613C33.9544 85.9613 31.9299 85.2317 30.3182 83.9724C26.6651 85.7772 23.2981 86.2365 20.9627 86.2365C19.9642 86.2248 18.9711 86.0881 18.0065 85.8297ZM189.13 101.106C193.082 101.106 197.291 98.9056 203.853 91.7766C202.108 97.4899 204.165 101.106 208.886 101.106C214.035 101.106 218.361 95.8205 222.952 90.2101L223.331 89.7481L243.195 65.5C247.495 60.253 250.663 57.0345 254.097 57.0345C257.307 57.0345 256.736 60.8955 252.384 66.3761C248.601 71.1381 225.258 100.423 225.258 100.423H235.082L259.139 69.1848C266.346 59.7996 271.287 57.0345 273.982 57.0345C275.399 57.0345 275.728 58.072 275.728 59.1373C275.728 61.8749 273.791 64.3 267.991 71.5587L267.991 71.559C267.63 72.0098 267.255 72.4792 266.865 72.9686L244.956 100.423H254.569L278.518 69.3264C287.546 57.6038 290.59 57.0345 292.571 57.0345C293.947 57.0345 294.31 58.1037 294.31 59.0818C294.31 62.0995 290.718 66.4506 286.578 71.4657C280.947 78.2869 274.302 86.3366 274.302 93.9298C274.302 97.8304 277.241 101.17 282.774 101.17C298.218 101.17 314.21 67.6146 314.21 49.6085C314.21 34.5338 305.399 27.1306 295.233 27.1306C280.656 27.1306 275.371 35.1793 275.371 41.0688C275.371 46.1782 278.056 48.8898 283.001 48.8898C289.956 48.8898 294.782 40.945 294.782 38.6512C294.782 38.274 294.639 38.2027 294.412 38.0958C291.758 44.3714 287.428 46.4346 284.03 46.4346C280.235 46.4346 278.236 44.3556 278.236 40.6619C278.236 36.5039 282.71 29.0532 294.325 29.0532C305.07 29.0532 311.432 35.9346 311.432 49.6075C311.432 73.3269 295.579 98.173 283.929 98.173C281.207 98.173 280.438 96.7305 280.438 95.1861C280.438 92.6378 283.045 89.2613 286.294 85.0527C288.043 82.7867 289.979 80.2795 291.794 77.5305L292.225 76.8785C296.167 70.916 299.982 65.1442 299.982 59.9392C299.982 55.3525 297.972 53.417 294.631 53.417C291.14 53.417 287.136 55.9109 280.349 63.2596C281.526 58.8383 281.957 53.417 276.307 53.417C273.337 53.417 268.168 55.5198 260.736 64.0001C262.899 57.1929 260.914 53.417 256.281 53.417C251.648 53.417 248.502 56.7741 244.949 61.1113L227.379 82.5706C226.255 83.9424 225.148 85.3298 224.066 86.6861L224.066 86.6867C218.916 93.1417 214.329 98.8907 211.182 98.8907C208.72 98.8907 207.631 95.0297 211.763 89.8372L240.176 54.1051H229.699L227.406 57.2454C226.959 54.8219 225.074 53.6408 222.82 53.6408C215.296 53.6408 205.913 59.0284 198.949 65.992C193.114 71.8271 188.01 80.3025 185.477 86.8226C181.789 91.6241 175.597 98.8907 171.082 98.8907C168.004 98.8907 167.333 95.0297 171.465 89.8372L199.878 54.1051H189.401C189.401 54.1051 177.513 70.3876 169.7 81.0549V81.0499C167.621 83.7645 161.128 92.0201 159.113 94.0338C155.805 97.3424 152.987 98.8907 150.979 98.8907C147.901 98.8907 147.23 95.0297 151.362 89.8372C155.043 85.2079 195.907 33.7517 195.907 33.7517H185.603C185.603 33.7517 159.285 68.3839 149.666 81.0499C147.587 83.7645 141.093 92.0201 139.079 94.0338C135.77 97.3424 132.952 98.8907 130.945 98.8907C127.867 98.8907 127.196 95.0297 131.328 89.8372C135.009 85.2079 175.872 33.7517 175.872 33.7517H165.562C165.562 33.7517 136.029 72.6151 128.096 83.0606L128.051 83.12L128.022 83.1586L127.878 83.3566C127.789 83.4764 127.701 83.5952 127.613 83.714L127.434 83.9581C124.633 87.7785 116.48 98.8947 110.895 98.8947C107.817 98.8947 107.146 95.0337 111.278 89.8411L139.691 54.1091H129.214C129.214 54.1091 115.672 72.6458 108.001 83.122C100.331 93.5982 103.581 101.108 110.384 101.108C116.395 101.108 120.353 96.4939 123.557 92.7369C122.874 97.8601 125.784 101.108 130.217 101.108C136.222 101.108 140.375 96.5019 143.596 92.7468C142.918 97.8641 145.826 101.108 150.258 101.108C156.415 101.108 160.626 96.2652 163.881 92.4617C163.089 97.778 166.042 101.108 170.571 101.108C175.752 101.108 180.675 96.2821 183.96 92.4825C183.619 96.4613 184.52 101.106 189.13 101.106ZM209.219 64.4308C215.738 57.9117 219.555 57.0345 220.925 57.0345C222.295 57.0345 222.949 57.8542 222.949 59.555C222.949 64.7971 205.194 87.2087 200.762 91.641C198.541 93.8615 194.228 97.7126 190.672 97.7126C183.593 97.7116 196.55 77.0998 209.219 64.4308ZM148.613 33.3715C151.439 33.3715 152.868 35.8188 151.807 38.8383C150.745 41.8578 147.595 44.3051 144.769 44.3051C141.944 44.3051 140.514 41.8578 141.575 38.8383C142.637 35.8188 145.788 33.3715 148.613 33.3715ZM204.956 44.3051C207.782 44.3051 210.933 41.8578 211.994 38.8383C213.055 35.8188 211.626 33.3715 208.8 33.3715C205.975 33.3715 202.824 35.8188 201.762 38.8383C200.701 41.8578 202.13 44.3051 204.955 44.3051H204.956ZM55.4483 40.5916L55.4496 40.5924C41.0805 47.9325 28.4975 61.0454 28.4975 71.5756C28.4975 74.9693 29.1618 78.6195 31.1517 81.0321C38.254 76.4791 44.0871 67.5434 46.8244 59.1897L47.5739 59.46C43.9168 72.1835 38.2451 78.9789 32.8229 82.5359C34.0158 83.3101 35.5067 83.7645 37.3541 83.7645C53.9143 83.7645 68.5807 48.8832 55.4496 40.5924L55.4513 40.5916H55.4483ZM45.876 39.072C31.9348 41.448 17.3818 61.5865 17.3818 78.3997C17.3811 80.0575 17.4726 81.714 17.6561 83.3616C19.1559 83.8655 20.5647 84.0793 21.6745 84.0793C24.0881 84.0793 26.4522 83.4675 28.7163 82.3904C26.4215 79.5531 25.3583 75.3218 25.3583 70.7421C25.3583 59.7243 33.6238 47.1325 45.876 39.072Z" fill="#FAFF05"/><path fill-rule="evenodd" clip-rule="evenodd" d="M352.667 54.1021V28.3849H373.561V101.449H352.667V72.5151H342.375V101.449H321.481V28.3849H342.375V54.1021H352.667ZM402.169 28.3849H381.275V101.449H402.169V28.3849ZM486.345 101.449H450.685V28.3849H471.973V78.8987H486.345V101.449ZM409.882 101.449H445.542V78.8987H431.171V28.3849H409.882V101.449Z" fill="white"/></svg>
