<svg xmlns="http://www.w3.org/2000/svg" width="179" height="24" viewBox="0 0 179 24" fill="none">
<path d="M5.16941 17.0223V21.1628H8.38986C9.6167 21.2396 10.6902 20.3961 10.767 19.1692V19.0927C10.767 17.789 9.69347 16.9457 8.08315 16.9457L5.16941 17.0223ZM5.16941 10.9647V14.6452H8.15992C9.2334 14.722 10.2301 13.9552 10.3069 12.8817V12.7283C10.3069 11.7315 9.30999 10.9647 7.9298 10.9647H5.16941ZM0.875488 8.51101H6.70296C9.30999 8.51101 10.2301 8.58778 10.9969 8.89449C12.4538 9.58449 13.2972 10.9647 13.2972 12.575C13.2972 14.1085 12.8371 14.8753 11.3036 15.6421C12.9139 16.1787 13.9874 17.7123 13.834 19.3994C13.834 21.9296 11.8404 23.6165 8.9267 23.6165H0.875488V21.1628H2.02555V10.9647H0.875488V8.51101Z" fill="white"/>
<path d="M23.6487 16.4855C23.6487 15.1821 22.5752 14.1852 21.3484 14.1852H21.2716C19.9682 14.1852 18.8947 15.1821 18.6646 16.409L23.6487 16.4855ZM26.5624 19.8593C26.0258 22.3898 23.9554 23.9233 21.195 23.9233C17.9746 23.9233 15.5975 21.3929 15.5975 17.8657C15.5975 14.3386 17.9746 11.8081 21.195 11.8081C22.9587 11.8081 24.6456 12.6517 25.6423 14.1852C26.4091 15.4886 26.8691 16.9456 26.7925 18.4791H18.5112C18.8179 21.4697 20.7349 21.623 21.2718 21.623C22.3453 21.6996 23.342 20.9328 23.6487 19.9361L26.5624 19.8593Z" fill="white"/>
<path d="M36.1471 16.1021H41.4379V23.6165H39.751V21.2396C39.4443 21.7763 39.0609 22.2363 38.6008 22.6964C37.6041 23.5399 36.3772 24 35.1502 24C31.6231 24 28.8627 20.5494 28.8627 16.1021C28.8627 11.6549 31.6231 8.12771 35.0736 8.12771C36.9907 8.05094 38.6776 9.12442 39.5977 10.7347V8.35765H41.2078V13.1884H39.5209C39.3676 12.4982 39.0609 11.8848 38.6776 11.3482C37.9108 10.3513 36.684 9.73784 35.4571 9.66126C33.6167 9.66126 30.8563 11.2714 30.8563 15.9488C30.8563 19.6293 32.8501 22.3131 35.4571 22.3131C37.5273 22.2363 39.2142 20.7028 39.5977 18.7092C39.6743 18.3259 39.6743 17.8658 39.6743 17.4823H36.0703L36.1471 16.1021Z" fill="white"/>
<path d="M51.0226 17.7124L49.9491 17.8657C46.4219 18.3258 45.2717 18.9392 45.2717 20.3962C45.3485 21.6996 46.4219 22.6197 47.6488 22.6197C49.3357 22.5431 50.7926 21.3163 51.0226 19.6294V17.7124ZM54.3198 23.6932H51.0226V21.623C50.2558 23.0798 48.7223 23.9233 47.1119 23.9233C45.1951 24.0767 43.5082 22.5431 43.3548 20.6261V20.3962C43.3548 18.1724 45.2717 17.0989 49.8723 16.6389L50.9458 16.5621V15.4121C50.9458 14.1084 49.9491 13.2651 48.3388 13.2651C46.7286 13.2651 45.8851 13.8017 45.5784 15.3353H43.8149C43.9683 14.4152 44.4283 13.5718 45.1183 12.9584C45.9619 12.2682 47.1119 11.9615 48.1854 11.9615C50.5625 11.9615 52.5561 13.035 52.5561 15.9487V22.313H54.1664L54.3198 23.6932Z" fill="white"/>
<path d="M59.1504 14.2619C59.6872 13.4951 60.6839 11.8848 62.8309 11.8848C64.3644 11.8848 65.208 12.6516 65.5147 14.2619C65.8214 13.7252 66.1281 13.265 66.5882 12.8049C67.2782 12.1915 68.1217 11.8082 69.0418 11.8082C70.8053 11.8082 71.8022 12.9583 71.8022 14.9519V22.2363H73.4123V23.6165H70.1919V15.5655C70.1919 13.9552 69.6553 13.1884 68.505 13.1884C66.5114 13.1884 65.4379 15.5655 65.4379 16.4088V22.2363H67.1248V23.6165H63.751V15.3354C63.751 13.8784 63.2144 13.265 62.0641 13.265C60.3006 13.265 58.997 15.4887 58.997 16.5622V22.3131H60.6839V23.6933H55.7V22.3131H57.3869V13.4185H55.7V12.0381H59.0738L59.1504 14.2619Z" fill="white"/>
<path d="M78.3964 18.7859C78.3964 20.7029 79.8534 22.2364 81.6936 22.3898C83.6872 22.3898 84.9141 20.6261 84.9141 17.789C84.9141 14.952 83.6105 13.2651 81.6936 13.2651C80.0067 13.2651 78.3198 15.1053 78.3198 16.7922L78.3964 18.7859ZM75.176 7.82091H78.3964V14.4919C78.8565 13.6484 80.1601 11.9615 82.1537 11.9615C84.7607 11.9615 86.7543 14.6453 86.7543 18.0191C86.7543 21.1629 84.6074 23.8466 82.1537 23.8466C80.0833 23.8466 79.0864 22.4664 78.3964 21.5462V23.6932H75.0992V22.313H76.7095V9.2011H75.176V7.82091Z" fill="white"/>
<path d="M87.7381 7.82098H91.0353V22.3131H92.5688V23.6933H87.6615V22.3131H89.3484V9.1244H87.7381V7.82098Z" fill="white"/>
<path d="M102.153 16.9456C102.153 15.8721 101.77 14.8752 101.003 14.0319C100.467 13.5718 99.7763 13.2651 99.0863 13.3417C97.6294 13.4184 96.4025 14.4152 96.0192 15.7953C95.9425 16.1788 95.7891 16.5621 95.7891 16.9456H102.153ZM103.84 20.4728C103.687 21.1629 103.38 21.6996 102.92 22.2364C102 23.3099 100.697 23.9233 99.2397 23.9233C96.0958 23.9233 93.8723 21.4697 93.8723 17.9425C93.8723 14.5685 96.0958 11.9615 98.933 11.9615C101.77 11.9615 104.07 14.1852 104.07 18.249H95.7125C95.8659 19.9361 96.2492 20.9328 97.016 21.6996C97.6294 22.2364 98.3961 22.5431 99.1629 22.5431C100.467 22.5431 101.31 21.9297 101.923 20.5495L103.84 20.4728Z" fill="white"/>
<path d="M112.965 11.3481L110.971 18.0957H114.959L112.965 11.3481ZM111.125 8.51099H114.805L119.022 21.2396H120.173V23.6933H116.722L115.725 20.3961H110.358L109.361 23.6933H105.834V21.2396H106.984L111.125 8.51099Z" fill="white"/>
<path d="M120.019 12.1149H124.62V14.3387H123.47L125.08 21.1628L126.997 12.1149H129.987L131.904 21.0095L133.438 14.3387H132.288V12.1149H136.888V14.3387H135.892L133.438 23.6165H130.371L128.454 15.6421L126.614 23.6165H123.546L121.016 14.3387H120.019V12.1149Z" fill="white"/>
<path d="M145.016 18.2491C142.332 18.4792 140.569 18.7092 140.569 20.3195C140.569 21.2396 141.336 21.853 142.486 21.853C143.866 21.853 145.016 20.7796 145.093 19.3994V18.2491H145.016ZM147.777 21.4696H148.773V23.6933H145.17V22.3131C144.326 23.3866 143.023 23.9232 141.642 23.9232C139.342 23.9232 137.578 22.3897 137.578 20.3195C137.578 16.9455 141.412 16.5622 145.093 16.2555C145.093 14.4918 144.479 13.9552 143.023 13.9552C141.566 13.9552 141.029 14.6452 140.952 15.7187V15.7954L138.192 15.7187C138.345 13.4184 140.185 11.9616 142.946 11.9616C146.166 11.9616 147.853 13.4183 147.853 16.0254L147.777 21.4696Z" fill="white"/>
<path d="M154.21 13.9552C154.977 12.4982 155.82 11.8848 157.124 11.8848C157.584 11.8848 157.967 11.9616 158.427 12.0382V14.722C157.967 14.6452 157.507 14.5686 157.047 14.5686C155.59 14.492 154.363 15.5655 154.287 16.9457V21.393H155.667V23.6165H150.299V21.393H151.45V14.3385H150.299V12.1149H154.21V13.9552Z" fill="white"/>
<path d="M167.015 16.4855C167.015 15.1821 165.942 14.1852 164.715 14.1852H164.638C163.335 14.1852 162.261 15.1821 162.031 16.409L167.015 16.4855ZM170.006 19.8593C169.469 22.3898 167.399 23.9233 164.638 23.9233C161.418 23.9233 159.041 21.3929 159.041 17.8657C159.041 14.3386 161.418 11.8081 164.638 11.8081C166.402 11.8081 168.089 12.6517 169.086 14.1852C169.852 15.4886 170.312 16.9456 170.236 18.4791H161.954C162.261 21.4697 164.178 21.623 164.715 21.623C165.788 21.6996 166.785 20.9328 167.092 19.9361L170.006 19.8593Z" fill="white"/>
<path d="M174.86 3.44221C174.968 3.42354 175.064 3.3883 175.145 3.33591C175.227 3.28352 175.292 3.21304 175.341 3.12388C175.389 3.03568 175.414 2.921 175.414 2.77946C175.414 2.584 175.359 2.42455 175.251 2.30187C175.142 2.17899 174.967 2.11765 174.724 2.11765H173.443V3.46926H174.518C174.638 3.46926 174.751 3.46012 174.86 3.44221ZM174.751 1.6833C175.12 1.6833 175.409 1.77322 175.618 1.95439C175.825 2.13556 175.929 2.3834 175.929 2.69792C175.929 2.93376 175.876 3.1397 175.77 3.31724C175.663 3.4946 175.492 3.61595 175.256 3.6811V3.69158C175.368 3.7133 175.46 3.7493 175.531 3.80017C175.601 3.85103 175.657 3.9118 175.698 3.9821C175.74 4.05239 175.771 4.13107 175.791 4.21794C175.811 4.30481 175.826 4.39549 175.837 4.48979C175.845 4.58409 175.85 4.67991 175.854 4.77726C175.857 4.87536 175.866 4.97119 175.881 5.06491C175.895 5.15921 175.916 5.24913 175.943 5.33371C175.97 5.41906 176.011 5.49393 176.065 5.55908H175.49C175.454 5.51945 175.429 5.46478 175.416 5.39658C175.404 5.32762 175.395 5.25065 175.392 5.16512C175.389 5.08053 175.385 4.98928 175.381 4.89118C175.377 4.79383 175.367 4.69801 175.349 4.60352C175.334 4.50922 175.316 4.42006 175.294 4.33472C175.273 4.25013 175.238 4.17603 175.191 4.1124C175.144 4.04877 175.082 3.99867 175.007 3.96038C174.93 3.92228 174.829 3.90342 174.703 3.90342H173.443V5.55908H172.927V1.6833H174.751Z" fill="white"/>
<path d="M174.376 0.613228C172.643 0.613228 171.232 2.02352 171.232 3.75709C171.232 5.49047 172.643 6.90095 174.376 6.90095C176.11 6.90095 177.52 5.49047 177.52 3.75709C177.52 2.02352 176.11 0.613228 174.376 0.613228ZM174.376 7.51418C172.305 7.51418 170.619 5.82861 170.619 3.75709C170.619 1.68557 172.305 0 174.376 0C176.448 0 178.133 1.68557 178.133 3.75709C178.133 5.82861 176.448 7.51418 174.376 7.51418Z" fill="white"/>
</svg>
