<svg xmlns="http://www.w3.org/2000/svg" width="84" height="24" viewBox="0 0 84 24" fill="none">
<path d="M31.9328 9.13434C31.9925 9.34329 31.9179 9.4627 31.7537 9.5224L30.1567 10C29.9626 10.0597 29.8582 10 29.7985 9.80598C29.5447 9.00001 29.0223 8.55225 28.0373 8.55225C26.5298 8.55225 26.0223 9.43284 26.0223 10.6269V13.3731C26.0223 14.5672 26.5298 15.4478 28.0373 15.4478C29.2761 15.4478 29.9328 14.8657 29.9328 13.6119V13.2537H28.2761C28.1417 13.2537 28.0522 13.1791 28.0522 13.0149V11.4925C28.0522 11.3433 28.1417 11.2537 28.2761 11.2537H31.888C32.0373 11.2537 32.1268 11.3284 32.1268 11.4776V13.7761C32.1268 15.9403 30.5298 17.5821 28.0522 17.5821C25.1119 17.5821 23.7388 15.8358 23.7388 13.4478V10.5522C23.7388 8.16419 25.1119 6.41792 28.0522 6.41792C30.4253 6.41792 31.5 7.77613 31.9328 9.13434ZM40.0223 11.8508V17.1791C40.0223 17.3134 39.9328 17.403 39.7985 17.403H38.1716C38.0223 17.403 37.9328 17.3134 37.9328 17.1791V16.3134C37.4402 17.0896 36.6641 17.5672 35.694 17.5672C34.1567 17.5672 33.1716 16.5821 33.1716 15.0597C33.1716 13.5373 34.097 12.7015 36.3805 12.5373C36.8731 12.4925 37.3656 12.4925 37.8582 12.5224V11.9254C37.8582 11.1343 37.4402 10.8209 36.7388 10.8209C36.0373 10.8209 35.8134 11.1194 35.6194 11.5672C35.5447 11.7463 35.485 11.7761 35.3208 11.7314L33.694 11.3134C33.5298 11.2687 33.5149 11.1791 33.5447 11.0597C33.7686 9.89553 34.8731 9.02986 36.8283 9.02986C38.8731 9.04479 40.0223 10.0149 40.0223 11.8508ZM37.8432 14.6418V13.8806C37.3805 13.8657 36.9626 13.8806 36.5447 13.9254C35.7238 14.0299 35.2761 14.2836 35.2761 14.9105C35.2761 15.4925 35.6641 15.7911 36.291 15.7911C37.0223 15.7911 37.5895 15.3881 37.8432 14.6418ZM45.888 9.04479C46.9179 9.04479 47.6044 9.65673 47.9179 10.5224C48.5298 9.6418 49.2611 9.04479 50.291 9.04479C51.7238 9.04479 52.5298 10.1791 52.5298 11.8806V17.1791C52.5298 17.3134 52.4104 17.403 52.2611 17.403H50.5596C50.4104 17.403 50.291 17.3134 50.291 17.1791V12.2687C50.291 11.5373 49.9626 11.0896 49.3955 11.0896C48.7835 11.0896 48.3507 11.597 48.1268 12.3582V17.1791C48.1268 17.3284 48.0223 17.403 47.9179 17.403H46.082C45.9477 17.403 45.888 17.3134 45.888 17.1791V12.2687C45.888 11.5373 45.5596 11.0896 44.9925 11.0896C44.3656 11.0896 43.9328 11.6269 43.7238 12.3731V17.1791C43.7238 17.3134 43.6492 17.403 43.4999 17.403H41.694C41.5447 17.403 41.4701 17.3134 41.4701 17.1791V9.43285C41.4701 9.32837 41.5447 9.22389 41.694 9.22389H43.4253C43.5746 9.22389 43.6492 9.32837 43.6492 9.43285V10.3582C44.1417 9.68658 44.8432 9.04479 45.888 9.04479ZM61.8134 9.22389C61.8581 9.41792 61.7984 9.56717 61.6193 9.61195L60.0522 10.0746C59.8581 10.1343 59.7537 10.0597 59.694 9.88061C59.4701 9.14926 59.082 8.55225 57.9925 8.55225C56.6492 8.55225 56.2163 9.43284 56.2163 10.6269V13.3731C56.2163 14.5672 56.7089 15.4478 57.9925 15.4478C59.1417 15.4478 59.5895 14.7911 59.7686 13.9851C59.8134 13.806 59.9328 13.7164 60.1268 13.7911L61.694 14.2985C61.8731 14.3582 61.9328 14.4925 61.888 14.6866C61.5148 16.2836 60.3656 17.5821 57.9775 17.5821C55.291 17.5821 53.9328 15.8358 53.9328 13.4478V10.5522C53.9328 8.16419 55.3208 6.41792 57.9775 6.41792C60.3059 6.41792 61.4104 7.65673 61.8134 9.22389ZM69.679 11.8508V17.1791C69.679 17.3134 69.5895 17.403 69.4551 17.403H67.8283C67.679 17.403 67.5895 17.3134 67.5895 17.1791V16.3134C67.0969 17.0896 66.3208 17.5672 65.3507 17.5672C63.8134 17.5672 62.8283 16.5821 62.8283 15.0597C62.8283 13.5373 63.7537 12.7015 66.0372 12.5373C66.5298 12.4925 67.0223 12.4925 67.5148 12.5224V11.9254C67.5148 11.1343 67.0969 10.8209 66.3954 10.8209C65.6939 10.8209 65.4701 11.1194 65.276 11.5672C65.2014 11.7463 65.1417 11.7761 64.9775 11.7314L63.3507 11.3134C63.1865 11.2687 63.1716 11.1791 63.2014 11.0597C63.4253 9.89553 64.5298 9.02986 66.485 9.02986C68.5298 9.04479 69.679 10.0149 69.679 11.8508ZM67.4999 14.6418V13.8806C67.0372 13.8657 66.6193 13.8806 66.2014 13.9254C65.3805 14.0299 64.9328 14.2836 64.9328 14.9105C64.9328 15.4925 65.3208 15.7911 65.9477 15.7911C66.679 15.7911 67.2462 15.3881 67.4999 14.6418ZM75.9924 9.37314V10.9552C75.9924 11.1493 75.9178 11.2239 75.7238 11.2239H75.485C74.3059 11.2239 73.6044 11.7612 73.3805 12.6418V17.194C73.3805 17.3433 73.276 17.4179 73.1865 17.4179H71.3208C71.2313 17.4179 71.1268 17.3433 71.1268 17.194V9.44777C71.1268 9.31344 71.2163 9.23882 71.3507 9.23882H73.0372C73.2163 9.23882 73.2611 9.35822 73.2611 9.47762V10.5672C73.6492 9.85076 74.3656 9.13434 75.6342 9.13434C75.9328 9.11941 75.9924 9.16419 75.9924 9.37314ZM78.9029 13.9851V14.2985C78.9029 15.1493 79.3506 15.7612 80.3954 15.7612C81.4402 15.7612 81.6939 15.3731 81.9626 14.8955C82.0969 14.6716 82.1566 14.6418 82.3954 14.7463L83.5596 15.3433C83.7984 15.4627 83.8133 15.5821 83.7089 15.806C83.2014 16.9403 81.9477 17.597 80.3805 17.597C78.0223 17.597 76.7835 16.194 76.7835 14.2687V12.3731C76.7835 10.5075 77.9477 9.04479 80.3656 9.04479C82.7835 9.04479 83.7984 10.5075 83.7984 12.3284V13.6269C83.7984 13.8508 83.7238 14 83.4103 14H78.9029V13.9851ZM78.9029 12.2687V12.5522H81.7536V12.2687C81.7536 11.4776 81.3059 10.8508 80.3357 10.8508C79.3656 10.8508 78.9029 11.4627 78.9029 12.2687ZM26.082 20.7164C26.097 20.7612 26.0821 20.791 26.0373 20.806L25.6791 20.9105C25.6343 20.9254 25.6044 20.9105 25.5895 20.8657C25.5 20.597 25.3358 20.4627 25.0223 20.4627C24.5895 20.4627 24.3806 20.7015 24.3806 21.1194V21.9851C24.3806 22.403 24.5746 22.6418 25.0223 22.6418C25.4104 22.6418 25.6194 22.4627 25.6194 22.0746V21.8657H25.097C25.0671 21.8657 25.0373 21.8507 25.0373 21.806V21.4627C25.0373 21.4179 25.0522 21.403 25.097 21.403H26.0671C26.1119 21.403 26.1418 21.4179 26.1418 21.4627V22.1194C26.1418 22.7164 25.694 23.1493 25.0223 23.1493C24.2462 23.1493 23.8432 22.7015 23.8432 22.0149V21.0896C23.8432 20.403 24.2462 19.9552 25.0223 19.9552C25.6343 19.9851 25.9477 20.3134 26.082 20.7164ZM28.4701 21.5075V23.0597C28.4701 23.1045 28.4552 23.1194 28.4104 23.1194H28.0373C27.9925 23.1194 27.9776 23.1045 27.9776 23.0597V22.791C27.8283 23.0299 27.6044 23.1642 27.3059 23.1642C26.8731 23.1642 26.5895 22.8806 26.5895 22.4627C26.5895 22.0448 26.8731 21.791 27.4701 21.7612C27.6343 21.7463 27.7835 21.7463 27.9477 21.7612V21.5522C27.9477 21.2985 27.7985 21.1791 27.5597 21.1791C27.3209 21.1791 27.2313 21.2687 27.1716 21.4328C27.1567 21.4776 27.1417 21.4925 27.097 21.4776L26.7238 21.3881C26.6791 21.3731 26.6791 21.3582 26.6791 21.3134C26.7537 20.9851 27.0522 20.7612 27.5746 20.7612C28.1417 20.7463 28.4701 21 28.4701 21.5075ZM27.9626 22.3582V22.0746C27.8134 22.0746 27.6791 22.0746 27.5298 22.0896C27.2612 22.1194 27.097 22.209 27.097 22.4328C27.097 22.6269 27.2313 22.7463 27.4552 22.7463C27.6791 22.7313 27.8731 22.597 27.9626 22.3582ZM30.2015 20.7463C30.5149 20.7463 30.694 20.9254 30.7686 21.1642C30.9328 20.9105 31.1567 20.7463 31.4403 20.7463C31.8432 20.7463 32.0671 21.0448 32.0671 21.5075V23.0597C32.0671 23.1045 32.0373 23.1194 31.9925 23.1194H31.6044C31.5597 23.1194 31.5298 23.1045 31.5298 23.0597V21.6119C31.5298 21.3731 31.4253 21.2239 31.2313 21.2239C31.0373 21.2239 30.888 21.3731 30.7985 21.6119V23.0597C30.7985 23.1045 30.7835 23.1194 30.7388 23.1194H30.3209C30.2761 23.1194 30.2611 23.1045 30.2611 23.0597V21.6119C30.2611 21.3731 30.1567 21.2239 29.9626 21.2239C29.7537 21.2239 29.6044 21.403 29.5298 21.6269V23.0597C29.5298 23.1045 29.5149 23.1194 29.4701 23.1194H29.0671C29.0223 23.1194 29.0074 23.1045 29.0074 23.0597V20.8507C29.0074 20.8209 29.0223 20.791 29.0671 20.791H29.4552C29.5 20.791 29.5149 20.8209 29.5149 20.8507V21.1343C29.694 20.9254 29.9029 20.7463 30.2015 20.7463ZM33.2014 19.9552V21.0896C33.291 20.9254 33.5149 20.7463 33.8582 20.7463C34.3358 20.7463 34.6492 21.1194 34.6492 21.6418V22.2687C34.6492 22.806 34.3358 23.1642 33.8432 23.1642C33.5149 23.1642 33.2761 22.9851 33.1865 22.8209V23.0597C33.1865 23.0896 33.1716 23.1194 33.1268 23.1194H32.7388C32.694 23.1194 32.6791 23.1045 32.6791 23.0597V19.9552C32.6791 19.9254 32.694 19.8955 32.7388 19.8955H33.1567C33.1716 19.8955 33.2014 19.9254 33.2014 19.9552ZM33.2014 21.7164V22.194C33.2014 22.5224 33.4104 22.7015 33.6791 22.7015C33.9776 22.7015 34.1268 22.5224 34.1268 22.194V21.7164C34.1268 21.3881 33.9776 21.194 33.6791 21.194C33.4104 21.209 33.2014 21.3881 33.2014 21.7164ZM35.7089 19.9552V23.0448C35.7089 23.0896 35.694 23.1045 35.6492 23.1045H35.2462C35.2014 23.1045 35.1865 23.0896 35.1865 23.0448V19.9552C35.1865 19.9105 35.2014 19.8955 35.2462 19.8955H35.6492C35.694 19.8955 35.7089 19.9105 35.7089 19.9552ZM36.8283 19.9702V20.3731C36.8283 20.4179 36.7985 20.4478 36.7537 20.4478H36.3805C36.3208 20.4478 36.3059 20.4179 36.3059 20.3731V19.9702C36.3059 19.9254 36.3358 19.8955 36.3805 19.8955H36.7537C36.7985 19.8955 36.8283 19.9254 36.8283 19.9702ZM36.8283 20.8507V23.0597C36.8283 23.1045 36.8134 23.1194 36.7686 23.1194H36.3656C36.3208 23.1194 36.3059 23.1045 36.3059 23.0597V20.8507C36.3059 20.806 36.3208 20.791 36.3656 20.791H36.7686C36.7985 20.791 36.8283 20.806 36.8283 20.8507ZM37.9328 21.6119V23.0448C37.9328 23.0896 37.9179 23.1045 37.8731 23.1045H37.4701C37.4253 23.1045 37.4104 23.0896 37.4104 23.0448V20.8358C37.4104 20.806 37.4253 20.7761 37.4701 20.7761H37.8582C37.9029 20.7761 37.9179 20.806 37.9179 20.8358V21.1194C38.0671 20.9105 38.291 20.7313 38.6194 20.7313C39.0671 20.7313 39.3059 21.0448 39.3059 21.5224V23.0448C39.3059 23.0896 39.291 23.1045 39.2462 23.1045H38.8432C38.7985 23.1045 38.7835 23.0896 38.7835 23.0448V21.6119C38.7835 21.3582 38.6641 21.209 38.4253 21.209C38.2014 21.209 38.0223 21.3731 37.9328 21.6119ZM41.8283 23.2687C41.8283 23.6567 41.5298 24 40.7388 24C40.0223 24 39.7388 23.7463 39.7388 23.3731C39.7388 23.1791 39.8582 22.9851 40.097 22.8955C39.9925 22.806 39.9328 22.6866 39.9328 22.5821C39.9328 22.4328 40.0074 22.3134 40.1716 22.2388C39.9328 22.1045 39.8134 21.8657 39.8134 21.5821C39.8134 21.1194 40.097 20.7761 40.7238 20.7761H41.7686C41.7985 20.7761 41.8134 20.806 41.8134 20.8358V21.1343C41.8134 21.1791 41.7835 21.194 41.7537 21.194H41.3805C41.4999 21.2985 41.5895 21.4478 41.5895 21.6716C41.5895 22.0746 41.3059 22.3731 40.7238 22.3731H40.5746C40.4402 22.3731 40.3805 22.4328 40.3805 22.5075C40.3805 22.5821 40.4402 22.6418 40.5746 22.6418H41.0522C41.6044 22.6418 41.8283 22.9104 41.8283 23.2687ZM41.3358 23.3134C41.3358 23.1791 41.2611 23.0448 40.9925 23.0448H40.5746C40.3208 23.0448 40.2313 23.1791 40.2313 23.3134C40.2313 23.5075 40.3805 23.6269 40.7835 23.6269C41.1865 23.6269 41.3358 23.5075 41.3358 23.3134ZM40.2761 21.5821C40.2761 21.8358 40.4253 22 40.7089 22C40.9776 22 41.1268 21.8507 41.1268 21.5821C41.1268 21.3284 40.9925 21.1642 40.7089 21.1642C40.4402 21.1791 40.2761 21.3284 40.2761 21.5821ZM45.3805 20.6269C45.3955 20.6716 45.3805 20.7015 45.3358 20.7164L45.0074 20.8358C44.9626 20.8508 44.9328 20.8358 44.9179 20.791C44.8283 20.5522 44.6641 20.4478 44.3955 20.4478C44.097 20.4478 43.9179 20.5821 43.9179 20.8209C43.9179 21.0299 44.0522 21.1343 44.6193 21.3284C45.1865 21.5373 45.4253 21.806 45.4253 22.2388C45.4253 22.7612 44.9925 23.1493 44.3656 23.1493C43.7985 23.1493 43.4253 22.8955 43.3059 22.4179C43.291 22.3731 43.3059 22.3433 43.3507 22.3284L43.694 22.209C43.7537 22.194 43.7686 22.209 43.7835 22.2537C43.8432 22.5224 44.0373 22.6567 44.3656 22.6567C44.694 22.6567 44.888 22.5075 44.888 22.2687C44.888 22.0448 44.7686 21.9403 44.2761 21.7612C43.6343 21.5224 43.3805 21.2687 43.3805 20.806C43.3805 20.3433 43.7835 19.9403 44.3955 19.9403C44.8731 19.9851 45.2313 20.209 45.3805 20.6269ZM45.9178 22.3582V20.8358C45.9178 20.791 45.9477 20.7761 45.9776 20.7761H46.3805C46.4253 20.7761 46.4402 20.791 46.4402 20.8358V22.2687C46.4402 22.5224 46.5596 22.6716 46.7984 22.6716C47.0223 22.6716 47.2014 22.5075 47.291 22.2687V20.8358C47.291 20.791 47.3059 20.7761 47.3507 20.7761H47.7537C47.7984 20.7761 47.8134 20.791 47.8134 20.8358V23.0448C47.8134 23.0746 47.7984 23.1045 47.7537 23.1045H47.3656C47.3208 23.1045 47.3059 23.0746 47.3059 23.0448V22.7612C47.1567 22.9702 46.9178 23.1493 46.6044 23.1493C46.1567 23.1493 45.9178 22.8358 45.9178 22.3582ZM48.4552 23.9552C48.4253 23.9552 48.3955 23.9403 48.3955 23.8955V20.8358C48.3955 20.806 48.4104 20.7761 48.4552 20.7761H48.8432C48.8731 20.7761 48.9029 20.791 48.9029 20.8358V21.0746C48.9925 20.9105 49.2313 20.7313 49.5596 20.7313C50.0671 20.7313 50.3656 21.0896 50.3656 21.6269V22.2537C50.3656 22.791 50.0522 23.1493 49.5746 23.1493C49.2313 23.1493 49.0074 22.9702 48.9179 22.806V23.8955C48.9179 23.9254 48.9029 23.9552 48.8581 23.9552H48.4552ZM49.8581 22.1791V21.7015C49.8581 21.3731 49.7089 21.194 49.4104 21.194C49.1417 21.194 48.9328 21.3731 48.9328 21.7015V22.1791C48.9328 22.5075 49.1417 22.7015 49.4104 22.7015C49.7089 22.7015 49.8581 22.5075 49.8581 22.1791ZM50.9776 23.9552C50.9477 23.9552 50.9178 23.9403 50.9178 23.8955V20.8358C50.9178 20.806 50.9328 20.7761 50.9776 20.7761H51.3656C51.3955 20.7761 51.4253 20.791 51.4253 20.8358V21.0746C51.5149 20.9105 51.7537 20.7313 52.082 20.7313C52.5895 20.7313 52.888 21.0896 52.888 21.6269V22.2537C52.888 22.791 52.5746 23.1493 52.097 23.1493C51.7537 23.1493 51.5298 22.9702 51.4402 22.806V23.8955C51.4402 23.9254 51.4253 23.9552 51.3805 23.9552H50.9776ZM52.3805 22.1791V21.7015C52.3805 21.3731 52.2313 21.194 51.9328 21.194C51.6641 21.194 51.4552 21.3731 51.4552 21.7015V22.1791C51.4552 22.5075 51.6641 22.7015 51.9328 22.7015C52.2164 22.7015 52.3805 22.5075 52.3805 22.1791ZM55.3507 21.6716V22.2239C55.3507 22.7761 55.0372 23.1642 54.3656 23.1642C53.694 23.1642 53.3805 22.7761 53.3805 22.2388V21.6866C53.3805 21.1343 53.694 20.7463 54.3656 20.7463C55.0372 20.7463 55.3507 21.1343 55.3507 21.6716ZM53.9029 21.7015V22.209C53.9029 22.5224 54.0522 22.7015 54.3656 22.7015C54.679 22.7015 54.8283 22.5224 54.8283 22.209V21.7015C54.8283 21.3881 54.679 21.194 54.3656 21.194C54.0522 21.194 53.9029 21.3881 53.9029 21.7015ZM57.1716 20.8209V21.194C57.1716 21.2388 57.1567 21.2537 57.0969 21.2537H57.0372C56.694 21.2537 56.4999 21.4328 56.4104 21.6866V23.0597C56.4104 23.1045 56.3805 23.1194 56.3656 23.1194H55.9477C55.9178 23.1194 55.888 23.1045 55.888 23.0597V20.8507C55.888 20.806 55.9178 20.791 55.9477 20.791H56.3358C56.3805 20.791 56.3955 20.8209 56.3955 20.8507V21.1791C56.5149 20.9702 56.7387 20.7612 57.0969 20.7612C57.1567 20.7612 57.1716 20.7612 57.1716 20.8209ZM58.3656 20.2687V20.806H58.8283C58.8581 20.806 58.888 20.8209 58.888 20.8657V21.1642C58.888 21.209 58.8731 21.2239 58.8283 21.2239H58.3656V22.3881C58.3656 22.5522 58.4552 22.6418 58.6492 22.6418H58.8283C58.8731 22.6418 58.888 22.6567 58.888 22.7015V23.0448C58.888 23.0896 58.8731 23.1045 58.8283 23.1045H58.5746C58.0969 23.1045 57.8731 22.8507 57.8731 22.4627V21.2239H57.5895C57.5447 21.2239 57.5298 21.209 57.5298 21.1642V20.8657C57.5298 20.8209 57.5447 20.806 57.5895 20.806H57.888V20.2687C57.888 20.2388 57.9029 20.209 57.9477 20.209H58.3357C58.3507 20.209 58.3656 20.2388 58.3656 20.2687ZM62.5148 20.6418C62.5298 20.6866 62.5149 20.7164 62.4551 20.7313L62.0522 20.8806C62.0074 20.8955 61.9775 20.8806 61.9477 20.8358C61.8581 20.6418 61.7238 20.5522 61.485 20.5522C61.2313 20.5522 61.0671 20.6716 61.0671 20.8507C61.0671 21.0299 61.1865 21.1045 61.7537 21.2985C62.3059 21.4925 62.5447 21.7612 62.5447 22.209C62.5447 22.7463 62.0969 23.1493 61.4253 23.1493C60.8283 23.1493 60.4552 22.8806 60.3208 22.403C60.3059 22.3582 60.3208 22.3284 60.3656 22.3134L60.7984 22.1642C60.8581 22.1493 60.888 22.1642 60.9029 22.2239C60.9626 22.4627 61.1268 22.5672 61.4253 22.5672C61.694 22.5672 61.8731 22.4478 61.8731 22.2537C61.8731 22.0746 61.7537 22 61.3059 21.8358C60.6492 21.597 60.3954 21.3433 60.3954 20.8507C60.3954 20.3582 60.8283 19.9552 61.4551 19.9552C61.9925 19.9702 62.3656 20.209 62.5148 20.6418ZM63.8432 20.2836V20.791H64.276C64.3208 20.791 64.3507 20.806 64.3507 20.8657V21.2388C64.3507 21.2836 64.3208 21.3134 64.276 21.3134H63.8432V22.3433C63.8432 22.4776 63.9178 22.5522 64.082 22.5522H64.276C64.3208 22.5522 64.3507 22.5672 64.3507 22.6119V23.0448C64.3507 23.0896 64.3208 23.1045 64.276 23.1045H63.9775C63.4551 23.1045 63.2163 22.8209 63.2163 22.4179V21.2985H62.9477C62.9029 21.2985 62.8731 21.2836 62.8731 21.2239V20.8507C62.8731 20.806 62.9029 20.7761 62.9477 20.7761H63.2313V20.2687C63.2313 20.2239 63.2462 20.209 63.291 20.209H63.7835C63.8134 20.2239 63.8432 20.2388 63.8432 20.2836ZM66.6641 21.5224V23.0448C66.6641 23.0896 66.6342 23.1045 66.6044 23.1045H66.1417C66.0969 23.1045 66.0671 23.0746 66.0671 23.0448V22.791C65.9328 23.0149 65.7089 23.1493 65.4253 23.1493C64.9925 23.1493 64.7089 22.8657 64.7089 22.4328C64.7089 22 64.9775 21.7612 65.6193 21.7164C65.7536 21.7015 65.9029 21.7015 66.0372 21.7164V21.5522C66.0372 21.3284 65.9178 21.2388 65.7238 21.2388C65.5148 21.2388 65.4551 21.3284 65.4104 21.4478C65.3954 21.4925 65.3656 21.5075 65.3208 21.4925L64.8581 21.3731C64.8134 21.3582 64.8134 21.3284 64.8134 21.2985C64.8731 20.9702 65.1865 20.7164 65.7537 20.7164C66.3357 20.7313 66.6641 21 66.6641 21.5224ZM66.0372 22.3284V22.1045C65.9029 22.1045 65.7835 22.1045 65.6641 22.1194C65.4253 22.1493 65.3059 22.2239 65.3059 22.403C65.3059 22.5672 65.4104 22.6567 65.5895 22.6567C65.7984 22.6567 65.9626 22.5373 66.0372 22.3284ZM68.5745 20.8209V21.2687C68.5745 21.3284 68.5596 21.3433 68.4999 21.3433H68.4253C68.082 21.3433 67.888 21.4925 67.8283 21.7463V23.0448C67.8283 23.0896 67.7984 23.1045 67.7686 23.1045H67.2313C67.2014 23.1045 67.1716 23.0896 67.1716 23.0448V20.8358C67.1716 20.791 67.2014 20.7761 67.2313 20.7761H67.7089C67.7536 20.7761 67.7686 20.806 67.7686 20.8507V21.1642C67.8731 20.9552 68.082 20.7612 68.4402 20.7612C68.5596 20.7463 68.5745 20.7612 68.5745 20.8209ZM69.8432 20.2836V20.791H70.276C70.3208 20.791 70.3507 20.806 70.3507 20.8657V21.2388C70.3507 21.2836 70.3208 21.3134 70.276 21.3134H69.8432V22.3433C69.8432 22.4776 69.9178 22.5522 70.082 22.5522H70.276C70.3208 22.5522 70.3507 22.5672 70.3507 22.6119V23.0448C70.3507 23.0896 70.3208 23.1045 70.276 23.1045H69.9925C69.4701 23.1045 69.2313 22.8209 69.2313 22.4179V21.2985H68.9626C68.9178 21.2985 68.888 21.2836 68.888 21.2239V20.8507C68.888 20.806 68.9178 20.7761 68.9626 20.7761H69.2462V20.2687C69.2462 20.2239 69.2611 20.209 69.3059 20.209H69.7984C69.8133 20.2239 69.8432 20.2388 69.8432 20.2836ZM72.6193 21.2985C72.6342 21.3433 72.6193 21.3731 72.5745 21.3881L72.1865 21.5224C72.1417 21.5373 72.1119 21.5224 72.0969 21.4776C72.0372 21.3134 71.9029 21.2239 71.6939 21.2239C71.4999 21.2239 71.3805 21.2985 71.3805 21.4179C71.3805 21.5373 71.4701 21.5821 71.9178 21.7015C72.4402 21.8358 72.6492 22.0597 72.6492 22.4328C72.6492 22.8806 72.276 23.1791 71.7089 23.1791C71.1865 23.1791 70.8283 22.9702 70.7089 22.6119C70.6939 22.5672 70.7089 22.5373 70.7686 22.5075L71.1119 22.3433C71.1566 22.3134 71.1865 22.3284 71.2163 22.3881C71.276 22.5672 71.4551 22.6716 71.6939 22.6716C71.9327 22.6716 72.0522 22.597 72.0522 22.4627C72.0522 22.3433 71.9178 22.2687 71.4999 22.1642C70.9925 22.0299 70.7686 21.8209 70.7686 21.4627C70.7686 21.0149 71.1268 20.7313 71.679 20.7313C72.1417 20.7313 72.485 20.9403 72.6193 21.2985ZM76.6044 20.0896V23.0448C76.6044 23.0896 76.5895 23.1045 76.5447 23.1045H76.0223C75.9775 23.1045 75.9477 23.0746 75.9477 23.0448V21.8657H74.888V23.0448C74.888 23.0896 74.873 23.1045 74.8283 23.1045H74.291C74.2462 23.1045 74.2313 23.0746 74.2313 23.0448V20.0896C74.2313 20.0448 74.2611 20.0299 74.3059 20.0299H74.8283C74.873 20.0299 74.888 20.0597 74.888 20.0896V21.2687H75.9477V20.0896C75.9477 20.0448 75.9775 20.0299 76.0223 20.0299H76.5447C76.5895 20.0299 76.6044 20.0597 76.6044 20.0896ZM77.7536 22.1343V22.2239C77.7536 22.4627 77.873 22.6418 78.1716 22.6418C78.4701 22.6418 78.5447 22.5373 78.6193 22.3881C78.6641 22.3284 78.679 22.3134 78.7387 22.3433L79.0671 22.5075C79.1417 22.5373 79.1417 22.5821 79.1118 22.6418C78.9626 22.9702 78.6044 23.1493 78.1716 23.1493C77.4999 23.1493 77.1417 22.7463 77.1417 22.209V21.6716C77.1417 21.1343 77.4701 20.7313 78.1716 20.7313C78.8283 20.7313 79.1417 21.1493 79.1417 21.6716V22.0448C79.1417 22.1045 79.1268 22.1493 79.0372 22.1493H77.7536V22.1343ZM77.7536 21.6418V21.7164H78.5596V21.6418C78.5596 21.4179 78.4402 21.2388 78.1566 21.2388C77.873 21.2388 77.7536 21.4179 77.7536 21.6418ZM80.9924 20.8209V21.2687C80.9924 21.3284 80.9775 21.3433 80.9178 21.3433H80.8432C80.4999 21.3433 80.3059 21.4925 80.2462 21.7463V23.0448C80.2462 23.0896 80.2163 23.1045 80.1865 23.1045H79.6492C79.6193 23.1045 79.5895 23.0896 79.5895 23.0448V20.8358C79.5895 20.791 79.6193 20.7761 79.6492 20.7761H80.1268C80.1715 20.7761 80.1865 20.806 80.1865 20.8507V21.1642C80.291 20.9552 80.4999 20.7612 80.8581 20.7612C80.9775 20.7463 80.9924 20.7612 80.9924 20.8209ZM81.9327 22.1343V22.2239C81.9327 22.4627 82.0521 22.6418 82.3507 22.6418C82.6492 22.6418 82.7238 22.5373 82.7984 22.3881C82.8432 22.3284 82.8581 22.3134 82.9178 22.3433L83.2462 22.5075C83.3208 22.5373 83.3208 22.5821 83.2909 22.6418C83.1417 22.9702 82.7835 23.1493 82.3507 23.1493C81.679 23.1493 81.3208 22.7463 81.3208 22.209V21.6716C81.3208 21.1343 81.6492 20.7313 82.3507 20.7313C83.0074 20.7313 83.3208 21.1493 83.3208 21.6716V22.0448C83.3208 22.1045 83.3059 22.1493 83.2163 22.1493H81.9327V22.1343ZM81.9327 21.6418V21.7164H82.7387V21.6418C82.7387 21.4179 82.6193 21.2388 82.3357 21.2388C82.0671 21.2388 81.9327 21.4179 81.9327 21.6418Z" fill="white"/>
<path d="M19.9925 14.6866V9.2985C19.9925 4.16418 15.8283 0 10.694 0H0.798507C0.634328 0 0.5 0.134328 0.5 0.298507V14.6866C0.5 19.8209 4.66418 23.9851 9.7985 23.9851H10.694C15.8283 23.9701 19.9925 19.806 19.9925 14.6866ZM17.0074 14.8358C17.0074 18.3283 14.4403 20.9851 10.4403 20.9851C5.70895 20.9851 3.48507 18.1791 3.48507 14.3134V9.64179C3.48507 5.79104 5.69402 2.97015 10.4403 2.97015C14.2761 2.97015 16.0074 5.16418 16.694 7.34328C16.7836 7.67164 16.6642 7.86567 16.4104 7.95522L13.8433 8.71641C13.5298 8.80597 13.3657 8.71641 13.2761 8.40298C12.8731 7.08955 12.0075 6.37313 10.4403 6.37313C8.00746 6.37313 7.20149 7.80597 7.20149 9.73134V14.1642C7.20149 16.0895 8.00746 17.5224 10.4403 17.5224C12.4403 17.5224 13.4851 16.597 13.4851 14.5672V14H10.8134C10.6045 14 10.4552 13.8806 10.4552 13.6119V11.1642C10.4552 10.9254 10.6045 10.7761 10.8134 10.7761H16.6194C16.8582 10.7761 17.0074 10.8955 17.0074 11.1343V14.8358Z" fill="white"/>
</svg>
