<svg xmlns="http://www.w3.org/2000/svg" width="115" height="25" fill="none">
    <path fill-rule="evenodd" clip-rule="evenodd" d="M2.19 22.52h53.9a1.19 1.19 0 0 0 1.19-1.19V3.18a1.19 1.19 0 0 0-1.19-1.19H11c-5.523 0-10 4.476-10 10v9.34c0 .657.533 1.19 1.19 1.19zM1.45 12a9.54 9.54 0 0 1 9.53-9.53l45.11-.01a.73.73 0 0 1 .73.73v18.15a.73.73 0 0 1-.73.73H2.18a.73.73 0 0 1-.73-.73V12z" fill="#fff"/>
    <path d="M20.05 11.54v7.49a.14.14 0 0 1-.14.14h-2.94a.14.14 0 0 1-.14-.14.14.14 0 0 0-.19-.13 5.857 5.857 0 0 1-.9.21 7.34 7.34 0 0 1-1.11.09 7.073 7.073 0 0 1-2.62-.55 6.782 6.782 0 0 1-2.31-1.53 6.68 6.68 0 0 1-1.51-2.27 7.11 7.11 0 0 1-.5-2.62c0-.901.17-1.793.5-2.63a6.66 6.66 0 0 1 1.52-2.31 6.78 6.78 0 0 1 2.31-1.53 7 7 0 0 1 5.26 0c.82.327 1.567.813 2.2 1.43a.14.14 0 0 1 0 .2l-2.07 2.07a.14.14 0 0 1-.2 0 3.599 3.599 0 0 0-1.15-.73 3.81 3.81 0 0 0-2.84 0c-.47.183-.895.462-1.25.82a3.76 3.76 0 0 0 0 5.33c.319.323.695.584 1.11.77.401.18.831.288 1.27.32.437.032.876-.008 1.3-.12a3.568 3.568 0 0 0 1.13-.52.14.14 0 0 0 .06-.12v-.48a.14.14 0 0 0-.14-.14h-2.51a.14.14 0 0 1-.14-.14v-2.91a.14.14 0 0 1 .14-.14h5.71a.14.14 0 0 1 .15.14z" fill="#fff"/>
    <path fill-rule="evenodd" clip-rule="evenodd" d="m30.51 17.65.48 1.44a.14.14 0 0 0 .14.15h3.06a.14.14 0 0 0 .14-.19l-4.39-13.6a.14.14 0 0 0-.14-.1h-2.82a.14.14 0 0 0-.13.1l-4.63 13.6a.14.14 0 0 0 .13.19h3.08a.14.14 0 0 0 .13-.1l.5-1.49a.14.14 0 0 1 .13-.1h4.18a.14.14 0 0 1 .14.1zm-1.25-3.34H27.4a.14.14 0 0 1-.17-.19l1-2.78a.14.14 0 0 1 .27 0l.9 2.78a.14.14 0 0 1-.14.19z" fill="#fff"/>
    <path d="M46.6 5.28h3.06a.14.14 0 0 1 .14.13l.8 13.62a.14.14 0 0 1-.14.15h-2.92a.14.14 0 0 1-.14-.13l-.29-4.82a.14.14 0 0 0-.28 0l-1.64 4.86a.14.14 0 0 1-.13.1h-3a.14.14 0 0 1-.13-.1l-1.8-5.14a.14.14 0 0 0-.28 0l-.32 5.06a.14.14 0 0 1-.14.13h-2.94a.14.14 0 0 1-.14-.15l.88-13.57a.14.14 0 0 1 .14-.13h3.06a.14.14 0 0 1 .13.1l2.88 8.22a.14.14 0 0 0 .27 0l2.8-8.22a.14.14 0 0 1 .13-.11z" fill="#fff"/>
    <path fill-rule="evenodd" clip-rule="evenodd" d="M59.27 22.52h45.12c5.515-.006 9.985-4.476 9.99-9.99V3.19A1.19 1.19 0 0 0 113.19 2H59.27a1.19 1.19 0 0 0-1.19 1.19v18.14c0 .657.533 1.19 1.19 1.19zM58.54 3.2a.73.73 0 0 1 .73-.73l53.92-.01a.73.73 0 0 1 .73.73v9.34c-.005 5.26-4.269 9.524-9.53 9.53H59.27a.73.73 0 0 1-.73-.73V3.2z" fill="#fff"/>
    <path d="M67.19 19.19c-.443-.002-.883-.062-1.31-.18a4.45 4.45 0 0 1-1.24-.56 4.65 4.65 0 0 1-1.59-1.71 4.729 4.729 0 0 1-.57-2.15.14.14 0 0 1 .14-.15h2.97a.14.14 0 0 1 .14.14c.002.265.086.523.24.74.12.167.27.313.44.43.219.15.475.236.74.25.268.013.536-.039.78-.15.16-.064.307-.159.43-.28.098-.099.182-.21.25-.33a.912.912 0 0 0 .1-.31 1.604 1.604 0 0 0 0-.49 1 1 0 0 0-.1-.32 1.292 1.292 0 0 0-.25-.33 1.633 1.633 0 0 0-.43-.29l-.44-.17-.5-.17-1-.34a5.503 5.503 0 0 1-1-.51 4 4 0 0 1-1.12-1 4.13 4.13 0 0 1-.79-2.83 3.918 3.918 0 0 1 .43-1.47c.218-.42.505-.798.85-1.12a4.078 4.078 0 0 1 1.13-.75 4.12 4.12 0 0 1 1.34-.33 4.43 4.43 0 0 1 1.46.13 4.14 4.14 0 0 1 2.3 1.43c.26.334.462.709.6 1.11a4 4 0 0 1 .22 1.2.14.14 0 0 1-.14.15h-2.9a.14.14 0 0 1-.14-.12.6.6 0 0 0-.27-.48 2.002 2.002 0 0 0-.47-.22h-.16a.92.92 0 0 0-.32 0c-.13.02-.255.065-.37.13a.74.74 0 0 0-.3.33.85.85 0 0 0-.06.63.9.9 0 0 0 .38.52c.19.105.386.195.59.27l.68.24.65.21c.22.073.443.16.67.26a4.45 4.45 0 0 1 2.66 4.05 4.39 4.39 0 0 1-.72 2.44 4.71 4.71 0 0 1-2.95 2 5.12 5.12 0 0 1-1.05.1z" fill="#fff"/>
    <path fill-rule="evenodd" clip-rule="evenodd" d="M109.49 13.39c.296-.71.446-1.472.44-2.24a5.688 5.688 0 0 0-.45-2.24 5.85 5.85 0 0 0-1.23-1.84 6.085 6.085 0 0 0-1.83-1.27 5.553 5.553 0 0 0-2.23-.49h-3.04a.14.14 0 0 0-.14.14v13.6c0 .077.062.14.14.14h2.91a.14.14 0 0 0 .14-.14v-1.94a.14.14 0 0 1 .14-.14 5.615 5.615 0 0 0 2.09-.48 5.948 5.948 0 0 0 1.83-1.26 5.85 5.85 0 0 0 1.23-1.84zm-5.256.362a.142.142 0 0 1-.044-.103v-5a.14.14 0 0 1 .15-.12c.291.027.575.105.84.23a2.635 2.635 0 0 1 1.34 1.4 2.652 2.652 0 0 1-.54 2.83 2.73 2.73 0 0 1-.8.57 2.499 2.499 0 0 1-.84.23.142.142 0 0 1-.106-.037zM93.8 5.85a6.72 6.72 0 0 0-2.7-.55 6.72 6.72 0 0 0-2.7.56 6.94 6.94 0 0 0-3.68 3.69 7 7 0 0 0 0 5.41 6.94 6.94 0 0 0 3.68 3.69 6.93 6.93 0 0 0 5.4 0 7.13 7.13 0 0 0 2.21-1.51 7 7 0 0 0 1.49-2.2 6.95 6.95 0 0 0 0-5.41 6.999 6.999 0 0 0-1.49-2.2 7.139 7.139 0 0 0-2.21-1.48zm-2.695 10.14c.5.003.995-.095 1.455-.29a3.77 3.77 0 0 0 2-2c.39-.931.39-1.98 0-2.91a3.77 3.77 0 0 0-2-2 3.76 3.76 0 0 0-2.91 0 3.77 3.77 0 0 0-2 2 3.76 3.76 0 0 0 0 2.91 3.77 3.77 0 0 0 2 2c.46.195.955.293 1.455.29z" fill="#fff"/>
    <rect x="76.81" y="8.349" width="3.22" height="10.84" rx=".14" fill="#fff"/>
    <rect x="74.16" y="5.299" width="8.51" height="3.22" rx=".14" fill="#fff"/>
</svg>
