<svg xmlns="http://www.w3.org/2000/svg" width="62" height="25" fill="none">
    <path d="M50.83 4.35c.353.151.64.45 1.047.753L49.339 8.48c-.477-.32-.872-.618-1.3-.856-2.408-1.356-5.07-.488-6.11 2.044-.792 1.919-.749 3.882.097 5.774.883 1.979 2.992 2.857 5.074 2.223.608-.185.97-.472.906-1.188-.06-.645-.011-1.301-.011-2.06h-2.928v-3.492c.244-.027.499-.075.754-.08 1.86-.006 3.724.02 5.584-.017.71-.016.905.233.9.91-.033 2.375.01 4.75-.038 7.13-.006.353-.25.84-.542 1.036-2.445 1.626-5.123 2.33-8.051 1.74-3.074-.624-5.21-2.413-6.257-5.362-.921-2.608-.927-5.264.044-7.856 1.003-2.673 2.922-4.43 5.714-5.21.347-.097 2.234-.238 2.722-.195 2.564.2 3.73.808 4.933 1.328zM31.047 6.55v13.158a60125.71 60125.71 0 0 1-5.823-16.535h-4.586s-4.045 11.51-5.883 16.714l-2.71-4.96c.087-.082.14-.13.2-.163 2.966-1.654 3.318-4.776 2.7-7.216-.629-2.483-2.721-4.012-5.757-4.18-1.556-.087-3.123-.043-4.685-.054-1.154-.006-2.304 0-3.507 0C.99 7.217.99 11.077.99 14.92v6.696H5.54v-6.05h2.038l3.026 6.044h8.186c.298-.921.667-2.054 1.063-3.263h6.056c.39 1.203.759 2.342 1.051 3.263H33.536v-.01h2.038V6.545c-1.512.005-2.933.005-4.527.005zm-22.83 5.801H5.496V7.293h2.721c1.285 0 2.342 1.139 2.342 2.532s-1.057 2.526-2.342 2.526zm12.925 2.055c.57-1.756 1.73-5.302 1.73-5.302s1.17 3.557 1.729 5.302h-3.459zM57.336 21.92a3.654 3.654 0 1 0 0-7.308 3.654 3.654 0 0 0 0 7.308z" fill="#fff"/>
</svg>
